<?xml  version="1.0" encoding="UTF-8"?>
<!DOCTYPE svg PUBLIC "-//W3C//DTD SVG 1.0//EN" "http://www.w3.org/TR/2001/REC-SVG-20010904/DTD/svg10.dtd" >
<svg xmlns="http://www.w3.org/2000/svg" >
<metadata>
<version>1.0</version>
<id><![CDATA[Myriad W08 Condensed]]></id>
<vendor>Monotype Imaging Inc.</vendor>
<credits>
<name>Fonts.com WebFonts</name>
<URL>http://webfonts.fonts.com</URL>
<role>Home of the Web fonts</role>
</credits>
<license>
<URL>http://webfonts.fonts.com/Legal</URL>
</license>
<copyright><![CDATA[© 1992, 1994, 1997, 2000, 2004 Adobe Systems Incorporated. All rights reserved.]]></copyright>
<trademark><![CDATA[Myriad is either a registered trademark or a trademark of Adobe Systems Incorporated in the United States and/or other countries.]]></trademark>
<licensee>
<name></name>
</licensee>
</metadata>
<defs >
<font horiz-adv-x="366" id="0a9c288f-c817-4fce-8ce7-4cbf0c0c4119">
<font-face font-family="" panose-1="2 11 5 6 3 4 3 2 2 4" ascent="974" descent="-250" units-per-em="1000" alphabetic="0">
</font-face>
<missing-glyph horiz-adv-x="500" d="M0 700H500V0H0V700ZM420 650H80L250 395L420 650ZM450 95V605L280 350L450 95ZM420 50L250 305L80 50H420ZM50 95L220 350L50 605V95Z"  />

<glyph unicode="&#xA;" />
<glyph unicode="&#xD;" horiz-adv-x="157" />
<glyph unicode=" " horiz-adv-x="157" />
<glyph unicode="!" horiz-adv-x="204" d="M70 188L60 674H145L134 188H70ZM102 -8Q81 -8 67 7T53 46Q53 71 67 86T102 101Q125 101 138 86T151 46Q151 22 138 7T102 -8Z"  />
<glyph unicode="&quot;" horiz-adv-x="309" d="M121 682L107 449H64L50 682H121ZM260 682L247 449H203L189 682H260Z"  />
<glyph unicode="#" horiz-adv-x="385" d="M222 251L241 404H164L145 251H222ZM61 0L87 199H22V251H94L113 404H44V455H120L145 650H196L171 455H249L274 650H324L299 455H363V404H292L273 251H343V201H267L241 0H189L215 201H138L113 0H61Z"  />
<glyph unicode="$" horiz-adv-x="385" d="M162 -84V16Q127 17 98 27T51 50L69 110Q89 97 115 88T171 78Q216 78 239 107T263 179Q263 222 242 252T177 309Q154 322 132 338T93 373T65 417T54 474Q54 504 63 529T87 575T123 608T167 628V725H223V634Q254 634 279 626T319 607L299 548Q285 556 264 564T213 573Q192 573 177 566T150 546T134 518T128 486Q128 464 133 448T150 419T179 393T222 366Q282 331 309 288T336 188Q336 117 302 75T217 22V-84H162Z"  />
<glyph unicode="%" horiz-adv-x="645" d="M153 658Q209 658 242 605T275 460Q275 409 265 372T237 310T198 273T153 261Q126 261 104 275T65 314T39 376T30 458Q30 553 65 605T153 658ZM153 610Q134 610 122 596T103 560T92 512T89 460Q89 434 92 408T102 359T121 323T153 309Q172 309 184 323T204 359T213 407T216 459Q216 483 214 510T204 559T185 595T153 610ZM127 -8L468 658H517L176 -8H127ZM493 387Q549 387 582 334T615 190Q615 139 605 102T577 41T538 5T493 -7Q439 -7 405 45T370 189Q370 235 379 272T405 334T444 373T493 387ZM493 339Q474 339 462 325T442 289T432 241T429 190Q429 164 432 138T442 90T462 54T493 40Q512 40 524 54T544 89T553 137T556 189Q556 213 554 239T544 288T525 324T493 339Z"  />
<glyph unicode="&amp;" horiz-adv-x="491" d="M388 0Q378 14 369 26T342 63Q315 28 277 10T197 -8Q155 -8 124 8T71 50T40 110T29 179Q29 234 53 282T132 371V374Q110 409 97 446T83 525Q83 556 92 584T119 634T162 669T221 682Q244 682 265 674T302 648T329 604T339 543Q339 493 314 451T224 362V359Q233 343 247 321T278 274T313 222T352 168Q363 191 370 218T383 271T390 320T393 361H461Q458 331 453 299T439 235T418 173T388 117Q397 103 417 76T474 0H388ZM209 53Q240 53 265 68T309 112Q265 171 230 223T163 324Q140 302 122 268T103 187Q103 161 109 137T129 94T163 64T209 53ZM214 625Q184 625 169 598T154 530Q154 495 163 467T192 407Q231 436 251 468T272 540Q272 555 269 570T259 598T241 617T214 625Z"  />
<glyph unicode="&apos;" horiz-adv-x="170" d="M121 682L107 449H64L50 682H121Z"  />
<glyph unicode="(" horiz-adv-x="253" d="M228 692Q185 624 155 523T124 285Q124 150 154 50T228 -120H168Q148 -92 129 -53T94 38T68 150T58 286Q59 359 69 421T94 534T129 624T168 692H228Z"  />
<glyph unicode=")" horiz-adv-x="253" d="M25 -120Q68 -52 98 49T129 287Q129 423 99 523T25 692H85Q104 664 124 625T159 536T185 424T195 287Q194 213 184 151T159 39T124 -51T85 -120H25Z"  />
<glyph unicode="*" horiz-adv-x="373" d="M298 652L213 532V530L348 547V487L213 502V500L300 385L244 353L185 485L183 484L123 350L72 383L157 503V504L24 487V547L155 531L156 533L73 649L125 679L185 551H187L244 682L298 652Z"  />
<glyph unicode="+" horiz-adv-x="596" d="M326 532V294H556V240H326V0H270V240H40V294H270V532H326Z"  />
<glyph unicode="&#x2c;" horiz-adv-x="194" d="M17 -126Q25 -104 33 -75T50 -14T64 49T75 107L162 117Q154 87 143 53T118 -14T93 -74T70 -119L17 -126Z"  />
<glyph unicode="-" horiz-adv-x="279" d="M249 291V231H30V291H249Z"  />
<glyph unicode="." horiz-adv-x="194" d="M100 -8Q78 -8 64 8T49 50Q49 76 64 92T100 108Q123 108 137 92T151 50Q151 24 138 8T100 -8Z"  />
<glyph unicode="/" horiz-adv-x="281" d="M8 -40L223 682H281L65 -40H8Z"  />
<glyph unicode="0" horiz-adv-x="385" d="M198 658Q237 658 267 635T317 570T348 466T358 326Q358 237 345 174T309 71T255 11T189 -8Q113 -8 70 78T27 324Q27 489 72 573T198 658ZM194 592Q171 592 154 572T126 517T110 433T104 325Q104 266 109 217T125 133T154 78T195 58Q218 58 234 78T260 133T276 217T281 325Q281 382 276 431T261 515T234 571T194 592Z"  />
<glyph unicode="1" horiz-adv-x="385" d="M188 572H186L78 510L63 570L200 650H264V0H188V572Z"  />
<glyph unicode="2" horiz-adv-x="385" d="M32 0V50L87 125Q116 165 146 208T200 295T240 384T256 476Q256 530 233 561T163 592Q145 592 131 588T105 578T84 566T69 556L50 614Q67 628 99 643T177 658Q217 658 246 644T295 606T323 550T332 480Q332 434 318 389T282 301T231 214T172 130L128 70V68H345V0H32Z"  />
<glyph unicode="3" horiz-adv-x="385" d="M45 83Q60 74 85 65T139 56Q190 56 220 90T251 186Q251 250 215 285T120 320H102V378H117Q134 378 154 385T192 406T222 442T234 494Q234 543 210 568T148 594Q124 594 104 584T67 563L50 621Q68 635 99 646T167 658Q201 658 228 647T273 615T301 567T311 508Q311 459 287 419T214 356V354Q236 348 256 335T293 301T318 251T328 184Q328 144 316 109T279 48T221 7T142 -8Q110 -8 79 0T28 22L45 83Z"  />
<glyph unicode="4" horiz-adv-x="385" d="M234 0V179H18V231L229 650H304V242H375V179H304V0H234ZM234 242V426Q234 460 236 491T240 554H236Q219 515 207 488T181 431L91 244V242H234Z"  />
<glyph unicode="5" horiz-adv-x="385" d="M333 582H158L131 409Q137 411 142 411T155 411Q181 411 217 400T279 362Q305 336 319 300T333 214Q333 166 319 125T278 55T216 9T136 -8Q107 -8 77 -1T26 20L43 82Q58 73 82 65T134 56Q159 56 181 65T220 94T247 141T257 206Q257 245 246 272T215 317T168 343T110 352Q92 352 80 352T59 349L100 650H333V582Z"  />
<glyph unicode="6" horiz-adv-x="385" d="M319 593Q299 591 273 586Q232 576 204 553T155 497T124 427T106 352H109Q128 380 155 397T219 414Q282 414 320 361T359 214Q359 168 349 128T318 57T268 10T199 -8Q157 -8 125 12T72 68T40 152T29 256Q29 351 52 424T113 549Q142 591 185 617T270 652Q286 655 298 656T319 658V593ZM199 52Q215 52 230 60T257 87T275 136T282 208Q282 282 259 318T195 355Q171 355 148 338T111 285Q109 280 107 270T105 246Q106 146 133 99T199 52Z"  />
<glyph unicode="7" horiz-adv-x="385" d="M350 650V604L140 0H65L271 580V582H37V650H350Z"  />
<glyph unicode="8" horiz-adv-x="385" d="M190 -8Q149 -8 119 6T69 45T38 99T28 159Q28 193 37 221T62 272T96 313T135 345L134 347Q93 375 71 414T49 496Q49 533 61 563T95 614T143 646T201 658Q236 658 262 645T305 610T331 561T340 505Q340 462 319 423T253 352V349Q298 319 327 275T357 172Q357 134 345 101T311 44T258 6T190 -8ZM193 49Q229 49 255 77T281 167Q281 195 274 217T253 258T224 290T188 317Q149 293 127 254T104 172Q104 117 127 83T193 49ZM195 601Q163 601 143 574T123 501Q123 476 130 457T148 424T173 398T203 376Q232 397 250 428T268 496Q268 544 249 572T195 601Z"  />
<glyph unicode="9" horiz-adv-x="385" d="M67 58Q80 58 91 59T115 64Q167 77 204 115Q231 145 251 190T280 300H277Q259 277 233 261T172 245Q142 245 116 258T71 297T41 358T30 438Q30 483 41 523T74 593T126 640T194 658Q236 658 266 638T317 582T347 499T357 397Q357 300 335 225T271 96Q242 57 203 32T121 -3Q105 -6 92 -7T67 -8V58ZM190 598Q175 598 160 590T133 563T114 516T106 445Q106 373 130 338T194 303Q218 303 240 318T274 361Q277 369 278 377T280 403Q280 505 254 551T190 598Z"  />
<glyph unicode=":" horiz-adv-x="194" d="M100 359Q78 359 64 374T50 415Q50 440 64 456T100 472Q123 472 136 457T150 415Q150 390 137 375T100 359ZM100 -8Q78 -8 64 7T50 48Q50 73 64 89T100 105Q123 105 136 90T150 48Q150 23 137 8T100 -8Z"  />
<glyph unicode=";" horiz-adv-x="194" d="M18 -126Q26 -104 34 -75T51 -14T65 49T76 107L161 117Q153 87 142 53T117 -14T92 -74T69 -119L18 -126ZM111 359Q89 359 75 374T61 415Q61 440 75 456T111 472Q134 472 147 457T161 415Q161 390 148 375T111 359Z"  />
<glyph unicode="&lt;" horiz-adv-x="596" d="M66 290L530 532V465L142 267V265L530 66V0L66 242V290Z"  />
<glyph unicode="=" horiz-adv-x="596" d="M40 336V391H556V336H40ZM40 147V202H556V147H40Z"  />
<glyph unicode="&gt;" horiz-adv-x="596" d="M530 237L66 0V66L466 265V267L66 466V532L530 295V237Z"  />
<glyph unicode="?" horiz-adv-x="309" d="M105 181L103 196Q95 241 104 288T145 386Q157 407 168 425T186 460T198 495T203 534Q203 577 181 596T126 615Q107 615 90 610T60 596L44 656Q56 664 83 673T143 682Q180 682 206 671T250 640T274 596T282 544Q282 517 275 493T257 446T233 403T207 361Q195 341 188 323T176 285T170 244T172 198L173 181H105ZM135 -8Q113 -8 99 7T85 47Q85 73 99 88T135 104Q158 104 171 89T185 47Q185 23 172 8T135 -8Z"  />
<glyph unicode="@" horiz-adv-x="590" d="M377 379Q368 384 349 384Q320 384 296 366T253 317T224 250T213 176Q213 142 224 128T253 113Q268 113 283 123T311 151T333 189T348 233L377 379ZM421 -60Q388 -80 351 -89T273 -98Q224 -98 181 -81T105 -29T54 60T35 187Q35 269 59 343T125 472T225 559T351 592Q402 592 441 574T506 525T546 450T560 354Q560 212 517 139T406 65Q378 65 362 84T348 145H345Q332 121 318 106T290 81T262 69T236 65Q201 65 178 92T155 174Q155 216 168 261T209 343T276 404T369 428Q388 428 407 424T439 414L399 212Q388 158 394 133T420 107Q438 107 455 123T485 170T507 242T515 335Q515 438 474 495T344 553Q292 553 244 527T160 452T102 336T80 186Q80 64 134 4T286 -57Q323 -57 352 -49T409 -25L421 -60Z"  />
<glyph unicode="A" horiz-adv-x="435" d="M141 202L96 0H22L176 674H261L411 0H335L290 202H141ZM280 264L245 435Q237 471 231 511T218 589H214Q208 551 201 510T187 435L152 264H280Z"  />
<glyph unicode="B" horiz-adv-x="416" d="M60 664Q84 670 112 673T173 677Q219 677 257 667T322 630Q366 589 366 515Q366 463 339 424T262 365V363Q321 347 354 302T387 191Q387 149 375 116T339 57Q310 25 265 11T161 -4Q123 -4 100 -2T60 3V664ZM137 388H172Q196 388 217 396T254 421T279 458T289 507Q289 530 283 550T264 585T230 608T178 617Q152 617 137 612V388ZM137 61Q144 59 153 58T176 57Q236 57 272 91T308 191Q308 226 297 251T267 294T223 320T171 329H137V61Z"  />
<glyph unicode="C" horiz-adv-x="373" d="M354 12Q338 4 314 -1T258 -6Q208 -6 167 14T95 75T49 180T32 329Q32 429 54 496T111 604T188 662T270 680Q301 680 322 675T354 663L337 598Q325 603 310 607T269 612Q242 612 214 598T164 552T127 466T113 336Q113 259 126 207T161 122T211 76T271 62Q293 62 311 66T342 77L354 12Z"  />
<glyph unicode="D" horiz-adv-x="445" d="M60 664Q103 677 164 677Q218 677 256 664T322 626Q361 592 387 526T413 353Q413 295 407 250T389 171T363 111T332 69Q299 31 252 14T146 -4Q123 -4 100 -3T60 3V664ZM137 63Q145 61 153 61T166 61Q198 61 228 74T281 120T319 209T333 351Q333 479 294 546T173 614Q164 614 155 613T137 610V63Z"  />
<glyph unicode="E" horiz-adv-x="354" d="M306 320H137V67H329V0H60V674H317V607H137V385H306V320Z"  />
<glyph unicode="F" horiz-adv-x="345" d="M60 674H317V607H137V371H305V306H137V0H60V674Z"  />
<glyph unicode="G" horiz-adv-x="436" d="M392 17Q370 8 337 1T272 -6Q227 -6 187 8T113 60Q76 99 54 167T32 328Q32 426 55 493T114 602T196 662T286 680Q318 680 342 675T382 661L365 595Q351 602 333 606T287 611Q255 611 224 598T168 552T128 466T112 335Q112 257 125 205T161 120T213 74T272 60Q292 60 303 63T319 68V288H232V352H392V17Z"  />
<glyph unicode="H" horiz-adv-x="463" d="M137 674V385H326V674H403V0H326V315H137V0H60V674H137Z"  />
<glyph unicode="I" horiz-adv-x="199" d="M137 674V0H60V674H137Z"  />
<glyph unicode="J" horiz-adv-x="265" d="M134 674H211V190Q211 133 200 95T169 34T119 2T53 -8Q39 -8 26 -7T3 -1L10 64Q18 62 27 61T47 60Q68 60 84 65T111 84T128 124T134 189V674Z"  />
<glyph unicode="K" horiz-adv-x="404" d="M60 674H137V354H139Q161 396 181 435L307 674H392L227 386L396 0H313L175 325L137 260V0H60V674Z"  />
<glyph unicode="L" horiz-adv-x="344" d="M60 674H137V65H327V0H60V674Z"  />
<glyph unicode="M" horiz-adv-x="599" d="M468 290Q464 357 462 427T461 554H457Q446 497 433 439T403 320L320 4H271L192 307Q175 372 161 433T137 554H134Q134 494 132 426T126 285L113 0H44L84 674H167L246 366Q263 299 276 246T300 134H303Q308 163 313 190T325 244T338 302T353 366L429 674H515L554 0H482L468 290Z"  />
<glyph unicode="N" horiz-adv-x="465" d="M60 0V674H133L257 358Q278 304 302 241T343 123H345Q343 163 341 200T338 274T337 350T336 433V674H405V0H332L204 324Q184 375 163 432T124 553H122Q124 519 125 485T128 413T129 331T130 233V0H60Z"  />
<glyph unicode="O" horiz-adv-x="446" d="M230 682Q317 682 365 593T414 342Q414 247 399 181T357 72T295 11T219 -8Q135 -8 84 80T32 338Q32 422 46 486T87 593T149 659T230 682ZM223 614Q191 614 170 590T136 527T118 438T112 337Q112 285 117 235T136 146T170 84T224 60Q257 60 278 85T311 150T329 239T334 339Q334 386 329 435T312 523T278 588T223 614Z"  />
<glyph unicode="P" horiz-adv-x="399" d="M60 664Q83 670 111 673T172 677Q219 677 257 665T321 627Q346 603 358 568T371 488Q371 441 361 409T330 350Q302 312 259 294T171 275Q161 275 153 275T137 276V0H60V664ZM137 341Q150 338 167 338Q224 338 259 374T294 483Q294 509 288 532T269 574T234 603T180 614Q154 614 137 609V341Z"  />
<glyph unicode="Q" horiz-adv-x="446" d="M401 -91Q382 -83 361 -74T318 -54T278 -35T246 -18Q226 -8 221 -8Q179 -8 145 13T85 77T46 185T32 338Q32 422 46 486T87 594T149 660T231 682Q318 682 366 593T414 342Q414 203 384 126T299 23V19Q333 5 366 -6T429 -29L401 -91ZM225 60Q257 60 278 84T311 149T329 239T334 339Q334 387 329 436T312 524T278 589T225 614Q192 614 171 589T136 525T117 436T112 338Q112 288 117 239T135 149T170 85T225 60Z"  />
<glyph unicode="R" horiz-adv-x="409" d="M60 664Q85 671 113 674T171 677Q222 677 259 666T323 629Q348 603 359 570T370 497Q370 432 342 390T262 324V322Q300 311 321 274T353 171Q364 101 374 59T391 0H313Q305 15 296 59T277 167Q266 236 242 265T167 294H137V0H60V664ZM137 353H169Q225 353 258 390T292 488Q292 547 266 580T177 615Q166 615 156 614T137 611V353Z"  />
<glyph unicode="S" horiz-adv-x="361" d="M45 89Q62 78 89 70T142 62Q195 62 224 93T254 176Q254 223 230 254T165 316Q145 330 123 348T82 390T51 442T38 503Q38 541 51 573T87 629T143 666T216 680Q248 680 273 672T311 655L292 589Q279 598 259 605T212 612Q187 612 169 604T139 582T121 551T115 516Q115 491 121 473T140 439T171 409T214 377Q275 334 303 287T331 183Q331 139 317 105T277 45T217 7T142 -6Q107 -6 75 3T28 23L45 89Z"  />
<glyph unicode="T" horiz-adv-x="354" d="M139 605H16V674H339V605H216V0H139V605Z"  />
<glyph unicode="U" horiz-adv-x="457" d="M136 674V222Q136 177 143 146T162 96T191 69T228 60Q249 60 266 68T296 96T314 147T321 222V674H398V234Q398 168 385 122T350 47T295 5T226 -8Q150 -8 105 46T59 225V674H136Z"  />
<glyph unicode="V" horiz-adv-x="421" d="M170 0L16 674H98L164 358Q176 301 189 233T212 99H215Q223 165 235 232T260 360L324 674H406L249 0H170Z"  />
<glyph unicode="W" horiz-adv-x="654" d="M150 0L20 674H100L157 349Q168 285 176 227T190 106H194Q200 170 211 227T234 350L296 674H362L424 357Q435 297 445 237T463 106H466Q474 179 483 237T502 353L558 674H633L502 0H427L362 328Q352 382 343 437T328 549H326Q318 492 310 437T289 325L222 0H150Z"  />
<glyph unicode="X" horiz-adv-x="392" d="M297 0L236 162Q225 190 216 217T195 280H192Q181 246 171 217T151 160L93 0H14L153 344L19 674H99L159 518Q169 495 178 470T199 411H201Q212 446 220 471T237 521L292 674H371L239 346L378 0H297Z"  />
<glyph unicode="Y" horiz-adv-x="394" d="M158 0V285L10 674H91L151 505Q164 470 177 431T201 353H203Q214 392 226 430T252 508L309 674H390L235 288V0H158Z"  />
<glyph unicode="Z" horiz-adv-x="358" d="M20 46L251 605V608H39V674H337V622L110 69V66H336V0H20V46Z"  />
<glyph unicode="[" horiz-adv-x="253" d="M74 -112V682H223V629H136V-59H223V-112H74Z"  />
<glyph unicode="\" horiz-adv-x="263" d="M197 -40L1 682H59L255 -40H197Z"  />
<glyph unicode="]" horiz-adv-x="253" d="M179 686V-112H31V-59H117V633H31V686H179Z"  />
<glyph unicode="^" horiz-adv-x="596" d="M467 189L299 577H296L128 189H64L270 650H326L532 189H467Z"  />
<glyph unicode="_" horiz-adv-x="500" d="M500 -75V-125H0V-75H500Z"  />
<glyph unicode="`" horiz-adv-x="300" d="M118 682L195 547H144L39 682H118Z"  />
<glyph unicode="a" horiz-adv-x="364" d="M245 0L240 51H237Q221 23 197 8T141 -8Q92 -8 59 29T26 130Q26 175 43 208T88 263T154 295T232 306V321Q232 370 217 400T155 431Q132 431 112 424T75 406L58 460Q73 471 104 481T171 492Q244 492 277 447T310 319V110Q310 82 310 53T315 0H245ZM234 250Q219 250 197 248T153 234T116 200T101 138Q101 114 106 98T120 72T139 57T160 52Q186 52 205 70T232 125Q234 132 234 139T234 152V250Z"  />
<glyph unicode="b" horiz-adv-x="399" d="M49 0Q49 10 50 25T51 56T52 88T53 116V692H130V427H132Q151 463 177 477T234 492Q291 492 328 429T366 247Q366 181 354 133T321 54T274 7T219 -8Q181 -8 159 12T123 63H120L115 0H49ZM130 171Q130 163 130 155T133 141Q140 114 149 98T168 72T187 59T205 56Q228 56 244 70T270 110T284 170T289 243Q289 279 285 312T270 371T244 411T204 426Q190 426 178 419T157 399T141 371T132 340Q130 332 130 323T130 306V171Z"  />
<glyph unicode="c" horiz-adv-x="302" d="M290 12Q277 4 257 -1T210 -6Q130 -6 82 56T33 239Q33 291 46 337T83 417T143 471T224 491Q244 491 262 487T292 476L277 413Q269 417 255 421T222 426Q193 426 172 410T137 368T117 309T110 239Q110 154 140 106T224 58Q240 58 253 61T280 71L290 12Z"  />
<glyph unicode="d" horiz-adv-x="399" d="M345 692V116Q345 104 345 88T346 56T348 25T349 0H283L278 61H275Q263 35 238 14T174 -8Q112 -8 73 56T33 240Q33 304 45 351T78 430T124 477T179 492Q205 492 229 479T267 434H269V692H345ZM269 300Q269 308 269 316T268 332Q264 370 244 398T196 426Q172 426 156 411T129 370T115 310T110 240Q110 202 115 169T130 110T155 71T192 56Q201 56 211 59T232 71T251 96T266 139Q269 152 269 171V300Z"  />
<glyph unicode="e" horiz-adv-x="363" d="M108 235Q108 179 118 144T145 90T181 63T223 55Q248 55 268 60T303 74L315 17Q295 6 267 0T209 -6Q122 -6 78 60T33 237Q33 296 45 343T78 423T130 474T196 492Q233 492 259 474T302 426T326 358T334 278Q334 264 334 254T333 235H108ZM260 292Q261 365 239 398T188 432Q169 432 155 420T131 387T116 342T109 292H260Z"  />
<glyph unicode="f" horiz-adv-x="228" d="M70 0V425H9V484H70V513Q70 552 78 590T113 659Q134 682 160 691T210 700Q230 700 244 697T270 688L257 628Q250 631 240 633T215 636Q194 636 181 626T161 599T150 560T147 514V484H235V425H147V0H70Z"  />
<glyph unicode="g" horiz-adv-x="399" d="M350 484Q349 458 348 424T346 333V62Q346 14 343 -19T334 -77T319 -118T298 -148Q276 -173 243 -186T169 -200Q138 -200 110 -194T63 -176L81 -116Q95 -124 118 -130T171 -137Q194 -137 212 -130T243 -105T263 -59T270 11V60H268Q255 31 231 16T175 1Q143 1 117 18T72 67T43 143T33 240Q33 307 47 354T82 432T131 477T185 492Q224 492 244 472T275 429H277L281 484H350ZM270 317Q270 326 269 335T266 352Q263 364 258 377T244 401T224 419T196 426Q175 426 159 413T132 375T116 318T110 244Q110 151 135 108T196 64Q205 64 214 66T233 76T250 97T265 133Q268 144 269 155T270 177V317Z"  />
<glyph unicode="h" horiz-adv-x="405" d="M54 692H131V432H133Q141 445 151 455T173 474Q187 482 202 487T238 492Q261 492 281 483T317 453T342 400T351 321V0H274V312Q274 334 271 355T261 392T241 417T209 427Q182 427 163 408T134 350Q131 333 131 313V0H54V692Z"  />
<glyph unicode="i" horiz-adv-x="184" d="M54 0V484H131V0H54ZM91 659Q112 659 124 646T137 609Q138 586 125 573T90 559Q71 559 59 572T46 609Q46 632 59 645T91 659Z"  />
<glyph unicode="j" horiz-adv-x="188" d="M-28 -139Q-11 -134 7 -127T37 -101Q43 -91 47 -79T55 -49T59 -7T60 53V484H137V31Q137 -7 134 -36T125 -86T110 -124T88 -154Q66 -177 36 -188T-18 -200L-28 -139ZM99 659Q119 659 131 646T144 609Q144 586 132 573T97 559Q78 559 65 572T53 609Q52 632 65 645T99 659Z"  />
<glyph unicode="k" horiz-adv-x="354" d="M130 259H132Q139 273 145 287T158 313L254 484H337L209 280L348 0H262L157 228L130 183V0H53V692H130V259Z"  />
<glyph unicode="l" horiz-adv-x="191" d="M54 692H131V0H54V692Z"  />
<glyph unicode="m" horiz-adv-x="620" d="M54 359Q54 380 54 397T53 428T51 456T50 484H117L121 424H123Q139 453 166 472T232 492Q266 492 292 475T333 418H335Q354 454 383 473Q411 492 450 492Q499 492 532 453T566 321V0H490V303Q490 327 488 349T478 388T458 416T422 427Q398 427 379 408T351 355Q348 335 348 311V0H272V317Q272 337 270 357T260 392T240 417T205 427Q182 427 161 407T133 349Q130 329 130 307V0H54V359Z"  />
<glyph unicode="n" horiz-adv-x="405" d="M54 359Q54 380 54 397T53 428T51 456T50 484H117L121 426H123Q139 455 167 473T234 492Q284 492 317 453T351 325V0H274V312Q274 333 272 354T262 391T241 417T207 427Q183 427 163 407T134 348Q131 330 131 305V0H54V359Z"  />
<glyph unicode="o" horiz-adv-x="383" d="M195 492Q227 492 255 477T305 430T338 352T351 242Q351 172 336 124T298 47T247 5T190 -8Q157 -8 129 7T79 52T46 130T33 241Q33 307 46 354T82 432T134 477T195 492ZM192 430Q166 430 150 411T125 364T113 303T110 242Q110 212 113 179T126 118T151 72T194 53Q219 53 234 72T258 119T270 181T273 242Q273 270 270 302T258 363T233 411T192 430Z"  />
<glyph unicode="p" horiz-adv-x="399" d="M53 333Q53 389 52 423T49 484H118L122 422H124Q144 461 170 476T226 492Q289 492 327 428T366 243Q366 176 353 129T319 51T271 6T216 -8Q182 -8 162 10T132 48H130V-192H53V333ZM130 178Q130 167 130 157T133 138Q139 112 147 96T166 71T186 59T204 56Q228 56 244 71T270 112T284 171T288 242Q288 279 284 312T269 371T242 411T203 426Q190 426 178 419T157 399T141 370T132 338Q130 329 130 320T130 301V178Z"  />
<glyph unicode="q" horiz-adv-x="399" d="M269 50H266Q254 25 230 9T173 -8Q144 -8 119 8T74 54T44 130T33 236Q33 300 45 348T79 428T127 476T185 492Q208 492 233 479T275 428L277 427L281 484H350Q348 458 347 424T346 333V-192H269V50ZM269 303Q269 311 269 319T267 335Q262 373 243 399T197 426Q173 426 157 412T130 372T115 312T110 240Q110 202 115 169T130 110T157 71T195 56Q204 56 214 59T233 71T250 96T265 137Q268 146 268 157T269 178V303Z"  />
<glyph unicode="r" horiz-adv-x="248" d="M53 359Q53 390 52 423T49 484H118L122 408H124Q136 443 164 467T226 492Q231 492 234 492T242 491V412Q237 413 226 413Q189 413 164 384T133 312Q130 292 130 268V0H53V359Z"  />
<glyph unicode="s" horiz-adv-x="289" d="M41 80Q54 72 75 64T119 55Q152 55 171 74T190 125Q190 153 178 174T128 220Q80 251 56 283T31 358Q31 387 41 411T69 454T111 482T164 492Q193 492 214 484T251 467L230 409Q216 418 201 424T166 430Q134 430 119 411T103 369Q103 344 115 327T163 285Q205 258 234 223T263 138Q263 102 252 75T220 30T174 3T118 -6Q91 -6 65 1T22 22L41 80Z"  />
<glyph unicode="t" horiz-adv-x="255" d="M148 612V484H241V425H148V138Q148 91 163 75T199 58Q216 58 230 61L233 2Q211 -6 176 -6Q153 -6 134 0T100 23Q86 40 79 67T71 145V425H12V484H71V590L148 612Z"  />
<glyph unicode="u" horiz-adv-x="398" d="M344 132Q344 91 345 59T348 0H281L276 51H274Q268 42 259 32T236 13T206 -2T170 -8Q106 -8 79 39T52 178V484H129V189Q129 160 131 136T141 95T161 67T194 57Q211 57 223 64T244 81T256 102T263 121Q265 131 266 142T267 165V484H344V132Z"  />
<glyph unicode="v" horiz-adv-x="347" d="M93 484L154 212Q159 187 164 157T175 94H178Q182 124 187 154T198 212L258 484H334L208 0H139L13 484H93Z"  />
<glyph unicode="w" horiz-adv-x="566" d="M93 484L140 247Q147 208 154 170T166 93H170Q175 131 183 170T200 245L256 484H315L368 252Q377 211 385 173T399 93H403Q408 131 414 169T429 249L475 484H552L430 0H367L311 235Q302 270 296 304T284 380H282Q276 337 269 302T254 232L196 0H131L13 484H93Z"  />
<glyph unicode="x" horiz-adv-x="340" d="M97 484L142 380Q151 359 158 338T174 295H176Q184 318 192 339T208 380L252 484H331L216 245L330 0H246L200 109Q192 129 185 148T168 192H166Q158 170 150 150T134 109L89 0H11L126 243L14 484H97Z"  />
<glyph unicode="y" horiz-adv-x="346" d="M94 484L158 206Q165 177 169 153T178 106H180Q184 126 189 152T201 205L258 484H334L255 173Q232 81 205 -1T135 -139Q109 -171 85 -189T48 -213L20 -147Q55 -128 88 -86Q103 -67 114 -45T132 -5Q135 4 136 9T137 19Q137 24 137 28T135 37L13 484H94Z"  />
<glyph unicode="z" horiz-adv-x="313" d="M16 47L169 346Q179 365 189 383T208 418V420H35V484H293V433L142 138Q132 119 122 101T103 66V64H293V0H16V47Z"  />
<glyph unicode="{" horiz-adv-x="253" d="M29 312Q50 312 63 318T83 335T94 357T97 382Q97 404 95 425T91 467Q89 490 87 511T85 555Q85 589 94 613T121 652T161 675T211 683H223V631H208Q176 631 163 611T149 556Q149 536 151 517T155 480Q157 460 158 442T160 406Q160 377 156 357T142 323T120 301T91 289V287Q107 282 120 274T142 253T155 219T160 168Q160 149 159 131T155 93Q153 74 151 55T149 16Q149 -18 162 -39T209 -60H223V-112H210Q185 -112 163 -106T123 -84T95 -45T85 16Q85 39 87 61T91 105Q93 127 95 148T97 191Q97 203 94 215T84 238T63 255T29 262V312Z"  />
<glyph unicode="|" horiz-adv-x="201" d="M132 750V-250H69V750H132Z"  />
<glyph unicode="}" horiz-adv-x="253" d="M224 262Q203 262 190 256T170 239T159 216T156 191Q156 170 158 149T162 105Q164 83 166 61T168 16Q168 -20 158 -44T130 -84T91 -105T43 -112H30V-60H44Q78 -56 91 -37T104 16Q104 36 103 55T99 93Q97 112 95 130T93 168Q93 198 97 218T111 252T133 274T162 287V289Q146 293 133 301T111 322T98 356T93 406Q93 424 95 442T99 480Q101 498 102 517T104 556Q104 590 91 608T45 631H30V683H42Q69 683 92 676T132 653T158 613T168 555Q168 532 166 511T162 467Q160 446 158 425T156 382Q156 370 159 358T169 335T190 319T224 312V262Z"  />
<glyph unicode="~" horiz-adv-x="596" d="M73 221Q71 287 102 321T183 355Q210 355 242 344T312 313Q350 293 376 283T423 273Q449 273 460 295T470 351H524Q528 283 500 250T421 216Q393 216 365 224T292 256Q257 275 229 287T177 299Q153 299 140 280T127 221H73Z"  />
<glyph unicode="&#xA0;" horiz-adv-x="157" />
<glyph unicode="&#xA1;" horiz-adv-x="204" d="M60 -192L70 290H134L145 -192H60ZM102 490Q125 490 138 475T151 435Q151 411 138 396T102 381Q81 381 67 396T53 435Q53 460 67 475T102 490Z"  />
<glyph unicode="&#xA2;" horiz-adv-x="385" d="M198 -6V91Q175 96 153 108T112 142Q89 169 76 214T62 328Q62 371 71 410T98 479T141 529T199 557V651H254V562Q272 561 290 557T321 544L307 483Q292 491 275 496T238 501Q210 501 191 485T161 442T144 384T139 322Q139 242 166 196T243 150Q266 150 282 154T315 167L325 109Q297 92 253 89V-6H198Z"  />
<glyph unicode="&#xA3;" horiz-adv-x="385" d="M31 0V49Q47 56 64 73T95 115T117 167T126 223Q126 247 125 266T120 305H38V360H112Q107 380 103 412T98 476Q98 519 110 553T144 610T193 645T253 658Q281 658 300 652T331 638L314 576Q305 582 290 587T253 593Q232 593 217 584T192 560T178 526T173 487Q173 447 177 419T186 360H291V305H194Q198 273 198 241T190 179Q183 153 168 124T127 68V66H353V0H31Z"  />
<glyph unicode="&#xA4;" horiz-adv-x="385" d="M193 529Q219 529 245 518T288 488L349 560L389 520L316 447Q329 421 334 390T340 329Q340 298 335 268T316 212L388 137L349 97L286 170Q268 150 242 139T191 128Q166 128 141 139T98 169L37 97L-3 137L68 209Q55 235 49 265T43 327Q43 359 49 390T70 447L-4 519L37 561L99 487Q116 507 142 518T193 529ZM193 470Q154 470 133 432T111 327Q111 264 133 226T192 187Q230 187 251 225T272 328Q272 389 252 429T193 470Z"  />
<glyph unicode="&#xA5;" horiz-adv-x="385" d="M153 0V187H28V233H153V307H28V353H134L15 650H92L159 459Q169 430 178 404T193 357H195Q201 379 209 404T228 460L298 650H371L243 353H352V307H224V233H352V187H224V0H153Z"  />
<glyph unicode="&#xA6;" horiz-adv-x="201" d="M132 174V-176H69V174H132ZM132 674V324H69V674H132Z"  />
<glyph unicode="&#xA7;" horiz-adv-x="401" d="M92 354Q92 303 172 266Q197 254 223 240T270 210Q290 222 300 244T310 289Q310 319 291 341T241 379Q216 390 188 403T137 433Q92 403 92 354ZM309 604Q274 628 222 628Q206 628 190 624T161 612T140 589T132 555Q132 535 140 521T161 496T193 477T231 459Q258 447 283 434T327 402T357 360T369 301Q369 262 354 234T310 180Q320 170 331 148T343 95Q343 58 330 31T295 -14T243 -41T181 -50Q143 -50 109 -41T55 -16L74 38Q89 27 117 16T183 4Q220 4 248 23T277 83Q277 117 253 140T172 190Q142 204 116 219T71 252T42 292T31 345Q31 374 46 404T100 463Q86 475 76 496T65 544Q65 577 78 603T114 646T165 673T226 682Q257 682 283 675T327 656L309 604Z"  />
<glyph unicode="&#xA8;" horiz-adv-x="300" d="M73 566Q54 566 41 578T28 610Q28 630 41 642T73 655Q91 655 103 643T115 610Q115 591 103 579T73 566ZM228 566Q209 566 197 578T184 610Q184 630 197 642T228 655Q246 655 258 643T271 610Q271 591 259 579T228 566Z"  />
<glyph unicode="&#xA9;" horiz-adv-x="677" d="M340 648Q404 648 459 624T556 558T620 460T644 340Q644 275 621 219T556 120T460 54T340 30Q275 30 219 54T122 120T57 218T33 340Q33 404 57 460T122 558T219 624T340 648ZM340 607Q285 607 238 586T157 529T103 444T83 337Q83 281 102 233T156 148T238 92T340 71Q394 71 440 91T520 148T574 234T594 340Q594 396 575 444T521 529T440 586T340 607ZM462 455Q451 460 426 468T365 477Q296 477 261 437T225 337Q225 307 234 282T261 237T305 207T365 196Q395 196 421 203T465 219L477 182Q451 166 420 160T355 153Q312 153 279 167T222 206T186 263T173 334Q173 377 188 411T229 470T291 507T366 520Q404 520 433 512T474 495L462 455Z"  />
<glyph unicode="&#xAA;" horiz-adv-x="273" d="M195 263L190 298H188Q163 258 112 258Q78 258 53 282T27 350Q27 380 39 402T74 439T124 460T185 467V478Q185 505 171 523T125 541Q90 541 61 520L48 561Q65 573 87 580T135 588Q188 588 213 557T239 468V337Q239 319 240 300T243 263H195ZM186 425Q175 425 158 423T124 415T95 395T82 357Q82 330 97 317T129 304Q160 304 178 334Q181 339 183 344T186 356V425Z"  />
<glyph unicode="&#xAB;" horiz-adv-x="354" d="M86 252L190 78H127L25 252L128 426H190L86 252ZM229 252L333 78H270L167 252L271 426H333L229 252Z"  />
<glyph unicode="&#xAC;" horiz-adv-x="596" d="M556 398V120H500V343H40V398H556Z"  />
<glyph unicode="&#xAD;" horiz-adv-x="291" d="M249 291V231H30V291H249Z"  />
<glyph unicode="&#xAE;" horiz-adv-x="372" d="M161 445H128V600Q138 602 151 604T184 606Q205 606 216 603T236 593Q243 588 247 580T252 560Q252 546 243 537T219 523V521Q231 517 237 508T247 483Q251 466 253 458T258 445H223Q219 450 217 459T211 483Q206 507 178 507H161V445ZM162 533H179Q194 533 204 538T215 555Q215 579 182 579Q174 579 170 579T162 577V533ZM186 682Q219 682 247 670T297 637T331 588T343 526Q343 493 331 465T298 415T248 381T186 369Q153 369 125 381T75 414T42 464T29 526Q29 559 41 587T75 637T124 670T186 682ZM186 650Q160 650 139 640T101 614T76 574T67 526Q67 500 76 477T101 437T138 411T186 401Q211 401 233 410T270 437T295 477T304 526Q304 551 295 574T271 613T233 640T186 650Z"  />
<glyph unicode="&#xAF;" horiz-adv-x="300" d="M249 631V581H52V631H249Z"  />
<glyph unicode="&#xB0;" horiz-adv-x="280" d="M151 682Q177 682 199 672T238 645T264 604T273 554Q273 525 263 502T235 461T196 435T150 425Q124 425 102 434T64 461T38 502T28 552Q28 579 38 603T65 644T104 672T151 682ZM151 641Q119 641 97 615T75 552Q75 516 97 491T151 466Q183 466 204 491T226 553Q226 588 206 614T151 641Z"  />
<glyph unicode="&#xB1;" horiz-adv-x="596" d="M326 567V373H556V318H326V117H270V318H40V373H270V567H326ZM556 55V0H40V55H556Z"  />
<glyph unicode="&#xB2;" horiz-adv-x="245" d="M2 446L43 496Q62 519 81 544T117 594T143 645T154 695Q154 729 137 744T94 760Q73 760 56 751T28 733L12 777Q25 790 50 801T110 812Q138 812 158 804T192 780T212 746T218 705Q218 678 208 652T183 600T150 551T115 508L85 471V469H225V417H2V446Z"  />
<glyph unicode="&#xB3;" horiz-adv-x="235" d="M17 786Q31 796 54 804T105 812Q155 812 180 786T206 721Q206 692 189 669T142 632V630Q170 624 194 599T218 532Q218 481 182 447T82 412Q59 412 38 418T1 433L14 480Q24 474 42 467T84 460Q114 460 134 478T155 530Q155 568 132 587T67 606H59V648H66Q77 648 90 652T116 663T136 683T145 712Q145 738 131 751T93 764Q72 764 57 758T30 743L17 786Z"  />
<glyph unicode="&#xB4;" horiz-adv-x="300" d="M267 682L162 547H111L188 682H267Z"  />
<glyph unicode="&#xB5;" horiz-adv-x="399" d="M279 50Q275 42 267 33T248 16T224 3T195 -3Q174 -3 157 4T127 33V-38Q127 -84 129 -125T136 -192H66Q60 -174 57 -138T53 -46V484H130V165Q130 143 133 124T143 89T162 65T194 56Q212 56 224 63T245 80T258 101T265 121Q267 130 268 141T269 165V484H345V104Q345 78 351 64T376 50L368 -5Q357 -8 343 -8Q321 -8 305 5T281 50H279Z"  />
<glyph unicode="&#xB6;" horiz-adv-x="401" d="M183 -50V274H177Q157 274 132 285T84 320T46 379T30 462Q30 503 42 541T82 608T151 656T253 674Q278 674 298 673T342 668V-50H292V624H233V-50H183Z"  />
<glyph unicode="&#xB7;" horiz-adv-x="194" d="M97 202Q76 202 61 217T46 259Q46 284 61 300T97 316Q120 316 134 301T148 259Q148 233 134 218T97 202Z"  />
<glyph unicode="&#xB8;" horiz-adv-x="300" d="M192 5L164 -50Q189 -54 209 -73T229 -121Q229 -142 221 -157T200 -181T171 -195T138 -200Q119 -200 102 -195T71 -182L87 -140Q111 -155 137 -155Q151 -155 162 -149T173 -125Q173 -105 153 -95T104 -81L144 5H192Z"  />
<glyph unicode="&#xB9;" horiz-adv-x="212" d="M97 417V750H95L22 711L11 759L106 807H157V417H97Z"  />
<glyph unicode="&#xBA;" horiz-adv-x="302" d="M153 588Q207 588 237 547T267 424Q267 378 257 347T230 296T192 267T150 258Q101 258 68 298T34 423Q34 465 43 496T69 547T107 578T153 588ZM150 543Q133 543 122 531T105 501T95 462T92 423Q92 403 95 382T105 343T123 314T150 303Q169 303 180 314T198 344T207 383T209 423Q209 442 207 463T198 502T180 531T150 543Z"  />
<glyph unicode="&#xBB;" horiz-adv-x="354" d="M21 426H83L186 252L85 78H21L125 252L21 426ZM164 426H226L329 252L227 78H164L268 252L164 426Z"  />
<glyph unicode="&#xBC;" horiz-adv-x="613" d="M117 263V596H115L41 557L31 605L125 653H177V263H117ZM107 -8L447 658H496L156 -8H107ZM480 0V106H333V142L477 393H537V153H583V106H537V0H480ZM480 253Q480 276 481 294T484 326H482Q472 306 466 292T448 257L393 155V153H480V253Z"  />
<glyph unicode="&#xBD;" horiz-adv-x="613" d="M101 263V596H99L26 557L15 605L110 653H161V263H101ZM83 -8L423 658H472L132 -8H83ZM355 29L396 79Q415 102 434 127T470 177T496 228T507 278Q507 312 490 327T447 343Q426 343 409 334T381 316L365 360Q378 373 403 384T463 395Q491 395 511 387T545 363T565 329T571 288Q571 261 562 235T537 183T504 134T468 91L438 54V52H578V0H355V29Z"  />
<glyph unicode="&#xBE;" horiz-adv-x="613" d="M44 632Q58 642 81 650T132 658Q182 658 207 632T233 567Q233 538 216 515T169 478V476Q197 470 221 445T245 378Q245 327 209 293T110 258Q86 258 65 264T28 279L41 326Q51 320 69 313T111 306Q141 306 161 324T182 376Q182 414 159 433T94 452H86V494H93Q104 494 117 498T143 510T163 529T172 558Q172 584 158 597T120 610Q99 610 84 604T57 589L44 632ZM124 -8L464 658H513L173 -8H124ZM483 0V106H336V142L480 393H539V153H586V106H539V0H483ZM483 253Q483 276 484 294T487 326H485Q475 306 468 292T450 257L395 155V153H483V253Z"  />
<glyph unicode="&#xBF;" horiz-adv-x="309" d="M175 490Q198 490 211 475T225 434Q225 410 212 394T176 378Q153 378 139 394T125 434Q125 460 138 475T175 490ZM205 294L207 279Q214 234 205 189T165 93Q152 72 142 54T123 20T111 -14T106 -52Q106 -95 128 -113T183 -131Q202 -131 219 -126T249 -113L266 -172Q254 -181 227 -189T166 -198Q128 -198 102 -187T59 -157T35 -114T27 -62Q27 -34 34 -11T52 35T76 77T102 119Q114 139 122 156T134 192T139 231T137 277L136 294H205Z"  />
<glyph unicode="&#xC0;" horiz-adv-x="435" d="M141 202L96 0H22L176 674H261L411 0H335L290 202H141ZM280 264L245 435Q237 471 231 511T218 589H214Q208 551 201 510T187 435L152 264H280ZM177 818L272 710H211L87 818H177Z"  />
<glyph unicode="&#xC1;" horiz-adv-x="435" d="M141 202L96 0H22L176 674H261L411 0H335L290 202H141ZM280 264L245 435Q237 471 231 511T218 589H214Q208 551 201 510T187 435L152 264H280ZM354 818L230 710H169L263 818H354Z"  />
<glyph unicode="&#xC2;" horiz-adv-x="435" d="M141 202L96 0H22L176 674H261L411 0H335L290 202H141ZM280 264L245 435Q237 471 231 511T218 589H214Q208 551 201 510T187 435L152 264H280ZM252 808L339 710H272L220 765H218L166 710H100L186 808H252Z"  />
<glyph unicode="&#xC3;" horiz-adv-x="435" d="M141 202L96 0H22L176 674H261L411 0H335L290 202H141ZM280 264L245 435Q237 471 231 511T218 589H214Q208 551 201 510T187 435L152 264H280ZM114 718Q114 760 129 786T174 812Q188 812 199 807T221 795Q232 788 241 783T260 777Q273 777 279 785T287 813H327Q328 771 313 747T265 723Q251 723 239 728T216 740Q206 747 197 752T180 757Q168 757 163 748T156 718H114Z"  />
<glyph unicode="&#xC4;" horiz-adv-x="435" d="M141 202L96 0H22L176 674H261L411 0H335L290 202H141ZM280 264L245 435Q237 471 231 511T218 589H214Q208 551 201 510T187 435L152 264H280ZM140 718Q121 718 109 730T97 764Q97 784 109 797T140 811Q160 811 171 798T183 764Q183 743 172 731T140 718ZM302 718Q283 718 271 730T258 764Q258 784 270 797T302 811Q321 811 332 798T344 764Q344 743 333 731T302 718Z"  />
<glyph unicode="&#xC5;" horiz-adv-x="435" d="M141 202L96 0H22L176 674H261L411 0H335L290 202H141ZM280 264L245 435Q237 471 231 511T218 589H214Q208 551 201 510T187 435L152 264H280ZM221 871Q266 871 290 845T314 783Q314 748 289 722T221 696Q176 696 152 721T127 782Q127 800 133 816T152 844T181 863T221 871ZM220 835Q197 835 186 819T175 782Q175 765 187 749T220 733Q242 733 254 748T266 784Q266 804 254 819T220 835Z"  />
<glyph unicode="&#xC6;" horiz-adv-x="556" d="M8 0L211 674H515V607H329L342 381H513V316H348L362 67H541V0H293L280 222H146L83 0H8ZM274 284L265 489Q263 521 262 555T259 620H254Q245 586 235 548T215 477L162 284H274Z"  />
<glyph unicode="&#xC7;" horiz-adv-x="396" d="M354 12Q340 4 319 0T272 -5L250 -49Q275 -53 295 -72T315 -121Q315 -142 307 -157T286 -181T257 -194T224 -199Q186 -199 157 -181L173 -140Q185 -147 197 -150T223 -154Q237 -154 248 -148T259 -124Q259 -104 239 -94T190 -80L226 -3Q183 3 148 25T87 88T47 189T32 329Q32 429 54 496T111 604T188 662T270 680Q301 680 322 675T354 663L337 598Q325 603 310 607T269 612Q242 612 214 598T164 552T127 466T113 336Q113 259 126 207T161 122T211 76T271 62Q292 62 311 66T342 77L354 12Z"  />
<glyph unicode="&#xC8;" horiz-adv-x="354" d="M306 320H137V67H329V0H60V674H317V607H137V385H306V320ZM147 818L241 710H180L56 818H147Z"  />
<glyph unicode="&#xC9;" horiz-adv-x="354" d="M306 320H137V67H329V0H60V674H317V607H137V385H306V320ZM337 818L213 710H152L246 818H337Z"  />
<glyph unicode="&#xCA;" horiz-adv-x="354" d="M306 320H137V67H329V0H60V674H317V607H137V385H306V320ZM222 808L309 710H242L190 765H188L136 710H70L156 808H222Z"  />
<glyph unicode="&#xCB;" horiz-adv-x="354" d="M306 320H137V67H329V0H60V674H317V607H137V385H306V320ZM109 725Q90 725 78 737T66 771Q66 791 78 804T109 818Q129 818 140 805T152 771Q152 750 141 738T109 725ZM271 725Q252 725 240 737T228 771Q228 791 240 804T271 818Q291 818 302 805T314 771Q314 750 303 738T271 725Z"  />
<glyph unicode="&#xCC;" horiz-adv-x="199" d="M137 674V0H60V674H137ZM50 818L145 710H84L-41 818H50Z"  />
<glyph unicode="&#xCD;" horiz-adv-x="199" d="M137 674V0H60V674H137ZM232 818L108 710H47L142 818H232Z"  />
<glyph unicode="&#xCE;" horiz-adv-x="199" d="M137 674V0H60V674H137ZM133 808L220 710H152L100 765H98L47 710H-20L66 808H133Z"  />
<glyph unicode="&#xCF;" horiz-adv-x="199" d="M137 674V0H60V674H137ZM19 725Q0 725 -12 737T-24 771Q-24 791 -12 804T19 818Q39 818 50 805T62 771Q62 750 51 738T19 725ZM181 725Q162 725 150 737T137 771Q137 791 149 804T181 818Q201 818 212 805T224 771Q224 750 213 738T181 725Z"  />
<glyph unicode="&#xD0;" horiz-adv-x="453" d="M0 380H69V664Q91 671 117 674T172 677Q226 677 264 664T330 626Q370 592 395 526T421 351Q421 293 415 248T397 169T371 109T340 66Q308 29 261 12T155 -6Q131 -6 109 -5T69 1V323H0V380ZM247 323H145V60Q154 58 162 58T175 58Q206 58 236 71T290 118T327 207T342 351Q342 479 303 546T181 614Q171 614 162 613T145 610V380H247V323Z"  />
<glyph unicode="&#xD1;" horiz-adv-x="465" d="M60 0V674H133L257 358Q278 304 302 241T343 123H345Q343 163 341 200T338 274T337 350T336 433V674H405V0H332L204 324Q184 375 163 432T124 553H122Q124 519 125 485T128 413T129 331T130 233V0H60ZM129 718Q128 760 144 786T188 812Q203 812 214 807T236 795Q247 788 256 783T275 777Q287 777 293 785T302 813H342Q343 771 328 747T280 723Q265 723 253 728T231 740Q220 747 212 752T194 757Q174 757 170 718H129Z"  />
<glyph unicode="&#xD2;" horiz-adv-x="446" d="M230 682Q317 682 365 593T414 342Q414 247 399 181T357 72T295 11T219 -8Q135 -8 84 80T32 338Q32 422 46 486T87 593T149 659T230 682ZM223 614Q191 614 170 590T136 527T118 438T112 337Q112 285 117 235T136 146T170 84T224 60Q257 60 278 85T311 150T329 239T334 339Q334 386 329 435T312 523T278 588T223 614ZM177 818L271 710H211L86 818H177Z"  />
<glyph unicode="&#xD3;" horiz-adv-x="446" d="M230 682Q317 682 365 593T414 342Q414 247 399 181T357 72T295 11T219 -8Q135 -8 84 80T32 338Q32 422 46 486T87 593T149 659T230 682ZM223 614Q191 614 170 590T136 527T118 438T112 337Q112 285 117 235T136 146T170 84T224 60Q257 60 278 85T311 150T329 239T334 339Q334 386 329 435T312 523T278 588T223 614ZM360 818L236 710H175L269 818H360Z"  />
<glyph unicode="&#xD4;" horiz-adv-x="446" d="M230 682Q317 682 365 593T414 342Q414 247 399 181T357 72T295 11T219 -8Q135 -8 84 80T32 338Q32 422 46 486T87 593T149 659T230 682ZM223 614Q191 614 170 590T136 527T118 438T112 337Q112 285 117 235T136 146T170 84T224 60Q257 60 278 85T311 150T329 239T334 339Q334 386 329 435T312 523T278 588T223 614ZM257 808L344 710H277L225 765H223L171 710H105L190 808H257Z"  />
<glyph unicode="&#xD5;" horiz-adv-x="446" d="M230 682Q317 682 365 593T414 342Q414 247 399 181T357 72T295 11T219 -8Q135 -8 84 80T32 338Q32 422 46 486T87 593T149 659T230 682ZM223 614Q191 614 170 590T136 527T118 438T112 337Q112 285 117 235T136 146T170 84T224 60Q257 60 278 85T311 150T329 239T334 339Q334 386 329 435T312 523T278 588T223 614ZM116 716Q115 758 131 784T176 810Q190 810 201 805T223 793Q234 786 243 781T262 775Q274 775 280 783T289 812H329Q330 769 315 746T267 722Q253 722 241 727T218 739Q207 745 199 750T182 755Q170 755 165 746T157 716H116Z"  />
<glyph unicode="&#xD6;" horiz-adv-x="446" d="M230 682Q317 682 365 593T414 342Q414 247 399 181T357 72T295 11T219 -8Q135 -8 84 80T32 338Q32 422 46 486T87 593T149 659T230 682ZM223 614Q191 614 170 590T136 527T118 438T112 337Q112 285 117 235T136 146T170 84T224 60Q257 60 278 85T311 150T329 239T334 339Q334 386 329 435T312 523T278 588T223 614ZM142 725Q123 725 111 737T99 771Q99 791 111 804T142 818Q162 818 173 805T185 771Q185 750 174 738T142 725ZM303 725Q285 725 273 737T260 771Q260 791 272 804T303 818Q323 818 334 805T346 771Q346 750 335 738T303 725Z"  />
<glyph unicode="&#xD7;" horiz-adv-x="596" d="M77 526L297 301L519 526L556 486L336 262L555 41L517 0L298 224L78 0L40 41L259 263L40 486L77 526Z"  />
<glyph unicode="&#xD8;" horiz-adv-x="446" d="M43 -14L85 81Q32 170 32 338Q32 422 46 486T85 593T146 659T224 682Q250 682 276 673T325 641L355 711L401 691L361 600Q388 554 401 489T414 343Q414 248 399 182T358 73T297 12T223 -8Q197 -8 170 2T120 37L86 -37L43 -14ZM293 570Q280 590 262 602T223 614Q191 614 169 590T134 527T114 439T108 338Q108 300 111 257T127 172H129L293 570ZM149 110Q163 84 182 72T223 60Q256 60 277 84T312 148T331 238T337 339Q337 377 334 420T319 507H317L149 110Z"  />
<glyph unicode="&#xD9;" horiz-adv-x="457" d="M136 674V222Q136 177 143 146T162 96T191 69T228 60Q249 60 266 68T296 96T314 147T321 222V674H398V234Q398 168 385 122T350 47T295 5T226 -8Q150 -8 105 46T59 225V674H136ZM177 818L272 710H211L86 818H177Z"  />
<glyph unicode="&#xDA;" horiz-adv-x="457" d="M136 674V222Q136 177 143 146T162 96T191 69T228 60Q249 60 266 68T296 96T314 147T321 222V674H398V234Q398 168 385 122T350 47T295 5T226 -8Q150 -8 105 46T59 225V674H136ZM368 818L244 710H183L277 818H368Z"  />
<glyph unicode="&#xDB;" horiz-adv-x="457" d="M136 674V222Q136 177 143 146T162 96T191 69T228 60Q249 60 266 68T296 96T314 147T321 222V674H398V234Q398 168 385 122T350 47T295 5T226 -8Q150 -8 105 46T59 225V674H136ZM262 808L349 710H282L230 765H228L176 710H110L196 808H262Z"  />
<glyph unicode="&#xDC;" horiz-adv-x="457" d="M136 674V222Q136 177 143 146T162 96T191 69T228 60Q249 60 266 68T296 96T314 147T321 222V674H398V234Q398 168 385 122T350 47T295 5T226 -8Q150 -8 105 46T59 225V674H136ZM147 725Q129 725 117 737T104 771Q104 791 116 804T147 818Q167 818 178 805T190 771Q190 750 179 738T147 725ZM309 725Q290 725 278 737T266 771Q266 791 278 804T309 818Q329 818 340 805T352 771Q352 750 341 738T309 725Z"  />
<glyph unicode="&#xDD;" horiz-adv-x="394" d="M158 0V285L10 674H91L151 505Q164 470 177 431T201 353H203Q214 392 226 430T252 508L309 674H390L235 288V0H158ZM343 818L219 710H158L252 818H343Z"  />
<glyph unicode="&#xDE;" horiz-adv-x="396" d="M60 674H136V541Q155 544 187 544Q271 544 321 496Q347 470 358 436T370 362Q370 311 354 273T311 210T249 173T174 161Q165 161 155 161T136 164V0H60V674ZM136 229Q143 227 152 226T171 225Q228 225 260 259T293 357Q293 382 288 405T269 444T233 471T177 481Q151 481 136 477V229Z"  />
<glyph unicode="&#xDF;" horiz-adv-x="430" d="M54 0V450Q54 528 70 577T117 656Q164 700 234 700Q262 700 288 691T335 662T368 614T381 544Q381 521 374 499T357 462Q327 450 309 429T291 381Q291 355 303 335T336 292Q368 256 385 222T403 142Q403 106 390 78T356 31T306 2T247 -8Q221 -8 201 -4T168 7L181 67Q194 60 211 57T246 54Q285 54 307 77T329 134Q329 168 314 193T277 243Q254 270 236 298T218 369Q218 410 240 441T298 489Q304 502 305 514T307 537Q307 567 299 586T279 616T252 632T226 636Q206 636 189 627T158 596T138 537T131 445V0H54Z"  />
<glyph unicode="&#xE0;" horiz-adv-x="364" d="M245 0L240 51H237Q221 23 197 8T141 -8Q92 -8 59 29T26 130Q26 175 43 208T88 263T154 295T232 306V321Q232 370 217 400T155 431Q132 431 112 424T75 406L58 460Q73 471 104 481T171 492Q244 492 277 447T310 319V110Q310 82 310 53T315 0H245ZM234 250Q219 250 197 248T153 234T116 200T101 138Q101 114 106 98T120 72T139 57T160 52Q186 52 205 70T232 125Q234 132 234 139T234 152V250ZM137 682L213 547H162L58 682H137Z"  />
<glyph unicode="&#xE1;" horiz-adv-x="364" d="M245 0L240 51H237Q221 23 197 8T141 -8Q92 -8 59 29T26 130Q26 175 43 208T88 263T154 295T232 306V321Q232 370 217 400T155 431Q132 431 112 424T75 406L58 460Q73 471 104 481T171 492Q244 492 277 447T310 319V110Q310 82 310 53T315 0H245ZM234 250Q219 250 197 248T153 234T116 200T101 138Q101 114 106 98T120 72T139 57T160 52Q186 52 205 70T232 125Q234 132 234 139T234 152V250ZM297 682L192 547H141L218 682H297Z"  />
<glyph unicode="&#xE2;" horiz-adv-x="364" d="M245 0L240 51H237Q221 23 197 8T141 -8Q92 -8 59 29T26 130Q26 175 43 208T88 263T154 295T232 306V321Q232 370 217 400T155 431Q132 431 112 424T75 406L58 460Q73 471 104 481T171 492Q244 492 277 447T310 319V110Q310 82 310 53T315 0H245ZM234 250Q219 250 197 248T153 234T116 200T101 138Q101 114 106 98T120 72T139 57T160 52Q186 52 205 70T232 125Q234 132 234 139T234 152V250ZM205 682L284 547H227L180 633H178L132 547H74L153 682H205Z"  />
<glyph unicode="&#xE3;" horiz-adv-x="364" d="M245 0L240 51H237Q221 23 197 8T141 -8Q92 -8 59 29T26 130Q26 175 43 208T88 263T154 295T232 306V321Q232 370 217 400T155 431Q132 431 112 424T75 406L58 460Q73 471 104 481T171 492Q244 492 277 447T310 319V110Q310 82 310 53T315 0H245ZM234 250Q219 250 197 248T153 234T116 200T101 138Q101 114 106 98T120 72T139 57T160 52Q186 52 205 70T232 125Q234 132 234 139T234 152V250ZM73 561Q73 601 88 628T135 655Q150 655 161 650T184 638Q195 631 204 626T224 621Q235 621 241 628T249 657H290Q290 615 275 591T227 567Q213 567 201 572T178 584Q167 590 159 595T140 601Q119 601 116 561H73Z"  />
<glyph unicode="&#xE4;" horiz-adv-x="364" d="M245 0L240 51H237Q221 23 197 8T141 -8Q92 -8 59 29T26 130Q26 175 43 208T88 263T154 295T232 306V321Q232 370 217 400T155 431Q132 431 112 424T75 406L58 460Q73 471 104 481T171 492Q244 492 277 447T310 319V110Q310 82 310 53T315 0H245ZM234 250Q219 250 197 248T153 234T116 200T101 138Q101 114 106 98T120 72T139 57T160 52Q186 52 205 70T232 125Q234 132 234 139T234 152V250ZM105 566Q86 566 73 578T60 610Q60 630 73 642T105 655Q123 655 135 643T147 610Q147 591 135 579T105 566ZM260 566Q241 566 229 578T216 610Q216 630 229 642T260 655Q278 655 290 643T303 610Q303 591 291 579T260 566Z"  />
<glyph unicode="&#xE5;" horiz-adv-x="364" d="M245 0L240 51H237Q221 23 197 8T141 -8Q92 -8 59 29T26 130Q26 175 43 208T88 263T154 295T232 306V321Q232 370 217 400T155 431Q132 431 112 424T75 406L58 460Q73 471 104 481T171 492Q244 492 277 447T310 319V110Q310 82 310 53T315 0H245ZM234 250Q219 250 197 248T153 234T116 200T101 138Q101 114 106 98T120 72T139 57T160 52Q186 52 205 70T232 125Q234 132 234 139T234 152V250ZM181 533Q138 533 113 558T88 618Q88 655 112 681T182 707Q224 707 248 682T273 619Q273 582 247 558T181 533ZM180 568Q203 568 215 583T228 620Q228 640 216 656T179 672Q157 672 146 655T134 618Q134 600 146 584T180 568Z"  />
<glyph unicode="&#xE6;" horiz-adv-x="561" d="M307 241Q307 185 316 149T340 91T375 62T420 53Q446 53 466 59T502 74L515 19Q489 2 460 -3T404 -8Q383 -8 362 -2T323 15T292 44T271 85H269Q253 42 222 17T145 -8Q94 -8 60 30T26 132Q26 176 42 208T87 261T153 292T233 302V329Q233 373 214 402T152 431Q130 431 110 424T74 406L57 459Q76 472 106 482T168 492Q206 492 237 472T279 405H281Q298 447 329 469T399 492Q434 492 459 474T501 425T524 357T532 278Q532 269 532 260T531 241H307ZM234 249Q219 249 196 246T151 232T114 198T98 137Q98 92 118 73T161 53Q185 53 205 72T231 126Q233 133 233 140T234 154V249ZM458 296Q460 366 438 399T389 433Q369 433 355 421T330 390T315 346T308 296H458Z"  />
<glyph unicode="&#xE7;" horiz-adv-x="301" d="M292 13Q278 5 258 0T215 -6L193 -50Q218 -54 238 -73T258 -121Q258 -142 250 -157T229 -181T200 -195T167 -200Q148 -200 131 -195T100 -182L116 -140Q140 -155 166 -155Q180 -155 191 -149T202 -124Q202 -104 183 -94T134 -81L169 -1Q106 13 70 73T33 239Q33 291 46 337T83 417T143 471T224 491Q244 491 262 487T292 476L277 413Q269 417 255 421T222 426Q193 426 172 410T137 368T117 309T110 239Q110 154 140 106T224 58Q239 58 254 61T280 72L292 13Z"  />
<glyph unicode="&#xE8;" horiz-adv-x="363" d="M108 235Q108 179 118 144T145 90T181 63T223 55Q248 55 268 60T303 74L315 17Q295 6 267 0T209 -6Q122 -6 78 60T33 237Q33 296 45 343T78 423T130 474T196 492Q233 492 259 474T302 426T326 358T334 278Q334 264 334 254T333 235H108ZM260 292Q261 365 239 398T188 432Q169 432 155 420T131 387T116 342T109 292H260ZM153 682L230 547H179L74 682H153Z"  />
<glyph unicode="&#xE9;" horiz-adv-x="363" d="M108 235Q108 179 118 144T145 90T181 63T223 55Q248 55 268 60T303 74L315 17Q295 6 267 0T209 -6Q122 -6 78 60T33 237Q33 296 45 343T78 423T130 474T196 492Q233 492 259 474T302 426T326 358T334 278Q334 264 334 254T333 235H108ZM260 292Q261 365 239 398T188 432Q169 432 155 420T131 387T116 342T109 292H260ZM314 682L209 547H158L235 682H314Z"  />
<glyph unicode="&#xEA;" horiz-adv-x="363" d="M108 235Q108 179 118 144T145 90T181 63T223 55Q248 55 268 60T303 74L315 17Q295 6 267 0T209 -6Q122 -6 78 60T33 237Q33 296 45 343T78 423T130 474T196 492Q233 492 259 474T302 426T326 358T334 278Q334 264 334 254T333 235H108ZM260 292Q261 365 239 398T188 432Q169 432 155 420T131 387T116 342T109 292H260ZM220 682L299 547H242L195 633H193L147 547H89L168 682H220Z"  />
<glyph unicode="&#xEB;" horiz-adv-x="363" d="M108 235Q108 179 118 144T145 90T181 63T223 55Q248 55 268 60T303 74L315 17Q295 6 267 0T209 -6Q122 -6 78 60T33 237Q33 296 45 343T78 423T130 474T196 492Q233 492 259 474T302 426T326 358T334 278Q334 264 334 254T333 235H108ZM260 292Q261 365 239 398T188 432Q169 432 155 420T131 387T116 342T109 292H260ZM120 566Q101 566 88 578T75 610Q75 630 88 642T120 655Q138 655 150 643T162 610Q162 591 150 579T120 566ZM275 566Q256 566 244 578T231 610Q231 630 244 642T275 655Q293 655 305 643T318 610Q318 591 306 579T275 566Z"  />
<glyph unicode="&#xEC;" horiz-adv-x="184" d="M54 0V484H131V0H54ZM51 682L128 547H76L-28 682H51Z"  />
<glyph unicode="&#xED;" horiz-adv-x="184" d="M54 0V484H131V0H54ZM210 682L105 547H54L131 682H210Z"  />
<glyph unicode="&#xEE;" horiz-adv-x="184" d="M54 0V484H131V0H54ZM119 682L198 547H140L94 633H92L46 547H-12L67 682H119Z"  />
<glyph unicode="&#xEF;" horiz-adv-x="184" d="M54 0V484H131V0H54ZM16 566Q-3 566 -16 578T-29 610Q-29 630 -16 642T16 655Q34 655 46 643T58 610Q58 591 46 579T16 566ZM171 566Q152 566 140 578T127 610Q127 630 140 642T171 655Q189 655 201 643T214 610Q214 591 202 579T171 566Z"  />
<glyph unicode="&#xF0;" horiz-adv-x="381" d="M191 53Q216 53 231 71T256 117T268 177T271 237Q271 277 269 315T256 382Q250 402 235 416T192 431Q166 431 150 411T125 363T113 301T110 243Q110 213 113 180T125 118T150 72T191 53ZM59 541L143 589Q128 607 110 625T72 662L117 703Q139 683 160 663T201 621L292 673L312 638L228 591Q255 559 274 527T308 465Q328 423 338 370T348 248Q348 176 334 127T296 48T245 5T188 -8Q155 -8 127 7T78 53T45 131T33 241Q33 305 46 351T81 428T130 472T184 487Q196 487 207 484T230 471L232 474Q221 498 206 519T173 560L79 508L59 541Z"  />
<glyph unicode="&#xF1;" horiz-adv-x="405" d="M54 359Q54 380 54 397T53 428T51 456T50 484H117L121 426H123Q139 455 167 473T234 492Q284 492 317 453T351 325V0H274V312Q274 333 272 354T262 391T241 417T207 427Q183 427 163 407T134 348Q131 330 131 305V0H54V359ZM96 561Q95 601 110 628T157 655Q173 655 184 650T206 638Q217 631 226 626T246 621Q257 621 263 628T271 657H312Q312 615 297 591T249 567Q235 567 223 572T200 584Q189 590 181 595T163 601Q141 601 138 561H96Z"  />
<glyph unicode="&#xF2;" horiz-adv-x="383" d="M195 492Q227 492 255 477T305 430T338 352T351 242Q351 172 336 124T298 47T247 5T190 -8Q157 -8 129 7T79 52T46 130T33 241Q33 307 46 354T82 432T134 477T195 492ZM192 430Q166 430 150 411T125 364T113 303T110 242Q110 212 113 179T126 118T151 72T194 53Q219 53 234 72T258 119T270 181T273 242Q273 270 270 302T258 363T233 411T192 430ZM156 682L233 547H182L77 682H156Z"  />
<glyph unicode="&#xF3;" horiz-adv-x="383" d="M195 492Q227 492 255 477T305 430T338 352T351 242Q351 172 336 124T298 47T247 5T190 -8Q157 -8 129 7T79 52T46 130T33 241Q33 307 46 354T82 432T134 477T195 492ZM192 430Q166 430 150 411T125 364T113 303T110 242Q110 212 113 179T126 118T151 72T194 53Q219 53 234 72T258 119T270 181T273 242Q273 270 270 302T258 363T233 411T192 430ZM310 682L205 547H154L231 682H310Z"  />
<glyph unicode="&#xF4;" horiz-adv-x="383" d="M195 492Q227 492 255 477T305 430T338 352T351 242Q351 172 336 124T298 47T247 5T190 -8Q157 -8 129 7T79 52T46 130T33 241Q33 307 46 354T82 432T134 477T195 492ZM192 430Q166 430 150 411T125 364T113 303T110 242Q110 212 113 179T126 118T151 72T194 53Q219 53 234 72T258 119T270 181T273 242Q273 270 270 302T258 363T233 411T192 430ZM218 682L297 547H239L193 633H191L145 547H87L166 682H218Z"  />
<glyph unicode="&#xF5;" horiz-adv-x="383" d="M195 492Q227 492 255 477T305 430T338 352T351 242Q351 172 336 124T298 47T247 5T190 -8Q157 -8 129 7T79 52T46 130T33 241Q33 307 46 354T82 432T134 477T195 492ZM192 430Q166 430 150 411T125 364T113 303T110 242Q110 212 113 179T126 118T151 72T194 53Q219 53 234 72T258 119T270 181T273 242Q273 270 270 302T258 363T233 411T192 430ZM84 561Q83 601 98 628T145 655Q161 655 172 650T194 638Q205 631 214 626T234 621Q245 621 251 628T259 657H300Q300 615 285 591T237 567Q223 567 211 572T188 584Q177 590 169 595T151 601Q129 601 126 561H84Z"  />
<glyph unicode="&#xF6;" horiz-adv-x="383" d="M195 492Q227 492 255 477T305 430T338 352T351 242Q351 172 336 124T298 47T247 5T190 -8Q157 -8 129 7T79 52T46 130T33 241Q33 307 46 354T82 432T134 477T195 492ZM192 430Q166 430 150 411T125 364T113 303T110 242Q110 212 113 179T126 118T151 72T194 53Q219 53 234 72T258 119T270 181T273 242Q273 270 270 302T258 363T233 411T192 430ZM115 566Q96 566 83 578T70 610Q70 630 83 642T115 655Q133 655 145 643T157 610Q157 591 145 579T115 566ZM270 566Q251 566 239 578T226 610Q226 630 239 642T270 655Q288 655 300 643T313 610Q313 591 301 579T270 566Z"  />
<glyph unicode="&#xF7;" horiz-adv-x="596" d="M298 397Q278 397 266 410T254 443Q254 463 266 476T298 490Q319 490 331 477T343 443Q343 423 332 410T298 397ZM40 240V294H556V240H40ZM298 44Q278 44 266 57T254 90Q254 110 266 123T298 137Q319 137 331 124T343 90Q343 70 332 57T298 44Z"  />
<glyph unicode="&#xF8;" horiz-adv-x="383" d="M192 492Q236 492 274 462L299 515L341 493L307 425Q328 394 339 349T351 242Q351 172 336 124T298 47T247 5T192 -8Q146 -8 111 20L85 -33L46 -8L77 56Q57 86 45 132T33 241Q33 307 46 354T82 432T133 477T192 492ZM243 398Q230 430 192 430Q164 430 148 411T122 362T110 301T107 242Q107 219 109 191T120 132L122 131L243 398ZM143 84Q150 70 162 62T192 53Q219 53 235 71T261 117T273 177T277 237Q277 260 275 288T265 347L263 348L143 84Z"  />
<glyph unicode="&#xF9;" horiz-adv-x="398" d="M344 132Q344 91 345 59T348 0H281L276 51H274Q268 42 259 32T236 13T206 -2T170 -8Q106 -8 79 39T52 178V484H129V189Q129 160 131 136T141 95T161 67T194 57Q211 57 223 64T244 81T256 102T263 121Q265 131 266 142T267 165V484H344V132ZM164 682L241 547H190L85 682H164Z"  />
<glyph unicode="&#xFA;" horiz-adv-x="398" d="M344 132Q344 91 345 59T348 0H281L276 51H274Q268 42 259 32T236 13T206 -2T170 -8Q106 -8 79 39T52 178V484H129V189Q129 160 131 136T141 95T161 67T194 57Q211 57 223 64T244 81T256 102T263 121Q265 131 266 142T267 165V484H344V132ZM324 682L219 547H168L245 682H324Z"  />
<glyph unicode="&#xFB;" horiz-adv-x="398" d="M344 132Q344 91 345 59T348 0H281L276 51H274Q268 42 259 32T236 13T206 -2T170 -8Q106 -8 79 39T52 178V484H129V189Q129 160 131 136T141 95T161 67T194 57Q211 57 223 64T244 81T256 102T263 121Q265 131 266 142T267 165V484H344V132ZM225 682L304 547H247L200 633H198L152 547H94L173 682H225Z"  />
<glyph unicode="&#xFC;" horiz-adv-x="398" d="M344 132Q344 91 345 59T348 0H281L276 51H274Q268 42 259 32T236 13T206 -2T170 -8Q106 -8 79 39T52 178V484H129V189Q129 160 131 136T141 95T161 67T194 57Q211 57 223 64T244 81T256 102T263 121Q265 131 266 142T267 165V484H344V132ZM125 566Q106 566 93 578T80 610Q80 630 93 642T125 655Q143 655 155 643T167 610Q167 591 155 579T125 566ZM280 566Q261 566 249 578T236 610Q236 630 249 642T280 655Q298 655 310 643T323 610Q323 591 311 579T280 566Z"  />
<glyph unicode="&#xFD;" horiz-adv-x="346" d="M94 484L158 206Q165 177 169 153T178 106H180Q184 126 189 152T201 205L258 484H334L255 173Q232 81 205 -1T135 -139Q109 -171 85 -189T48 -213L20 -147Q55 -128 88 -86Q103 -67 114 -45T132 -5Q135 4 136 9T137 19Q137 24 137 28T135 37L13 484H94ZM295 682L190 547H139L216 682H295Z"  />
<glyph unicode="&#xFE;" horiz-adv-x="399" d="M129 692V424H131Q149 462 175 477T231 492Q290 492 328 428T366 243Q366 176 353 129T320 51T273 6T221 -8Q183 -8 163 10T132 49H130V-192H53V692H129ZM130 177Q130 152 134 137Q140 111 148 96T167 71T186 59T204 56Q228 56 244 71T270 112T284 171T288 242Q288 279 284 312T269 371T242 411T204 426Q191 426 179 419T158 399T142 371T133 338Q131 329 131 320T130 301V177Z"  />
<glyph unicode="&#xFF;" horiz-adv-x="346" d="M94 484L158 206Q165 177 169 153T178 106H180Q184 126 189 152T201 205L258 484H334L255 173Q232 81 205 -1T135 -139Q109 -171 85 -189T48 -213L20 -147Q55 -128 88 -86Q103 -67 114 -45T132 -5Q135 4 136 9T137 19Q137 24 137 28T135 37L13 484H94ZM100 566Q81 566 68 578T55 610Q55 630 68 642T100 655Q118 655 130 643T142 610Q142 591 130 579T100 566ZM255 566Q236 566 224 578T211 610Q211 630 223 642T255 655Q273 655 285 643T298 610Q298 591 286 579T255 566Z"  />
<glyph unicode="&#x100;" horiz-adv-x="435" d="M141 202L96 0H22L176 674H261L411 0H335L290 202H141ZM280 264L245 435Q237 471 231 511T218 589H214Q208 551 201 510T187 435L152 264H280ZM324 788V735H111V788H324Z"  />
<glyph unicode="&#x101;" horiz-adv-x="364" d="M245 0L240 51H237Q221 23 197 8T141 -8Q92 -8 59 29T26 130Q26 175 43 208T88 263T154 295T232 306V321Q232 370 217 400T155 431Q132 431 112 424T75 406L58 460Q73 471 104 481T171 492Q244 492 277 447T310 319V110Q310 82 310 53T315 0H245ZM234 250Q219 250 197 248T153 234T116 200T101 138Q101 114 106 98T120 72T139 57T160 52Q186 52 205 70T232 125Q234 132 234 139T234 152V250ZM281 631V581H84V631H281Z"  />
<glyph unicode="&#x102;" horiz-adv-x="435" d="M141 202L96 0H22L176 674H261L411 0H335L290 202H141ZM280 264L245 435Q237 471 231 511T218 589H214Q208 551 201 510T187 435L152 264H280ZM156 808Q160 787 176 776T217 764Q242 764 258 774T279 808H324Q324 764 296 738T218 711Q167 711 139 736T111 808H156Z"  />
<glyph unicode="&#x103;" horiz-adv-x="364" d="M245 0L240 51H237Q221 23 197 8T141 -8Q92 -8 59 29T26 130Q26 175 43 208T88 263T154 295T232 306V321Q232 370 217 400T155 431Q132 431 112 424T75 406L58 460Q73 471 104 481T171 492Q244 492 277 447T310 319V110Q310 82 310 53T315 0H245ZM234 250Q219 250 197 248T153 234T116 200T101 138Q101 114 106 98T120 72T139 57T160 52Q186 52 205 70T232 125Q234 132 234 139T234 152V250ZM119 669Q121 641 138 624T181 607Q210 607 227 624T245 669H288Q290 619 261 588T181 556Q130 556 102 588T76 669H119Z"  />
<glyph unicode="&#x104;" horiz-adv-x="435" d="M411 0H388Q382 -8 374 -19T359 -44T348 -71T343 -97Q343 -120 356 -131T385 -143Q409 -143 427 -134L438 -177Q423 -189 403 -194T366 -199Q328 -199 305 -177T282 -116Q282 -97 287 -79T301 -46T317 -17T333 6L290 202H141L96 0H22L176 674H261L411 0ZM280 264L245 435Q237 471 231 511T218 589H214Q208 551 201 510T187 435L152 264H280Z"  />
<glyph unicode="&#x105;" horiz-adv-x="364" d="M58 460Q73 471 104 481T171 492Q244 492 277 447T310 319V110Q310 71 311 46T318 0H300Q287 -17 273 -45T259 -103Q259 -126 272 -137T300 -149Q314 -149 324 -147T343 -140L354 -183Q337 -196 318 -200T282 -205Q244 -205 221 -183T198 -122Q198 -103 203 -85T215 -52T231 -23T245 0L240 51H237Q221 23 197 8T141 -8Q92 -8 59 29T26 130Q26 175 43 208T88 263T154 295T232 306V321Q232 370 217 400T155 431Q132 431 112 424T75 406L58 460ZM234 250Q219 250 197 248T153 234T116 200T101 138Q101 114 106 98T120 72T139 57T160 52Q186 52 205 70T232 125Q234 132 234 139T234 152V250Z"  />
<glyph unicode="&#x106;" horiz-adv-x="373" d="M354 12Q338 4 314 -1T258 -6Q208 -6 167 14T95 75T49 180T32 329Q32 429 54 496T111 604T188 662T270 680Q301 680 322 675T354 663L337 598Q325 603 310 607T269 612Q242 612 214 598T164 552T127 466T113 336Q113 259 126 207T161 122T211 76T271 62Q293 62 311 66T342 77L354 12ZM380 818L255 710H194L289 818H380Z"  />
<glyph unicode="&#x107;" horiz-adv-x="302" d="M290 12Q277 4 257 -1T210 -6Q130 -6 82 56T33 239Q33 291 46 337T83 417T143 471T224 491Q244 491 262 487T292 476L277 413Q269 417 255 421T222 426Q193 426 172 410T137 368T117 309T110 239Q110 154 140 106T224 58Q240 58 253 61T280 71L290 12ZM314 682L209 547H158L235 682H314Z"  />
<glyph unicode="&#x108;" horiz-adv-x="373" d="M354 12Q338 4 314 -1T258 -6Q208 -6 167 14T95 75T49 180T32 329Q32 429 54 496T111 604T188 662T270 680Q301 680 322 675T354 663L337 598Q325 603 310 607T269 612Q242 612 214 598T164 552T127 466T113 336Q113 259 126 207T161 122T211 76T271 62Q293 62 311 66T342 77L354 12ZM268 808L355 710H288L236 765H234L182 710H116L202 808H268Z"  />
<glyph unicode="&#x109;" horiz-adv-x="302" d="M290 12Q277 4 257 -1T210 -6Q130 -6 82 56T33 239Q33 291 46 337T83 417T143 471T224 491Q244 491 262 487T292 476L277 413Q269 417 255 421T222 426Q193 426 172 410T137 368T117 309T110 239Q110 154 140 106T224 58Q240 58 253 61T280 71L290 12ZM219 682L298 547H241L194 633H192L146 547H88L167 682H219Z"  />
<glyph unicode="&#x10A;" horiz-adv-x="373" d="M354 12Q338 4 314 -1T258 -6Q208 -6 167 14T95 75T49 180T32 329Q32 429 54 496T111 604T188 662T270 680Q301 680 322 675T354 663L337 598Q325 603 310 607T269 612Q242 612 214 598T164 552T127 466T113 336Q113 259 126 207T161 122T211 76T271 62Q293 62 311 66T342 77L354 12ZM243 720Q223 720 210 733T197 765Q197 784 210 796T243 809Q261 809 273 797T286 765Q286 746 274 733T243 720Z"  />
<glyph unicode="&#x10B;" horiz-adv-x="302" d="M290 12Q277 4 257 -1T210 -6Q130 -6 82 56T33 239Q33 291 46 337T83 417T143 471T224 491Q244 491 262 487T292 476L277 413Q269 417 255 421T222 426Q193 426 172 410T137 368T117 309T110 239Q110 154 140 106T224 58Q240 58 253 61T280 71L290 12ZM191 566Q172 566 160 578T147 610Q147 630 159 642T191 655Q209 655 221 643T234 610Q234 591 222 579T191 566Z"  />
<glyph unicode="&#x10C;" horiz-adv-x="373" d="M354 12Q338 4 314 -1T258 -6Q208 -6 167 14T95 75T49 180T32 329Q32 429 54 496T111 604T188 662T270 680Q301 680 322 675T354 663L337 598Q325 603 310 607T269 612Q242 612 214 598T164 552T127 466T113 336Q113 259 126 207T161 122T211 76T271 62Q293 62 311 66T342 77L354 12ZM210 710L123 808H191L242 750H244L296 808H363L277 710H210Z"  />
<glyph unicode="&#x10D;" horiz-adv-x="302" d="M290 12Q277 4 257 -1T210 -6Q130 -6 82 56T33 239Q33 291 46 337T83 417T143 471T224 491Q244 491 262 487T292 476L277 413Q269 417 255 421T222 426Q193 426 172 410T137 368T117 309T110 239Q110 154 140 106T224 58Q240 58 253 61T280 71L290 12ZM164 547L85 682H142L189 595H191L238 682H296L217 547H164Z"  />
<glyph unicode="&#x10E;" horiz-adv-x="445" d="M60 664Q103 677 164 677Q218 677 256 664T322 626Q361 592 387 526T413 353Q413 295 407 250T389 171T363 111T332 69Q299 31 252 14T146 -4Q123 -4 100 -3T60 3V664ZM137 63Q145 61 153 61T166 61Q198 61 228 74T281 120T319 209T333 351Q333 479 294 546T173 614Q164 614 155 613T137 610V63ZM162 710L75 808H142L194 750H196L248 808H314L228 710H162Z"  />
<glyph unicode="&#x10F;" horiz-adv-x="409" d="M345 692V116Q345 104 345 88T346 56T348 25T349 0H283L278 61H275Q263 35 238 14T174 -8Q112 -8 73 56T33 240Q33 304 45 351T78 430T124 477T179 492Q205 492 229 479T267 434H269V692H345ZM269 300Q269 308 269 316T268 332Q264 370 244 398T196 426Q172 426 156 411T129 370T115 310T110 240Q110 202 115 169T130 110T155 71T192 56Q201 56 211 59T232 71T251 96T266 139Q269 152 269 171V300ZM388 527Q398 542 407 566T417 617Q417 640 408 657T385 685L442 697Q455 688 465 670T475 625Q475 602 469 584T455 550T437 524T422 505L388 527Z"  />
<glyph unicode="&#x110;" horiz-adv-x="453" d="M0 380H69V664Q91 671 117 674T172 677Q226 677 264 664T330 626Q370 592 395 526T421 351Q421 293 415 248T397 169T371 109T340 66Q308 29 261 12T155 -6Q131 -6 109 -5T69 1V323H0V380ZM247 323H145V60Q154 58 162 58T175 58Q206 58 236 71T290 118T327 207T342 351Q342 479 303 546T181 614Q171 614 162 613T145 610V380H247V323Z"  />
<glyph unicode="&#x111;" horiz-adv-x="399" d="M345 543V116Q345 104 345 88T346 56T348 25T349 0H283L278 61H275Q263 35 238 14T174 -8Q112 -8 73 56T33 240Q33 304 45 351T78 430T124 477T179 492Q205 492 229 479T267 434H269V543H138V597H269V692H345V597H403V543H345ZM269 300Q269 308 269 316T268 332Q264 370 244 398T196 426Q172 426 156 411T129 370T115 310T110 240Q110 202 115 169T130 110T155 71T192 56Q201 56 211 59T232 71T251 96T266 139Q269 152 269 171V300Z"  />
<glyph unicode="&#x112;" horiz-adv-x="354" d="M306 320H137V67H329V0H60V674H317V607H137V385H306V320ZM299 788V735H86V788H299Z"  />
<glyph unicode="&#x113;" horiz-adv-x="363" d="M108 235Q108 179 118 144T145 90T181 63T223 55Q248 55 268 60T303 74L315 17Q295 6 267 0T209 -6Q122 -6 78 60T33 237Q33 296 45 343T78 423T130 474T196 492Q233 492 259 474T302 426T326 358T334 278Q334 264 334 254T333 235H108ZM260 292Q261 365 239 398T188 432Q169 432 155 420T131 387T116 342T109 292H260ZM286 631V581H89V631H286Z"  />
<glyph unicode="&#x114;" horiz-adv-x="354" d="M306 320H137V67H329V0H60V674H317V607H137V385H306V320ZM129 809Q133 789 149 778T190 766Q215 766 231 776T252 809H297Q297 766 269 740T191 713Q141 713 113 738T84 809H129Z"  />
<glyph unicode="&#x115;" horiz-adv-x="363" d="M108 235Q108 179 118 144T145 90T181 63T223 55Q248 55 268 60T303 74L315 17Q295 6 267 0T209 -6Q122 -6 78 60T33 237Q33 296 45 343T78 423T130 474T196 492Q233 492 259 474T302 426T326 358T334 278Q334 264 334 254T333 235H108ZM260 292Q261 365 239 398T188 432Q169 432 155 420T131 387T116 342T109 292H260ZM126 669Q128 641 145 624T188 607Q217 607 234 624T252 669H295Q297 619 268 588T188 556Q137 556 109 588T83 669H126Z"  />
<glyph unicode="&#x116;" horiz-adv-x="354" d="M306 320H137V67H329V0H60V674H317V607H137V385H306V320ZM195 727Q175 727 162 740T149 772Q149 791 162 803T195 816Q213 816 226 804T239 772Q239 753 226 740T195 727Z"  />
<glyph unicode="&#x117;" horiz-adv-x="363" d="M108 235Q108 179 118 144T145 90T181 63T223 55Q248 55 268 60T303 74L315 17Q295 6 267 0T209 -6Q122 -6 78 60T33 237Q33 296 45 343T78 423T130 474T196 492Q233 492 259 474T302 426T326 358T334 278Q334 264 334 254T333 235H108ZM260 292Q261 365 239 398T188 432Q169 432 155 420T131 387T116 342T109 292H260ZM190 566Q171 566 159 578T146 610Q146 630 159 642T190 655Q208 655 220 643T233 610Q233 591 221 579T190 566Z"  />
<glyph unicode="&#x118;" horiz-adv-x="354" d="M335 -179Q318 -191 298 -196T259 -201Q222 -201 201 -181T179 -124Q179 -105 186 -87T205 -53T231 -24T261 0H60V674H317V607H137V385H306V320H137V67H329V0H321Q288 -23 264 -50T240 -105Q240 -126 253 -135T280 -145Q291 -145 302 -143T324 -136L335 -179Z"  />
<glyph unicode="&#x119;" horiz-adv-x="363" d="M290 -174Q273 -188 253 -193T216 -199Q178 -199 156 -179T133 -124Q133 -106 140 -89T158 -56T182 -28T209 -7V-6H205Q120 -4 77 61T33 237Q33 296 45 343T78 423T130 474T196 492Q233 492 259 474T302 426T326 358T334 278Q334 264 334 254T333 235H108Q108 179 118 144T145 90T181 63T223 55Q248 55 268 60T303 74L315 17Q308 14 301 11T289 6Q271 -3 254 -16T224 -44T202 -75T194 -106Q194 -127 205 -136T231 -145Q254 -145 277 -132L290 -174ZM260 292Q261 365 239 398T188 432Q169 432 155 420T131 387T116 342T109 292H260Z"  />
<glyph unicode="&#x11A;" horiz-adv-x="354" d="M306 320H137V67H329V0H60V674H317V607H137V385H306V320ZM157 710L70 808H137L189 750H191L243 808H309L223 710H157Z"  />
<glyph unicode="&#x11B;" horiz-adv-x="363" d="M108 235Q108 179 118 144T145 90T181 63T223 55Q248 55 268 60T303 74L315 17Q295 6 267 0T209 -6Q122 -6 78 60T33 237Q33 296 45 343T78 423T130 474T196 492Q233 492 259 474T302 426T326 358T334 278Q334 264 334 254T333 235H108ZM260 292Q261 365 239 398T188 432Q169 432 155 420T131 387T116 342T109 292H260ZM161 547L82 682H139L186 595H188L235 682H293L214 547H161Z"  />
<glyph unicode="&#x11C;" horiz-adv-x="436" d="M392 17Q370 8 337 1T272 -6Q227 -6 187 8T113 60Q76 99 54 167T32 328Q32 426 55 493T114 602T196 662T286 680Q318 680 342 675T382 661L365 595Q351 602 333 606T287 611Q255 611 224 598T168 552T128 466T112 335Q112 257 125 205T161 120T213 74T272 60Q292 60 303 63T319 68V288H232V352H392V17ZM288 808L375 710H307L255 765H253L202 710H135L221 808H288Z"  />
<glyph unicode="&#x11D;" horiz-adv-x="399" d="M350 484Q349 458 348 424T346 333V62Q346 14 343 -19T334 -77T319 -118T298 -148Q276 -173 243 -186T169 -200Q138 -200 110 -194T63 -176L81 -116Q95 -124 118 -130T171 -137Q194 -137 212 -130T243 -105T263 -59T270 11V60H268Q255 31 231 16T175 1Q143 1 117 18T72 67T43 143T33 240Q33 307 47 354T82 432T131 477T185 492Q224 492 244 472T275 429H277L281 484H350ZM270 317Q270 326 269 335T266 352Q263 364 258 377T244 401T224 419T196 426Q175 426 159 413T132 375T116 318T110 244Q110 151 135 108T196 64Q205 64 214 66T233 76T250 97T265 133Q268 144 269 155T270 177V317ZM224 682L302 547H245L199 633H197L150 547H92L172 682H224Z"  />
<glyph unicode="&#x11E;" horiz-adv-x="436" d="M392 17Q370 8 337 1T272 -6Q227 -6 187 8T113 60Q76 99 54 167T32 328Q32 426 55 493T114 602T196 662T286 680Q318 680 342 675T382 661L365 595Q351 602 333 606T287 611Q255 611 224 598T168 552T128 466T112 335Q112 257 125 205T161 120T213 74T272 60Q292 60 303 63T319 68V288H232V352H392V17ZM192 808Q196 787 212 776T252 764Q277 764 293 774T315 808H360Q360 764 332 738T253 711Q203 711 175 736T146 808H192Z"  />
<glyph unicode="&#x11F;" horiz-adv-x="399" d="M350 484Q349 458 348 424T346 333V62Q346 14 343 -19T334 -77T319 -118T298 -148Q276 -173 243 -186T169 -200Q138 -200 110 -194T63 -176L81 -116Q95 -124 118 -130T171 -137Q194 -137 212 -130T243 -105T263 -59T270 11V60H268Q255 31 231 16T175 1Q143 1 117 18T72 67T43 143T33 240Q33 307 47 354T82 432T131 477T185 492Q224 492 244 472T275 429H277L281 484H350ZM270 317Q270 326 269 335T266 352Q263 364 258 377T244 401T224 419T196 426Q175 426 159 413T132 375T116 318T110 244Q110 151 135 108T196 64Q205 64 214 66T233 76T250 97T265 133Q268 144 269 155T270 177V317ZM136 669Q138 641 155 624T198 607Q227 607 244 624T262 669H305Q307 619 278 588T198 556Q147 556 119 588T93 669H136Z"  />
<glyph unicode="&#x120;" horiz-adv-x="436" d="M392 17Q370 8 337 1T272 -6Q227 -6 187 8T113 60Q76 99 54 167T32 328Q32 426 55 493T114 602T196 662T286 680Q318 680 342 675T382 661L365 595Q351 602 333 606T287 611Q255 611 224 598T168 552T128 466T112 335Q112 257 125 205T161 120T213 74T272 60Q292 60 303 63T319 68V288H232V352H392V17ZM256 720Q237 720 224 733T211 765Q211 784 224 796T256 809Q275 809 287 797T300 765Q300 746 288 733T256 720Z"  />
<glyph unicode="&#x121;" horiz-adv-x="399" d="M350 484Q349 458 348 424T346 333V62Q346 14 343 -19T334 -77T319 -118T298 -148Q276 -173 243 -186T169 -200Q138 -200 110 -194T63 -176L81 -116Q95 -124 118 -130T171 -137Q194 -137 212 -130T243 -105T263 -59T270 11V60H268Q255 31 231 16T175 1Q143 1 117 18T72 67T43 143T33 240Q33 307 47 354T82 432T131 477T185 492Q224 492 244 472T275 429H277L281 484H350ZM270 317Q270 326 269 335T266 352Q263 364 258 377T244 401T224 419T196 426Q175 426 159 413T132 375T116 318T110 244Q110 151 135 108T196 64Q205 64 214 66T233 76T250 97T265 133Q268 144 269 155T270 177V317ZM201 566Q182 566 170 578T157 610Q157 630 170 642T201 655Q219 655 231 643T244 610Q244 591 232 579T201 566Z"  />
<glyph unicode="&#x122;" horiz-adv-x="436" d="M392 17Q370 8 337 1T272 -6Q227 -6 187 8T113 60Q76 99 54 167T32 328Q32 426 55 493T114 602T196 662T286 680Q318 680 342 675T382 661L365 595Q351 602 333 606T287 611Q255 611 224 598T168 552T128 466T112 335Q112 257 125 205T161 120T213 74T272 60Q292 60 303 63T319 68V288H232V352H392V17ZM189 -177Q212 -170 232 -155T253 -114Q253 -95 243 -80T219 -53L282 -42Q295 -50 305 -68T316 -112Q316 -136 307 -153T282 -183T247 -203T206 -214L189 -177Z"  />
<glyph unicode="&#x123;" horiz-adv-x="399" d="M275 667Q249 660 229 645T208 602Q208 582 218 567T243 541L183 529Q170 539 160 557T149 599Q149 623 158 640T183 670T218 690T259 701L275 667ZM350 484Q349 458 348 424T346 333V62Q346 14 343 -19T334 -77T319 -118T298 -148Q276 -173 243 -186T169 -200Q138 -200 110 -194T63 -176L81 -116Q95 -124 118 -130T171 -137Q194 -137 212 -130T243 -105T263 -59T270 11V60H268Q255 31 231 16T175 1Q143 1 117 18T72 67T43 143T33 240Q33 307 47 354T82 432T131 477T185 492Q224 492 244 472T275 429H277L281 484H350ZM270 317Q270 326 269 335T266 352Q263 364 258 377T244 401T224 419T196 426Q175 426 159 413T132 375T116 318T110 244Q110 151 135 108T196 64Q205 64 214 66T233 76T250 97T265 133Q268 144 269 155T270 177V317Z"  />
<glyph unicode="&#x124;" horiz-adv-x="463" d="M137 674V385H326V674H403V0H326V315H137V0H60V674H137ZM267 808L354 710H286L234 765H232L181 710H114L200 808H267Z"  />
<glyph unicode="&#x125;" horiz-adv-x="405" d="M54 692H131V432H133Q141 445 151 455T173 474Q187 482 202 487T238 492Q261 492 281 483T317 453T342 400T351 321V0H274V312Q274 334 271 355T261 392T241 417T209 427Q182 427 163 408T134 350Q131 333 131 313V0H54V692ZM127 818L214 720H147L95 775H93L41 720H-25L61 818H127Z"  />
<glyph unicode="&#x126;" horiz-adv-x="463" d="M403 483V0H326V305H137V0H60V483H13V538H60V674H137V538H326V674H403V538H450V483H403ZM326 483H137V375H326V483Z"  />
<glyph unicode="&#x127;" horiz-adv-x="405" d="M274 0V312Q274 334 271 355T261 392T241 417T209 427Q182 427 163 408T134 350Q131 333 131 313V0H54V543H-6V597H54V692H131V597H264V543H131V432H133Q141 445 151 455T173 474Q187 482 202 487T238 492Q261 492 281 483T317 453T342 400T351 321V0H274Z"  />
<glyph unicode="&#x128;" horiz-adv-x="199" d="M137 674V0H60V674H137ZM-6 718Q-7 760 8 786T53 812Q68 812 79 807T100 795Q111 788 120 783T140 777Q152 777 158 785T166 813H206Q207 771 193 747T144 723Q130 723 118 728T95 740Q85 747 77 752T59 757Q38 757 35 718H-6Z"  />
<glyph unicode="&#x129;" horiz-adv-x="184" d="M54 0V484H131V0H54ZM-15 561Q-16 601 -1 628T46 655Q62 655 73 650T95 638Q106 631 115 626T135 621Q146 621 152 628T160 657H201Q201 615 186 591T138 567Q124 567 112 572T89 584Q78 590 70 595T52 601Q30 601 27 561H-15Z"  />
<glyph unicode="&#x12A;" horiz-adv-x="199" d="M137 674V0H60V674H137ZM207 788V735H-6V788H207Z"  />
<glyph unicode="&#x12B;" horiz-adv-x="184" d="M54 0V484H131V0H54ZM192 631V581H-5V631H192Z"  />
<glyph unicode="&#x12C;" horiz-adv-x="199" d="M137 674V0H60V674H137ZM37 810Q41 790 57 778T98 766Q122 766 138 776T160 810H205Q205 766 177 740T99 713Q48 713 20 738T-8 810H37Z"  />
<glyph unicode="&#x12D;" horiz-adv-x="184" d="M54 0V484H131V0H54ZM30 669Q32 641 49 624T92 607Q121 607 138 624T156 669H199Q201 619 172 588T92 556Q41 556 13 588T-13 669H30Z"  />
<glyph unicode="&#x12E;" horiz-adv-x="199" d="M137 0H115Q103 -17 89 -45T74 -102Q74 -126 87 -137T115 -149Q130 -149 140 -147T158 -140L169 -183Q152 -196 133 -200T97 -205Q59 -205 36 -183T13 -123Q13 -104 18 -86T30 -52T46 -23T60 0V674H137V0Z"  />
<glyph unicode="&#x12F;" horiz-adv-x="184" d="M91 559Q71 559 59 572T46 609Q46 632 59 645T91 659Q112 659 124 646T137 609Q138 586 125 573T91 559ZM131 0H108Q96 -17 82 -45T67 -103Q67 -126 80 -137T109 -149Q123 -149 133 -147T151 -140L162 -183Q145 -196 126 -200T90 -205Q52 -205 29 -183T6 -122Q6 -103 11 -85T23 -52T39 -23T54 0V484H131V0Z"  />
<glyph unicode="&#x130;" horiz-adv-x="199" d="M137 674V0H60V674H137ZM100 727Q81 727 68 740T55 772Q55 791 68 803T100 816Q118 816 131 804T144 772Q144 753 131 740T100 727Z"  />
<glyph unicode="&#x131;" horiz-adv-x="184" d="M54 0V484H131V0H54Z"  />
<glyph unicode="&#x132;" horiz-adv-x="464" d="M137 674V0H60V674H137ZM333 674H410V190Q410 133 399 95T368 34T318 2T252 -8Q238 -8 225 -7T203 -1L209 64Q217 62 226 61T246 60Q267 60 283 65T310 84T327 124T333 189V674Z"  />
<glyph unicode="&#x133;" horiz-adv-x="373" d="M54 0V484H131V0H54ZM91 659Q112 659 124 646T137 609Q138 586 125 573T90 559Q71 559 59 572T46 609Q46 632 59 645T91 659ZM156 -139Q173 -134 191 -127T221 -101Q228 -91 232 -79T240 -49T244 -7T245 53V484H321V31Q321 -7 319 -36T310 -86T295 -124T272 -154Q250 -177 220 -188T166 -200L156 -139ZM283 659Q304 659 316 646T328 609Q329 586 317 573T282 559Q262 559 250 572T237 609Q237 632 250 645T283 659Z"  />
<glyph unicode="&#x134;" horiz-adv-x="265" d="M134 674H211V190Q211 133 200 95T169 34T119 2T53 -8Q39 -8 26 -7T3 -1L10 64Q18 62 27 61T47 60Q68 60 84 65T111 84T128 124T134 189V674ZM201 808L289 710H221L169 765H167L115 710H49L135 808H201Z"  />
<glyph unicode="&#x135;" horiz-adv-x="188" d="M-28 -139Q-11 -134 7 -127T37 -101Q43 -91 47 -79T55 -49T59 -7T60 53V484H137V31Q137 -7 134 -36T125 -86T110 -124T88 -154Q66 -177 36 -188T-18 -200L-28 -139ZM122 675L201 540H143L97 626H95L49 540H-10L70 675H122Z"  />
<glyph unicode="&#x136;" horiz-adv-x="404" d="M60 674H137V354H139Q161 396 181 435L307 674H392L227 386L396 0H313L175 325L137 260V0H60V674ZM143 -170Q166 -163 186 -148T207 -107Q207 -88 197 -73T173 -46L235 -35Q248 -43 259 -61T270 -105Q270 -129 261 -146T236 -176T200 -196T159 -207L143 -170Z"  />
<glyph unicode="&#x137;" horiz-adv-x="354" d="M130 259H132Q139 273 145 287T158 313L254 484H337L209 280L348 0H262L157 228L130 183V0H53V692H130V259ZM113 -177Q136 -170 157 -155T178 -114Q178 -95 168 -80T144 -53L206 -42Q219 -50 229 -68T240 -112Q240 -136 231 -153T206 -183T171 -203T130 -214L113 -177Z"  />
<glyph unicode="&#x138;" horiz-adv-x="354" d="M130 259H132Q139 273 145 287T158 313L254 484H337L209 280L348 0H262L157 228L130 183V0H53V484H130V259Z"  />
<glyph unicode="&#x139;" horiz-adv-x="344" d="M60 674H137V65H327V0H60V674ZM251 818L127 710H66L160 818H251Z"  />
<glyph unicode="&#x13A;" horiz-adv-x="191" d="M54 692H131V0H54V692ZM235 828L110 720H50L144 828H235Z"  />
<glyph unicode="&#x13B;" horiz-adv-x="344" d="M60 674H137V65H327V0H60V674ZM109 -177Q132 -170 152 -155T173 -114Q173 -95 163 -80T139 -53L201 -42Q214 -50 225 -68T236 -112Q236 -136 227 -153T202 -183T166 -203T125 -214L109 -177Z"  />
<glyph unicode="&#x13C;" horiz-adv-x="191" d="M54 692H131V0H54V692ZM27 -177Q50 -170 70 -155T91 -114Q91 -95 81 -80T57 -53L119 -42Q132 -50 143 -68T154 -112Q154 -136 145 -153T120 -183T84 -203T43 -214L27 -177Z"  />
<glyph unicode="&#x13D;" horiz-adv-x="344" d="M60 674H137V65H327V0H60V674ZM184 540Q207 546 227 561T248 602Q248 622 238 637T214 663L276 675Q289 666 300 648T311 605Q311 581 302 564T277 534T241 514T200 503L184 540Z"  />
<glyph unicode="&#x13E;" horiz-adv-x="194" d="M174 527Q184 542 193 566T203 617Q203 640 194 657T171 685L228 697Q241 688 251 670T261 625Q261 602 255 584T241 550T223 524T208 505L174 527ZM54 692H131V0H54V692Z"  />
<glyph unicode="&#x13F;" horiz-adv-x="344" d="M60 674H137V65H327V0H60V674ZM241 316Q222 316 209 329T196 361Q196 380 209 393T241 406Q260 406 272 393T285 361Q285 343 273 330T241 316Z"  />
<glyph unicode="&#x140;" horiz-adv-x="235" d="M212 349Q194 349 182 362T170 394Q170 413 182 425T212 438Q229 438 240 426T252 394Q252 375 241 362T212 349ZM54 692H131V0H54V692Z"  />
<glyph unicode="&#x141;" horiz-adv-x="351" d="M67 0V256L-1 191V261L67 326V674H144V388L250 490V419L144 318V65H334V0H67Z"  />
<glyph unicode="&#x142;" horiz-adv-x="198" d="M61 0V296L-1 233V301L61 365V692H138V425L201 491V421L138 355V0H61Z"  />
<glyph unicode="&#x143;" horiz-adv-x="465" d="M60 0V674H133L257 358Q278 304 302 241T343 123H345Q343 163 341 200T338 274T337 350T336 433V674H405V0H332L204 324Q184 375 163 432T124 553H122Q124 519 125 485T128 413T129 331T130 233V0H60ZM381 818L257 710H196L290 818H381Z"  />
<glyph unicode="&#x144;" horiz-adv-x="405" d="M54 359Q54 380 54 397T53 428T51 456T50 484H117L121 426H123Q139 455 167 473T234 492Q284 492 317 453T351 325V0H274V312Q274 333 272 354T262 391T241 417T207 427Q183 427 163 407T134 348Q131 330 131 305V0H54V359ZM326 682L221 547H170L247 682H326Z"  />
<glyph unicode="&#x145;" horiz-adv-x="465" d="M60 0V674H133L257 358Q278 304 302 241T343 123H345Q343 163 341 200T338 274T337 350T336 433V674H405V0H332L204 324Q184 375 163 432T124 553H122Q124 519 125 485T128 413T129 331T130 233V0H60ZM160 -174Q183 -167 203 -152T224 -111Q224 -92 214 -77T190 -50L252 -39Q265 -47 276 -65T287 -108Q287 -132 278 -150T253 -180T217 -200T176 -211L160 -174Z"  />
<glyph unicode="&#x146;" horiz-adv-x="405" d="M54 359Q54 380 54 397T53 428T51 456T50 484H117L121 426H123Q139 455 167 473T234 492Q284 492 317 453T351 325V0H274V312Q274 333 272 354T262 391T241 417T207 427Q183 427 163 407T134 348Q131 330 131 305V0H54V359ZM141 -171Q164 -165 184 -150T205 -109Q205 -89 195 -74T172 -48L234 -36Q247 -45 257 -63T268 -106Q268 -130 259 -147T234 -177T199 -197T158 -208L141 -171Z"  />
<glyph unicode="&#x147;" horiz-adv-x="465" d="M60 0V674H133L257 358Q278 304 302 241T343 123H345Q343 163 341 200T338 274T337 350T336 433V674H405V0H332L204 324Q184 375 163 432T124 553H122Q124 519 125 485T128 413T129 331T130 233V0H60ZM199 710L112 808H179L231 750H233L285 808H351L265 710H199Z"  />
<glyph unicode="&#x148;" horiz-adv-x="405" d="M54 359Q54 380 54 397T53 428T51 456T50 484H117L121 426H123Q139 455 167 473T234 492Q284 492 317 453T351 325V0H274V312Q274 333 272 354T262 391T241 417T207 427Q183 427 163 407T134 348Q131 330 131 305V0H54V359ZM176 547L97 682H155L201 595H203L250 682H308L229 547H176Z"  />
<glyph unicode="&#x149;" horiz-adv-x="405" d="M16 547Q26 561 35 582T45 628Q45 649 36 664T13 689L73 700Q86 692 96 675T106 635Q106 615 100 598T86 568T68 544T53 527L16 547ZM54 359Q54 380 54 397T53 428T51 456T50 484H117L121 426H123Q139 455 167 473T234 492Q284 492 317 453T351 325V0H274V312Q274 333 272 354T262 391T241 417T207 427Q183 427 163 407T134 348Q131 330 131 305V0H54V359Z"  />
<glyph unicode="&#x14A;" horiz-adv-x="465" d="M60 0V674H133L257 358Q278 304 302 241T343 123H345Q343 163 341 200T338 274T337 350T336 433V674H405V21Q405 -62 374 -115T264 -186L246 -127Q290 -114 312 -86T335 -6L204 324Q184 375 163 432T124 553H122Q124 519 125 485T128 413T129 331T130 233V0H60Z"  />
<glyph unicode="&#x14B;" horiz-adv-x="405" d="M54 359Q54 380 54 397T53 428T51 456T50 484H117L121 426H123Q139 455 167 473T234 492Q284 492 317 453T351 325V31Q351 -19 341 -55T311 -115T267 -153T211 -173L195 -111Q232 -102 253 -72T274 27V312Q274 333 272 354T262 391T241 417T207 427Q183 427 163 407T134 348Q131 330 131 305V0H54V359Z"  />
<glyph unicode="&#x14C;" horiz-adv-x="446" d="M230 682Q317 682 365 593T414 342Q414 247 399 181T357 72T295 11T219 -8Q135 -8 84 80T32 338Q32 422 46 486T87 593T149 659T230 682ZM223 614Q191 614 170 590T136 527T118 438T112 337Q112 285 117 235T136 146T170 84T224 60Q257 60 278 85T311 150T329 239T334 339Q334 386 329 435T312 523T278 588T223 614ZM331 788V735H118V788H331Z"  />
<glyph unicode="&#x14D;" horiz-adv-x="383" d="M195 492Q227 492 255 477T305 430T338 352T351 242Q351 172 336 124T298 47T247 5T190 -8Q157 -8 129 7T79 52T46 130T33 241Q33 307 46 354T82 432T134 477T195 492ZM192 430Q166 430 150 411T125 364T113 303T110 242Q110 212 113 179T126 118T151 72T194 53Q219 53 234 72T258 119T270 181T273 242Q273 270 270 302T258 363T233 411T192 430ZM291 631V581H94V631H291Z"  />
<glyph unicode="&#x14E;" horiz-adv-x="446" d="M230 682Q317 682 365 593T414 342Q414 247 399 181T357 72T295 11T219 -8Q135 -8 84 80T32 338Q32 422 46 486T87 593T149 659T230 682ZM223 614Q191 614 170 590T136 527T118 438T112 337Q112 285 117 235T136 146T170 84T224 60Q257 60 278 85T311 150T329 239T334 339Q334 386 329 435T312 523T278 588T223 614ZM160 810Q164 790 180 779T220 767Q245 767 261 777T283 810H328Q328 766 300 740T221 714Q171 714 143 739T114 810H160Z"  />
<glyph unicode="&#x14F;" horiz-adv-x="383" d="M195 492Q227 492 255 477T305 430T338 352T351 242Q351 172 336 124T298 47T247 5T190 -8Q157 -8 129 7T79 52T46 130T33 241Q33 307 46 354T82 432T134 477T195 492ZM192 430Q166 430 150 411T125 364T113 303T110 242Q110 212 113 179T126 118T151 72T194 53Q219 53 234 72T258 119T270 181T273 242Q273 270 270 302T258 363T233 411T192 430ZM127 669Q129 641 146 624T189 607Q218 607 235 624T253 669H296Q298 619 269 588T189 556Q138 556 110 588T84 669H127Z"  />
<glyph unicode="&#x150;" horiz-adv-x="446" d="M230 682Q317 682 365 593T414 342Q414 247 399 181T357 72T295 11T219 -8Q135 -8 84 80T32 338Q32 422 46 486T87 593T149 659T230 682ZM223 614Q191 614 170 590T136 527T118 438T112 337Q112 285 117 235T136 146T170 84T224 60Q257 60 278 85T311 150T329 239T334 339Q334 386 329 435T312 523T278 588T223 614ZM284 818L184 719H131L203 818H284ZM411 818L311 719H258L330 818H411Z"  />
<glyph unicode="&#x151;" horiz-adv-x="383" d="M195 492Q227 492 255 477T305 430T338 352T351 242Q351 172 336 124T298 47T247 5T190 -8Q157 -8 129 7T79 52T46 130T33 241Q33 307 46 354T82 432T134 477T195 492ZM192 430Q166 430 150 411T125 364T113 303T110 242Q110 212 113 179T126 118T151 72T194 53Q219 53 234 72T258 119T270 181T273 242Q273 270 270 302T258 363T233 411T192 430ZM249 682L145 547H101L180 682H249ZM373 682L269 547H225L303 682H373Z"  />
<glyph unicode="&#x152;" horiz-adv-x="610" d="M585 0H339Q329 -1 320 -2T301 -5Q281 -8 264 -8Q198 -8 154 20T82 95T44 204T32 333Q32 422 50 487T101 596T178 661T272 682Q293 682 310 679Q320 677 329 676T346 674H573V607H393V385H562V320H393V67H585V0ZM316 603Q297 614 262 614Q237 614 210 600T162 554T126 469T112 338Q112 258 125 205T159 119T209 74T267 60Q281 60 294 61T316 68V603Z"  />
<glyph unicode="&#x153;" horiz-adv-x="609" d="M355 237Q356 182 365 147T389 90T424 61T467 53Q492 53 512 59T551 73L565 18Q539 2 509 -3T452 -8Q410 -8 373 17T318 94H316Q300 40 265 16T191 -8Q158 -8 129 7T79 53T46 131T33 241Q33 306 46 353T83 431T135 477T196 492Q235 492 270 468T319 393H321Q339 439 371 465T447 492Q482 492 507 474T549 425T573 357T581 278Q581 265 581 255T580 237H355ZM197 430Q169 430 152 411T126 363T113 302T110 242Q110 212 113 179T126 118T153 72T198 53Q225 53 241 71T267 117T280 178T283 243Q283 272 280 305T268 365T241 411T197 430ZM507 292Q508 328 502 354T487 397T464 422T438 431Q419 431 404 419T379 388T363 343T356 292H507Z"  />
<glyph unicode="&#x154;" horiz-adv-x="409" d="M60 664Q85 671 113 674T171 677Q222 677 259 666T323 629Q348 603 359 570T370 497Q370 432 342 390T262 324V322Q300 311 321 274T353 171Q364 101 374 59T391 0H313Q305 15 296 59T277 167Q266 236 242 265T167 294H137V0H60V664ZM137 353H169Q225 353 258 390T292 488Q292 547 266 580T177 615Q166 615 156 614T137 611V353ZM335 818L211 710H150L244 818H335Z"  />
<glyph unicode="&#x155;" horiz-adv-x="248" d="M53 359Q53 390 52 423T49 484H118L122 408H124Q136 443 164 467T226 492Q231 492 234 492T242 491V412Q237 413 226 413Q189 413 164 384T133 312Q130 292 130 268V0H53V359ZM259 682L154 547H103L180 682H259Z"  />
<glyph unicode="&#x156;" horiz-adv-x="409" d="M60 664Q85 671 113 674T171 677Q222 677 259 666T323 629Q348 603 359 570T370 497Q370 432 342 390T262 324V322Q300 311 321 274T353 171Q364 101 374 59T391 0H313Q305 15 296 59T277 167Q266 236 242 265T167 294H137V0H60V664ZM137 353H169Q225 353 258 390T292 488Q292 547 266 580T177 615Q166 615 156 614T137 611V353ZM140 -170Q163 -163 183 -148T204 -107Q204 -88 194 -73T171 -46L233 -35Q246 -43 256 -61T267 -105Q267 -129 258 -146T233 -176T198 -196T157 -207L140 -170Z"  />
<glyph unicode="&#x157;" horiz-adv-x="248" d="M53 359Q53 390 52 423T49 484H118L122 408H124Q136 443 164 467T226 492Q231 492 234 492T242 491V412Q237 413 226 413Q189 413 164 384T133 312Q130 292 130 268V0H53V359ZM39 -177Q62 -170 82 -155T103 -114Q103 -95 93 -80T69 -53L131 -42Q144 -50 155 -68T166 -112Q166 -136 157 -153T132 -183T96 -203T55 -214L39 -177Z"  />
<glyph unicode="&#x158;" horiz-adv-x="409" d="M60 664Q85 671 113 674T171 677Q222 677 259 666T323 629Q348 603 359 570T370 497Q370 432 342 390T262 324V322Q300 311 321 274T353 171Q364 101 374 59T391 0H313Q305 15 296 59T277 167Q266 236 242 265T167 294H137V0H60V664ZM137 353H169Q225 353 258 390T292 488Q292 547 266 580T177 615Q166 615 156 614T137 611V353ZM163 710L76 808H143L195 750H197L249 808H315L229 710H163Z"  />
<glyph unicode="&#x159;" horiz-adv-x="248" d="M53 359Q53 390 52 423T49 484H118L122 408H124Q136 443 164 467T226 492Q231 492 234 492T242 491V412Q237 413 226 413Q189 413 164 384T133 312Q130 292 130 268V0H53V359ZM109 547L30 682H87L134 595H136L183 682H241L162 547H109Z"  />
<glyph unicode="&#x15A;" horiz-adv-x="361" d="M45 89Q62 78 89 70T142 62Q195 62 224 93T254 176Q254 223 230 254T165 316Q145 330 123 348T82 390T51 442T38 503Q38 541 51 573T87 629T143 666T216 680Q248 680 273 672T311 655L292 589Q279 598 259 605T212 612Q187 612 169 604T139 582T121 551T115 516Q115 491 121 473T140 439T171 409T214 377Q275 334 303 287T331 183Q331 139 317 105T277 45T217 7T142 -6Q107 -6 75 3T28 23L45 89ZM321 818L196 710H135L230 818H321Z"  />
<glyph unicode="&#x15B;" horiz-adv-x="289" d="M41 80Q54 72 75 64T119 55Q152 55 171 74T190 125Q190 153 178 174T128 220Q80 251 56 283T31 358Q31 387 41 411T69 454T111 482T164 492Q193 492 214 484T251 467L230 409Q216 418 201 424T166 430Q134 430 119 411T103 369Q103 344 115 327T163 285Q205 258 234 223T263 138Q263 102 252 75T220 30T174 3T118 -6Q91 -6 65 1T22 22L41 80ZM269 682L164 547H113L190 682H269Z"  />
<glyph unicode="&#x15C;" horiz-adv-x="361" d="M45 89Q62 78 89 70T142 62Q195 62 224 93T254 176Q254 223 230 254T165 316Q145 330 123 348T82 390T51 442T38 503Q38 541 51 573T87 629T143 666T216 680Q248 680 273 672T311 655L292 589Q279 598 259 605T212 612Q187 612 169 604T139 582T121 551T115 516Q115 491 121 473T140 439T171 409T214 377Q275 334 303 287T331 183Q331 139 317 105T277 45T217 7T142 -6Q107 -6 75 3T28 23L45 89ZM221 808L309 710H241L189 765H187L135 710H69L155 808H221Z"  />
<glyph unicode="&#x15D;" horiz-adv-x="289" d="M41 80Q54 72 75 64T119 55Q152 55 171 74T190 125Q190 153 178 174T128 220Q80 251 56 283T31 358Q31 387 41 411T69 454T111 482T164 492Q193 492 214 484T251 467L230 409Q216 418 201 424T166 430Q134 430 119 411T103 369Q103 344 115 327T163 285Q205 258 234 223T263 138Q263 102 252 75T220 30T174 3T118 -6Q91 -6 65 1T22 22L41 80ZM171 682L250 547H192L146 633H144L98 547H40L119 682H171Z"  />
<glyph unicode="&#x15E;" horiz-adv-x="361" d="M45 89Q62 78 89 70T142 62Q195 62 224 93T254 176Q254 223 230 254T165 316Q145 330 123 348T82 390T51 442T38 503Q38 541 51 573T87 629T143 666T216 680Q248 680 273 672T311 655L292 589Q279 598 259 605T212 612Q187 612 169 604T139 582T121 551T115 516Q115 491 121 473T140 439T171 409T214 377Q275 334 303 287T331 183Q331 112 295 66T201 2L174 -50Q200 -54 219 -73T239 -121Q239 -142 231 -157T210 -181T181 -195T148 -200Q130 -200 113 -195T82 -182L97 -140Q121 -155 147 -155Q161 -155 172 -149T184 -124Q184 -104 163 -94T115 -81L149 -6H142Q107 -6 75 3T28 23L45 89Z"  />
<glyph unicode="&#x15F;" horiz-adv-x="289" d="M41 80Q54 72 75 64T119 55Q152 55 171 74T190 125Q190 153 178 174T128 220Q80 251 56 283T31 358Q31 387 41 411T69 454T111 482T164 492Q193 492 214 484T251 467L230 409Q216 418 201 424T166 430Q134 430 119 411T103 369Q103 344 115 327T163 285Q205 258 234 223T263 138Q263 81 237 47T168 1L142 -50Q168 -54 187 -73T207 -121Q207 -142 199 -157T178 -181T149 -195T116 -200Q97 -200 80 -195T50 -182L65 -140Q89 -155 115 -155Q129 -155 140 -149T151 -125Q151 -105 132 -95T83 -81L117 -6H113Q92 -6 67 1T22 22L41 80Z"  />
<glyph unicode="&#x160;" horiz-adv-x="361" d="M45 89Q62 78 89 70T142 62Q195 62 224 93T254 176Q254 223 230 254T165 316Q145 330 123 348T82 390T51 442T38 503Q38 541 51 573T87 629T143 666T216 680Q248 680 273 672T311 655L292 589Q279 598 259 605T212 612Q187 612 169 604T139 582T121 551T115 516Q115 491 121 473T140 439T171 409T214 377Q275 334 303 287T331 183Q331 139 317 105T277 45T217 7T142 -6Q107 -6 75 3T28 23L45 89ZM163 710L76 808H144L195 750H197L249 808H316L230 710H163Z"  />
<glyph unicode="&#x161;" horiz-adv-x="289" d="M41 80Q54 72 75 64T119 55Q152 55 171 74T190 125Q190 153 178 174T128 220Q80 251 56 283T31 358Q31 387 41 411T69 454T111 482T164 492Q193 492 214 484T251 467L230 409Q216 418 201 424T166 430Q134 430 119 411T103 369Q103 344 115 327T163 285Q205 258 234 223T263 138Q263 102 252 75T220 30T174 3T118 -6Q91 -6 65 1T22 22L41 80ZM121 547L42 682H100L146 595H148L195 682H253L174 547H121Z"  />
<glyph unicode="&#x162;" horiz-adv-x="354" d="M203 0L177 -50Q203 -54 222 -73T242 -121Q242 -142 234 -157T213 -181T184 -195T151 -200Q133 -200 116 -195T85 -182L101 -140Q123 -155 151 -155Q164 -155 175 -149T187 -124Q187 -104 167 -94T118 -81L156 0H139V605H16V674H339V605H216V0H203Z"  />
<glyph unicode="&#x163;" horiz-adv-x="255" d="M148 425V138Q148 91 163 75T199 58Q216 58 230 61L233 2Q211 -6 176 -6H175L153 -50Q178 -54 198 -73T218 -121Q218 -142 210 -157T189 -181T160 -195T127 -200Q108 -200 91 -195T60 -182L76 -140Q100 -155 126 -155Q140 -155 151 -149T162 -125Q162 -105 142 -95T93 -81L131 2Q113 9 100 23Q86 40 79 67T71 145V425H12V484H71V590L148 612V484H241V425H148Z"  />
<glyph unicode="&#x164;" horiz-adv-x="354" d="M139 605H16V674H339V605H216V0H139V605ZM143 710L56 808H123L175 750H177L229 808H295L209 710H143Z"  />
<glyph unicode="&#x165;" horiz-adv-x="265" d="M226 556Q237 570 246 591T255 638Q255 659 246 675T225 700L284 711Q297 703 307 687T318 645Q318 625 312 608T297 577T279 553T263 536L226 556ZM148 612V484H241V425H148V138Q148 91 163 75T199 58Q216 58 230 61L233 2Q211 -6 176 -6Q153 -6 134 0T100 23Q86 40 79 67T71 145V425H12V484H71V590L148 612Z"  />
<glyph unicode="&#x166;" horiz-adv-x="354" d="M216 605V380H299V323H216V0H139V323H55V380H139V605H16V674H339V605H216Z"  />
<glyph unicode="&#x167;" horiz-adv-x="255" d="M148 425V309H221V256H148V138Q148 91 163 75T199 58Q216 58 230 61L233 2Q211 -6 176 -6Q153 -6 134 0T100 23Q86 40 79 67T71 145V256H17V309H71V425H12V484H71V590L148 612V484H241V425H148Z"  />
<glyph unicode="&#x168;" horiz-adv-x="457" d="M136 674V222Q136 177 143 146T162 96T191 69T228 60Q249 60 266 68T296 96T314 147T321 222V674H398V234Q398 168 385 122T350 47T295 5T226 -8Q150 -8 105 46T59 225V674H136ZM122 718Q121 760 136 786T181 812Q196 812 207 807T228 795Q239 788 248 783T268 777Q280 777 286 785T294 813H334Q335 771 321 747T272 723Q258 723 246 728T223 740Q213 747 205 752T187 757Q167 757 163 718H122Z"  />
<glyph unicode="&#x169;" horiz-adv-x="398" d="M344 132Q344 91 345 59T348 0H281L276 51H274Q268 42 259 32T236 13T206 -2T170 -8Q106 -8 79 39T52 178V484H129V189Q129 160 131 136T141 95T161 67T194 57Q211 57 223 64T244 81T256 102T263 121Q265 131 266 142T267 165V484H344V132ZM91 561Q90 601 105 628T152 655Q168 655 179 650T201 638Q212 631 221 626T241 621Q252 621 258 628T266 657H307Q307 615 292 591T244 567Q230 567 218 572T195 584Q184 590 176 595T158 601Q136 601 133 561H91Z"  />
<glyph unicode="&#x16A;" horiz-adv-x="457" d="M136 674V222Q136 177 143 146T162 96T191 69T228 60Q249 60 266 68T296 96T314 147T321 222V674H398V234Q398 168 385 122T350 47T295 5T226 -8Q150 -8 105 46T59 225V674H136ZM334 788V735H121V788H334Z"  />
<glyph unicode="&#x16B;" horiz-adv-x="398" d="M344 132Q344 91 345 59T348 0H281L276 51H274Q268 42 259 32T236 13T206 -2T170 -8Q106 -8 79 39T52 178V484H129V189Q129 160 131 136T141 95T161 67T194 57Q211 57 223 64T244 81T256 102T263 121Q265 131 266 142T267 165V484H344V132ZM296 631V581H99V631H296Z"  />
<glyph unicode="&#x16C;" horiz-adv-x="457" d="M136 674V222Q136 177 143 146T162 96T191 69T228 60Q249 60 266 68T296 96T314 147T321 222V674H398V234Q398 168 385 122T350 47T295 5T226 -8Q150 -8 105 46T59 225V674H136ZM167 807Q170 787 186 776T227 764Q252 764 268 774T289 807H335Q335 763 307 737T228 711Q178 711 150 736T121 807H167Z"  />
<glyph unicode="&#x16D;" horiz-adv-x="398" d="M344 132Q344 91 345 59T348 0H281L276 51H274Q268 42 259 32T236 13T206 -2T170 -8Q106 -8 79 39T52 178V484H129V189Q129 160 131 136T141 95T161 67T194 57Q211 57 223 64T244 81T256 102T263 121Q265 131 266 142T267 165V484H344V132ZM136 669Q138 641 155 624T198 607Q227 607 244 624T262 669H305Q307 619 278 588T198 556Q147 556 119 588T93 669H136Z"  />
<glyph unicode="&#x16E;" horiz-adv-x="457" d="M136 674V222Q136 177 143 146T162 96T191 69T228 60Q249 60 266 68T296 96T314 147T321 222V674H398V234Q398 168 385 122T350 47T295 5T226 -8Q150 -8 105 46T59 225V674H136ZM229 862Q273 862 297 836T322 774Q322 739 296 713T229 687Q184 687 159 712T134 773Q134 808 159 835T229 862ZM228 826Q205 826 194 810T182 773Q182 756 194 740T228 724Q250 724 262 739T274 775Q274 795 262 810T228 826Z"  />
<glyph unicode="&#x16F;" horiz-adv-x="398" d="M344 132Q344 91 345 59T348 0H281L276 51H274Q268 42 259 32T236 13T206 -2T170 -8Q106 -8 79 39T52 178V484H129V189Q129 160 131 136T141 95T161 67T194 57Q211 57 223 64T244 81T256 102T263 121Q265 131 266 142T267 165V484H344V132ZM200 533Q157 533 132 558T107 618Q107 655 131 681T201 707Q243 707 267 682T292 619Q292 582 266 558T200 533ZM199 568Q222 568 234 583T247 620Q247 640 235 656T198 672Q176 672 165 655T153 618Q153 600 165 584T199 568Z"  />
<glyph unicode="&#x170;" horiz-adv-x="457" d="M136 674V222Q136 177 143 146T162 96T191 69T228 60Q249 60 266 68T296 96T314 147T321 222V674H398V234Q398 168 385 122T350 47T295 5T226 -8Q150 -8 105 46T59 225V674H136ZM279 818L180 719H126L198 818H279ZM406 818L307 719H253L326 818H406Z"  />
<glyph unicode="&#x171;" horiz-adv-x="398" d="M344 132Q344 91 345 59T348 0H281L276 51H274Q268 42 259 32T236 13T206 -2T170 -8Q106 -8 79 39T52 178V484H129V189Q129 160 131 136T141 95T161 67T194 57Q211 57 223 64T244 81T256 102T263 121Q265 131 266 142T267 165V484H344V132ZM258 682L154 547H110L188 682H258ZM381 682L277 547H233L312 682H381Z"  />
<glyph unicode="&#x172;" horiz-adv-x="457" d="M334 -169Q319 -180 299 -185T262 -191Q224 -191 201 -171T178 -115Q178 -86 194 -57T228 -7H216Q181 -6 152 8T103 49T71 120T59 225V674H136V222Q136 177 143 146T162 96T191 69T228 60Q249 60 266 68T296 96T314 147T321 222V674H398V234Q398 143 374 88T305 12Q278 -9 259 -39T239 -96Q239 -118 251 -127T279 -137Q303 -137 323 -126L334 -169Z"  />
<glyph unicode="&#x173;" horiz-adv-x="398" d="M344 132Q344 91 346 58T351 0H335Q323 -17 309 -45T294 -103Q294 -126 307 -137T336 -149Q350 -149 360 -147T378 -140L389 -183Q372 -196 353 -200T317 -205Q279 -205 256 -183T233 -122Q233 -103 238 -85T250 -52T266 -23T281 0L276 51H274Q268 42 259 32T236 13T206 -2T170 -8Q106 -8 79 39T52 178V484H129V189Q129 160 131 136T141 95T161 67T194 57Q211 57 223 64T244 81T256 102T263 121Q265 131 266 142T267 165V484H344V132Z"  />
<glyph unicode="&#x174;" horiz-adv-x="654" d="M150 0L20 674H100L157 349Q168 285 176 227T190 106H194Q200 170 211 227T234 350L296 674H362L424 357Q435 297 445 237T463 106H466Q474 179 483 237T502 353L558 674H633L502 0H427L362 328Q352 382 343 437T328 549H326Q318 492 310 437T289 325L222 0H150ZM362 808L450 710H382L330 765H328L276 710H210L296 808H362Z"  />
<glyph unicode="&#x175;" horiz-adv-x="566" d="M93 484L140 247Q147 208 154 170T166 93H170Q175 131 183 170T200 245L256 484H315L368 252Q377 211 385 173T399 93H403Q408 131 414 169T429 249L475 484H552L430 0H367L311 235Q302 270 296 304T284 380H282Q276 337 269 302T254 232L196 0H131L13 484H93ZM309 682L388 547H330L284 633H282L236 547H178L257 682H309Z"  />
<glyph unicode="&#x176;" horiz-adv-x="394" d="M158 0V285L10 674H91L151 505Q164 470 177 431T201 353H203Q214 392 226 430T252 508L309 674H390L235 288V0H158ZM233 808L320 710H253L201 765H199L147 710H81L167 808H233Z"  />
<glyph unicode="&#x177;" horiz-adv-x="346" d="M94 484L158 206Q165 177 169 153T178 106H180Q184 126 189 152T201 205L258 484H334L255 173Q232 81 205 -1T135 -139Q109 -171 85 -189T48 -213L20 -147Q55 -128 88 -86Q103 -67 114 -45T132 -5Q135 4 136 9T137 19Q137 24 137 28T135 37L13 484H94ZM200 682L279 547H222L175 633H173L127 547H69L148 682H200Z"  />
<glyph unicode="&#x178;" horiz-adv-x="394" d="M158 0V285L10 674H91L151 505Q164 470 177 431T201 353H203Q214 392 226 430T252 508L309 674H390L235 288V0H158ZM122 718Q104 718 92 730T79 764Q79 784 91 797T122 811Q142 811 153 798T165 764Q165 743 154 731T122 718ZM284 718Q265 718 253 730T241 764Q241 784 253 797T284 811Q304 811 315 798T327 764Q327 743 316 731T284 718Z"  />
<glyph unicode="&#x179;" horiz-adv-x="358" d="M20 46L251 605V608H39V674H337V622L110 69V66H336V0H20V46ZM326 818L201 710H140L235 818H326Z"  />
<glyph unicode="&#x17A;" horiz-adv-x="313" d="M16 47L169 346Q179 365 189 383T208 418V420H35V484H293V433L142 138Q132 119 122 101T103 66V64H293V0H16V47ZM286 682L181 547H130L207 682H286Z"  />
<glyph unicode="&#x17B;" horiz-adv-x="358" d="M20 46L251 605V608H39V674H337V622L110 69V66H336V0H20V46ZM193 721Q174 721 161 734T148 766Q148 785 161 798T193 811Q212 811 224 798T237 766Q237 748 225 735T193 721Z"  />
<glyph unicode="&#x17C;" horiz-adv-x="313" d="M16 47L169 346Q179 365 189 383T208 418V420H35V484H293V433L142 138Q132 119 122 101T103 66V64H293V0H16V47ZM161 566Q142 566 130 578T117 610Q117 630 130 642T161 655Q179 655 191 643T204 610Q204 591 192 579T161 566Z"  />
<glyph unicode="&#x17D;" horiz-adv-x="358" d="M20 46L251 605V608H39V674H337V622L110 69V66H336V0H20V46ZM156 710L69 808H136L188 750H190L242 808H308L222 710H156Z"  />
<glyph unicode="&#x17E;" horiz-adv-x="313" d="M16 47L169 346Q179 365 189 383T208 418V420H35V484H293V433L142 138Q132 119 122 101T103 66V64H293V0H16V47ZM139 547L60 682H118L164 595H166L213 682H271L192 547H139Z"  />
<glyph unicode="&#x192;" horiz-adv-x="385" d="M78 406H159L166 460Q170 497 180 532T208 596T254 641T323 658Q355 658 378 646L366 589Q346 596 323 596Q303 596 289 586T265 558T250 518T241 469L232 406H323V346H227L199 116Q193 72 184 36T157 -26T115 -66T51 -80Q10 -78 -12 -63L3 -7Q12 -12 24 -15T48 -18Q80 -18 99 15T129 133L154 346H78V406Z"  />
<glyph unicode="&#x1A0;" horiz-adv-x="446" d="M224 60Q257 60 278 85T311 150T329 239T334 339Q334 386 329 435T312 523T278 588T223 614Q190 614 169 589T135 524T117 435T112 338Q112 289 117 240T134 150T169 85T224 60ZM420 738Q427 725 431 708T436 671Q436 639 419 615T364 592Q385 555 399 495T414 342Q414 247 399 181T357 72T295 11T219 -8Q135 -8 84 80T32 338Q32 422 46 486T87 593T149 659T230 682Q248 682 266 677T301 664Q320 653 330 647T350 640Q376 640 376 672Q376 689 371 702T361 727L420 738Z"  />
<glyph unicode="&#x1A1;" horiz-adv-x="383" d="M192 430Q166 430 150 411T125 364T113 303T110 242Q110 212 113 179T126 118T151 72T194 53Q219 53 234 72T258 119T270 181T273 242Q273 270 270 302T258 363T233 411T192 430ZM373 557Q380 545 385 528T390 491Q390 456 370 436T314 414Q331 386 341 343T351 242Q351 172 336 124T298 47T247 5T190 -8Q157 -8 129 7T79 52T46 130T33 241Q33 307 46 354T82 432T134 477T195 492Q209 492 223 488T250 479Q261 474 273 468T301 462Q313 462 321 469T330 494Q330 509 326 522T315 547L373 557Z"  />
<glyph unicode="&#x1AF;" horiz-adv-x="474" d="M465 766Q472 752 476 736T480 701Q480 669 464 649T408 626L398 625V234Q398 168 385 122T350 47T295 5T226 -8Q150 -8 105 46T59 225V674H136V222Q136 177 143 146T162 96T191 69T228 60Q249 60 266 68T296 96T314 147T321 222V674H383Q403 674 411 680T419 703Q419 731 406 757L465 766Z"  />
<glyph unicode="&#x1B0;" horiz-adv-x="398" d="M405 578Q412 566 416 549T421 514Q421 484 405 463T350 440L344 439V132Q344 91 345 59T348 0H281L276 51H274Q268 42 259 32T236 13T206 -2T170 -8Q106 -8 79 39T52 178V484H129V189Q129 160 131 136T141 95T161 67T194 57Q211 57 223 64T244 81T256 102T263 121Q265 131 266 142T267 165V484H325Q345 484 352 491T360 516Q360 530 356 544T346 569L405 578Z"  />
<glyph unicode="&#x1FA;" horiz-adv-x="435" d="M222 688Q179 688 158 709T137 760Q137 789 159 812T223 835Q265 835 285 813T306 761Q306 732 285 710T222 688ZM221 722Q241 722 251 733T262 762Q262 777 252 789T221 802Q200 802 191 789T181 761Q181 746 191 734T221 722ZM382 935L246 853H181L284 935H382ZM141 202L96 0H22L176 674H261L411 0H335L290 202H141ZM280 264L245 435Q237 471 231 511T218 589H214Q208 551 201 510T187 435L152 264H280Z"  />
<glyph unicode="&#x1FB;" horiz-adv-x="364" d="M315 806L198 711H146L234 806H315ZM184 516Q142 516 117 541T91 601Q91 638 115 664T185 690Q227 690 251 665T276 602Q276 565 251 541T184 516ZM184 551Q207 551 219 566T231 603Q231 623 219 639T183 655Q160 655 149 638T138 601Q138 583 149 567T184 551ZM245 0L240 51H237Q221 23 197 8T141 -8Q92 -8 59 29T26 130Q26 175 43 208T88 263T154 295T232 306V321Q232 370 217 400T155 431Q132 431 112 424T75 406L58 460Q73 471 104 481T171 492Q244 492 277 447T310 319V110Q310 82 310 53T315 0H245ZM234 250Q219 250 197 248T153 234T116 200T101 138Q101 114 106 98T120 72T139 57T160 52Q186 52 205 70T232 125Q234 132 234 139T234 152V250Z"  />
<glyph unicode="&#x1FC;" horiz-adv-x="556" d="M8 0L211 674H515V607H329L342 381H513V316H348L362 67H541V0H293L280 222H146L83 0H8ZM274 284L265 489Q263 521 262 555T259 620H254Q245 586 235 548T215 477L162 284H274ZM475 818L351 710H290L384 818H475Z"  />
<glyph unicode="&#x1FD;" horiz-adv-x="561" d="M307 241Q307 185 316 149T340 91T375 62T420 53Q446 53 466 59T502 74L515 19Q489 2 460 -3T404 -8Q383 -8 362 -2T323 15T292 44T271 85H269Q253 42 222 17T145 -8Q94 -8 60 30T26 132Q26 176 42 208T87 261T153 292T233 302V329Q233 373 214 402T152 431Q130 431 110 424T74 406L57 459Q76 472 106 482T168 492Q206 492 237 472T279 405H281Q298 447 329 469T399 492Q434 492 459 474T501 425T524 357T532 278Q532 269 532 260T531 241H307ZM234 249Q219 249 196 246T151 232T114 198T98 137Q98 92 118 73T161 53Q185 53 205 72T231 126Q233 133 233 140T234 154V249ZM458 296Q460 366 438 399T389 433Q369 433 355 421T330 390T315 346T308 296H458ZM409 682L305 547H254L331 682H409Z"  />
<glyph unicode="&#x1FE;" horiz-adv-x="446" d="M43 -14L85 81Q32 170 32 338Q32 422 46 486T85 593T146 659T224 682Q250 682 276 673T325 641L355 711L401 691L361 600Q388 554 401 489T414 343Q414 248 399 182T358 73T297 12T223 -8Q197 -8 170 2T120 37L86 -37L43 -14ZM293 570Q280 590 262 602T223 614Q191 614 169 590T134 527T114 439T108 338Q108 300 111 257T127 172H129L293 570ZM149 110Q163 84 182 72T223 60Q256 60 277 84T312 148T331 238T337 339Q337 377 334 420T319 507H317L149 110ZM366 818L241 710H181L275 818H366Z"  />
<glyph unicode="&#x1FF;" horiz-adv-x="383" d="M192 492Q236 492 274 462L299 515L341 493L307 425Q328 394 339 349T351 242Q351 172 336 124T298 47T247 5T192 -8Q146 -8 111 20L85 -33L46 -8L77 56Q57 86 45 132T33 241Q33 307 46 354T82 432T133 477T192 492ZM243 398Q230 430 192 430Q164 430 148 411T122 362T110 301T107 242Q107 219 109 191T120 132L122 131L243 398ZM143 84Q150 70 162 62T192 53Q219 53 235 71T261 117T273 177T277 237Q277 260 275 288T265 347L263 348L143 84ZM309 682L204 547H153L230 682H309Z"  />
<glyph unicode="&#x218;" horiz-adv-x="361" d="M45 89Q62 78 89 70T142 62Q195 62 224 93T254 176Q254 223 230 254T165 316Q145 330 123 348T82 390T51 442T38 503Q38 541 51 573T87 629T143 666T216 680Q248 680 273 672T311 655L292 589Q279 598 259 605T212 612Q187 612 169 604T139 582T121 551T115 516Q115 491 121 473T140 439T171 409T214 377Q275 334 303 287T331 183Q331 139 317 105T277 45T217 7T142 -6Q107 -6 75 3T28 23L45 89ZM102 -177Q125 -170 145 -155T166 -114Q166 -95 156 -80T132 -53L195 -42Q208 -50 218 -68T229 -112Q229 -136 220 -153T195 -183T160 -203T119 -214L102 -177Z"  />
<glyph unicode="&#x219;" horiz-adv-x="289" d="M41 80Q54 72 75 64T119 55Q152 55 171 74T190 125Q190 153 178 174T128 220Q80 251 56 283T31 358Q31 387 41 411T69 454T111 482T164 492Q193 492 214 484T251 467L230 409Q216 418 201 424T166 430Q134 430 119 411T103 369Q103 344 115 327T163 285Q205 258 234 223T263 138Q263 102 252 75T220 30T174 3T118 -6Q91 -6 65 1T22 22L41 80ZM74 -177Q97 -170 117 -155T138 -114Q138 -95 128 -80T104 -53L166 -42Q179 -50 190 -68T201 -112Q201 -136 192 -153T167 -183T131 -203T90 -214L74 -177Z"  />
<glyph unicode="&#x21A;" horiz-adv-x="354" d="M139 605H16V674H339V605H216V0H139V605ZM106 -177Q129 -170 149 -155T170 -114Q170 -95 160 -80T137 -53L199 -42Q212 -50 222 -68T233 -112Q233 -136 224 -153T199 -183T164 -203T123 -214L106 -177Z"  />
<glyph unicode="&#x21B;" horiz-adv-x="255" d="M148 612V484H241V425H148V138Q148 91 163 75T199 58Q216 58 230 61L233 2Q211 -6 176 -6Q153 -6 134 0T100 23Q86 40 79 67T71 145V425H12V484H71V590L148 612ZM69 -177Q92 -170 112 -155T133 -114Q133 -95 123 -80T100 -53L162 -42Q175 -50 185 -68T196 -112Q196 -136 187 -153T162 -183T127 -203T86 -214L69 -177Z"  />
<glyph unicode="&#x21C;" horiz-adv-x="340" d="M23 -44Q63 -37 100 -20T167 26T214 93T232 179Q232 234 204 271T126 308Q110 308 95 305T64 296L52 354Q78 360 104 375T150 413T184 465T197 529Q197 567 175 592T115 618Q91 618 72 611T39 598L24 653Q41 664 71 673T133 682Q166 682 191 670T234 639T261 594T271 540Q271 479 244 433T179 364V361Q206 356 229 342T271 305T299 252T310 182Q310 119 285 68T219 -21T129 -80T32 -106L23 -44Z"  />
<glyph unicode="&#x21D;" horiz-adv-x="311" d="M13 -137Q48 -134 83 -121T148 -86T195 -31T214 45Q214 65 208 84T189 117T157 141T110 150Q95 150 82 148T53 142L43 200Q70 206 94 217T138 245T169 284T181 336Q181 379 160 403T103 427Q79 427 62 420T30 406L14 462Q31 473 59 482T119 492Q151 492 176 481T218 451T245 407T254 354Q254 299 229 262T166 204V202Q192 197 214 185T254 154T281 109T291 50Q291 -6 267 -51T203 -127T116 -177T19 -200L13 -137Z"  />
<glyph unicode="&#x232;" horiz-adv-x="394" d="M158 0V285L10 674H91L151 505Q164 470 177 431T201 353H203Q214 392 226 430T252 508L309 674H390L235 288V0H158ZM303 788V735H90V788H303Z"  />
<glyph unicode="&#x233;" horiz-adv-x="346" d="M94 484L158 206Q165 177 169 153T178 106H180Q184 126 189 152T201 205L258 484H334L255 173Q232 81 205 -1T135 -139Q109 -171 85 -189T48 -213L20 -147Q55 -128 88 -86Q103 -67 114 -45T132 -5Q135 4 136 9T137 19Q137 24 137 28T135 37L13 484H94ZM272 631V581H75V631H272Z"  />
<glyph unicode="&#x2C6;" horiz-adv-x="300" d="M176 682L255 547H198L151 633H149L103 547H45L124 682H176Z"  />
<glyph unicode="&#x2C7;" horiz-adv-x="300" d="M124 547L45 682H103L149 595H151L198 682H256L177 547H124Z"  />
<glyph unicode="&#x2C9;" horiz-adv-x="300" d="M249 631V581H52V631H249Z"  />
<glyph unicode="&#x2D8;" horiz-adv-x="300" d="M87 669Q89 641 106 624T149 607Q178 607 195 624T213 669H256Q258 619 229 588T149 556Q98 556 70 588T44 669H87Z"  />
<glyph unicode="&#x2D9;" horiz-adv-x="300" d="M151 566Q132 566 120 578T107 610Q107 630 120 642T151 655Q169 655 181 643T194 610Q194 591 182 579T151 566Z"  />
<glyph unicode="&#x2DA;" horiz-adv-x="300" d="M117 533Q74 533 49 558T24 618Q24 655 48 681T118 707Q160 707 184 682T209 619Q209 582 183 558T117 533ZM116 568Q139 568 151 583T164 620Q164 640 152 656T115 672Q93 672 82 655T70 618Q70 600 82 584T116 568Z"  />
<glyph unicode="&#x2DB;" horiz-adv-x="300" d="M177 5Q171 -4 164 -16T149 -42T138 -70T133 -97Q133 -120 146 -131T174 -143Q199 -143 217 -134L228 -177Q212 -189 193 -194T156 -199Q118 -199 95 -178T72 -118Q72 -99 77 -81T91 -46T107 -17T123 5H177Z"  />
<glyph unicode="&#x2DC;" horiz-adv-x="300" d="M42 561Q41 601 56 628T103 655Q119 655 130 650T152 638Q163 631 172 626T192 621Q203 621 209 628T217 657H258Q258 615 243 591T195 567Q181 567 169 572T146 584Q135 590 127 595T109 601Q87 601 84 561H42Z"  />
<glyph unicode="&#x2DD;" horiz-adv-x="300" d="M182 682L78 547H34L112 682H182ZM306 682L202 547H158L236 682H306Z"  />
<glyph unicode="&#x37E;" horiz-adv-x="200" d="M30 -126Q36 -104 43 -75T57 -14T68 49T75 107L161 112Q154 83 144 50T123 -15T102 -74T82 -119L30 -126ZM111 329Q88 329 74 345T59 388Q59 414 74 431T112 449Q135 449 149 433T164 388Q164 362 151 346T111 329Z"  />
<glyph unicode="&#x384;" horiz-adv-x="305" d="M176 683L120 548H75L108 683H176Z"  />
<glyph unicode="&#x385;" horiz-adv-x="350" d="M218 692L182 545H141L153 692H218ZM73 568Q55 568 43 579T30 609Q30 627 43 638T73 649Q88 649 99 638T111 609Q111 591 100 580T73 568ZM274 568Q257 568 245 579T233 609Q233 627 245 638T274 649Q291 649 303 638T315 609Q315 591 303 580T274 568Z"  />
<glyph unicode="&#x386;" horiz-adv-x="444" d="M110 674L81 526H40L44 674H110ZM150 202L105 0H31L185 674H270L420 0H344L299 202H150ZM289 264L254 435Q246 471 240 511T227 589H223Q217 551 210 510T196 435L161 264H289Z"  />
<glyph unicode="&#x387;" horiz-adv-x="200" d="M100 257Q77 257 61 274T45 320Q45 347 61 365T100 383Q125 383 140 366T155 320Q155 291 141 274T100 257Z"  />
<glyph unicode="&#x388;" horiz-adv-x="406" d="M70 674L41 526H0L4 674H70ZM358 320H189V67H381V0H112V674H369V607H189V385H358V320Z"  />
<glyph unicode="&#x389;" horiz-adv-x="515" d="M70 674L41 526H0L4 674H70ZM189 674V385H378V674H455V0H378V315H189V0H112V674H189Z"  />
<glyph unicode="&#x38A;" horiz-adv-x="249" d="M70 674L41 526H0L4 674H70ZM189 674V0H112V674H189Z"  />
<glyph unicode="&#x38C;" horiz-adv-x="482" d="M70 674L41 526H0L4 674H70ZM266 682Q353 682 401 593T450 342Q450 247 435 181T394 72T332 11T255 -8Q171 -8 120 80T68 338Q68 422 82 486T123 593T185 659T266 682ZM260 614Q228 614 207 590T172 527T154 438T148 337Q148 285 153 235T172 146T207 84T261 60Q294 60 315 85T348 150T365 239T370 339Q370 386 365 435T348 523T314 588T260 614Z"  />
<glyph unicode="&#x38E;" horiz-adv-x="514" d="M70 674L41 526H0L4 674H70ZM111 680Q120 679 144 669T190 638Q232 600 263 527T302 354H305Q316 450 348 517T414 621Q439 648 463 663T496 680L513 613Q488 600 463 573T415 507T375 414T347 297Q343 269 340 240T337 179V0H261V179Q261 211 259 240T254 295Q236 434 194 512T96 615L111 680Z"  />
<glyph unicode="&#x38F;" horiz-adv-x="504" d="M70 674L41 526H0L4 674H70ZM64 0V66H163V69Q125 121 99 200T72 373Q72 446 87 503T129 600T193 661T274 682Q318 682 353 661T412 599T450 503T463 378Q463 279 436 199T372 69V66H471V0H294V52Q315 76 332 110T360 184T377 269T383 359Q383 402 377 447T358 529T323 590T268 614Q235 614 213 591T178 531T158 449T152 362Q152 320 158 275T177 187T205 109T241 52V0H64Z"  />
<glyph unicode="&#x390;" horiz-adv-x="188" d="M147 683L112 538H71L84 683H147ZM5 562Q-12 562 -24 573T-37 602Q-37 620 -25 631T5 642Q20 642 31 632T43 602Q43 585 32 574T5 562ZM202 562Q186 562 174 573T162 602Q162 620 174 631T202 642Q219 642 231 632T243 602Q243 585 231 574T202 562ZM131 101Q131 72 139 62T167 52L161 -5Q146 -8 132 -8Q118 -8 104 -5T79 10T61 42T54 96V484H131V101Z"  />
<glyph unicode="&#x391;" horiz-adv-x="435" d="M141 202L96 0H22L176 674H261L411 0H335L290 202H141ZM280 264L245 435Q237 471 231 511T218 589H214Q208 551 201 510T187 435L152 264H280Z"  />
<glyph unicode="&#x392;" horiz-adv-x="416" d="M60 664Q84 670 112 673T173 677Q219 677 257 667T322 630Q366 589 366 515Q366 463 339 424T262 365V363Q321 347 354 302T387 191Q387 149 375 116T339 57Q310 25 265 11T161 -4Q123 -4 100 -2T60 3V664ZM137 388H172Q196 388 217 396T254 421T279 458T289 507Q289 530 283 550T264 585T230 608T178 617Q152 617 137 612V388ZM137 61Q144 59 153 58T176 57Q236 57 272 91T308 191Q308 226 297 251T267 294T223 320T171 329H137V61Z"  />
<glyph unicode="&#x393;" horiz-adv-x="331" d="M318 674V609H137V0H60V674H318Z"  />
<glyph unicode="&#x394;" horiz-adv-x="436" d="M24 44L177 674H262L413 45V0H24V44ZM335 68L252 417Q243 458 234 504T219 589H216Q210 551 201 506T183 419L101 68H335Z"  />
<glyph unicode="&#x395;" horiz-adv-x="354" d="M306 320H137V67H329V0H60V674H317V607H137V385H306V320Z"  />
<glyph unicode="&#x396;" horiz-adv-x="358" d="M20 46L251 605V608H39V674H337V622L110 69V66H336V0H20V46Z"  />
<glyph unicode="&#x397;" horiz-adv-x="463" d="M137 674V385H326V674H403V0H326V315H137V0H60V674H137Z"  />
<glyph unicode="&#x398;" horiz-adv-x="449" d="M221 -8Q136 -8 84 79T32 338Q32 422 46 486T87 593T150 659T231 682Q319 682 368 593T417 342Q417 247 402 181T360 72T298 11T221 -8ZM225 59Q258 59 280 84T315 149T333 239T338 339Q338 387 333 436T315 524T280 589T225 615Q192 615 170 590T135 525T117 436T111 338Q111 288 116 239T135 149T170 84T225 59ZM299 382V312H150V382H299Z"  />
<glyph unicode="&#x399;" horiz-adv-x="199" d="M137 674V0H60V674H137Z"  />
<glyph unicode="&#x39A;" horiz-adv-x="404" d="M60 674H137V354H139Q161 396 181 435L307 674H392L227 386L396 0H313L175 325L137 260V0H60V674Z"  />
<glyph unicode="&#x39B;" horiz-adv-x="434" d="M333 0L246 405Q238 449 231 491T216 580H212Q200 487 184 404L99 0H21L176 674H257L412 0H333Z"  />
<glyph unicode="&#x39C;" horiz-adv-x="599" d="M468 290Q464 357 462 427T461 554H457Q446 497 433 439T403 320L320 4H271L192 307Q175 372 161 433T137 554H134Q134 494 132 426T126 285L113 0H44L84 674H167L246 366Q263 299 276 246T300 134H303Q308 163 313 190T325 244T338 302T353 366L429 674H515L554 0H482L468 290Z"  />
<glyph unicode="&#x39D;" horiz-adv-x="465" d="M60 0V674H133L257 358Q278 304 302 241T343 123H345Q343 163 341 200T338 274T337 350T336 433V674H405V0H332L204 324Q184 375 163 432T124 553H122Q124 519 125 485T128 413T129 331T130 233V0H60Z"  />
<glyph unicode="&#x39E;" horiz-adv-x="362" d="M326 674V607H35V674H326ZM307 383V317H53V383H307ZM333 67V0H29V67H333Z"  />
<glyph unicode="&#x39F;" horiz-adv-x="446" d="M230 682Q317 682 365 593T414 342Q414 247 399 181T357 72T295 11T219 -8Q135 -8 84 80T32 338Q32 422 46 486T87 593T149 659T230 682ZM223 614Q191 614 170 590T136 527T118 438T112 337Q112 285 117 235T136 146T170 84T224 60Q257 60 278 85T311 150T329 239T334 339Q334 386 329 435T312 523T278 588T223 614Z"  />
<glyph unicode="&#x3A0;" horiz-adv-x="451" d="M391 0H314V604H137V0H60V674H391V0Z"  />
<glyph unicode="&#x3A1;" horiz-adv-x="399" d="M60 664Q83 670 111 673T172 677Q219 677 257 665T321 627Q346 603 358 568T371 488Q371 441 361 409T330 350Q302 312 259 294T171 275Q161 275 153 275T137 276V0H60V664ZM137 341Q150 338 167 338Q224 338 259 374T294 483Q294 509 288 532T269 574T234 603T180 614Q154 614 137 609V341Z"  />
<glyph unicode="&#x3A3;" horiz-adv-x="407" d="M106 67H378V0H16V51L189 336L26 623V674H356V608H120V604L269 340L106 71V67Z"  />
<glyph unicode="&#x3A4;" horiz-adv-x="354" d="M139 605H16V674H339V605H216V0H139V605Z"  />
<glyph unicode="&#x3A5;" horiz-adv-x="425" d="M22 680Q26 680 35 677T55 669T78 656T101 638Q142 600 173 527T212 354H216Q226 450 258 517T325 621Q350 648 374 663T407 680L423 613Q398 600 373 573T326 507T286 414T258 297Q253 269 251 240T248 179V0H171V179Q171 242 165 295Q147 434 105 512T6 615L22 680Z"  />
<glyph unicode="&#x3A6;" horiz-adv-x="504" d="M287 -13H216V37Q183 42 150 60T91 115T47 205T30 338Q30 412 46 466T89 558T149 615T217 640V687H288V640Q327 635 360 614T419 554T459 463T474 342Q474 265 458 210T416 117T356 61T287 37V-13ZM217 582Q196 578 177 561T142 513T117 438T108 335Q108 283 116 242T140 170T175 121T217 95V582ZM287 95Q336 105 366 167T396 342Q396 399 386 442T360 516T325 562T287 582V95Z"  />
<glyph unicode="&#x3A7;" horiz-adv-x="392" d="M297 0L236 162Q225 190 216 217T195 280H192Q181 246 171 217T151 160L93 0H14L153 344L19 674H99L159 518Q169 495 178 470T199 411H201Q212 446 220 471T237 521L292 674H371L239 346L378 0H297Z"  />
<glyph unicode="&#x3A8;" horiz-adv-x="515" d="M472 487Q472 359 427 293T293 214V0H222V214Q134 227 89 288T43 470V674H115V474Q115 378 141 331T223 275V674H292V275Q348 282 374 334T400 490V674H472V487Z"  />
<glyph unicode="&#x3A9;" horiz-adv-x="472" d="M32 0V66H131V69Q94 121 67 200T40 373Q40 446 55 503T98 600T162 661T243 682Q286 682 321 661T380 599T418 503T431 378Q431 279 404 199T340 69V66H439V0H262V52Q284 76 300 110T328 184T345 269T351 359Q351 402 346 447T327 529T291 590T236 614Q203 614 181 591T146 531T126 449T120 362Q120 320 126 275T145 187T173 109T209 52V0H32Z"  />
<glyph unicode="&#x3AA;" horiz-adv-x="199" d="M23 710Q4 710 -8 722T-21 754Q-21 774 -9 786T23 798Q40 798 52 786T65 754Q65 735 53 723T23 710ZM177 710Q159 710 146 722T133 754Q133 774 146 786T177 798Q195 798 207 786T219 754Q219 735 207 723T177 710ZM137 674V0H60V674H137Z"  />
<glyph unicode="&#x3AB;" horiz-adv-x="425" d="M141 697Q122 697 110 709T97 741Q97 761 110 773T141 785Q159 785 171 773T183 741Q183 722 171 710T141 697ZM296 697Q277 697 265 709T252 741Q252 761 264 773T296 785Q313 785 325 773T338 741Q338 722 326 710T296 697ZM22 680Q26 680 35 677T55 669T78 656T101 638Q142 600 173 527T212 354H216Q226 450 258 517T325 621Q350 648 374 663T407 680L423 613Q398 600 373 573T326 507T286 414T258 297Q253 269 251 240T248 179V0H171V179Q171 242 165 295Q147 434 105 512T6 615L22 680Z"  />
<glyph unicode="&#x3AC;" horiz-adv-x="397" d="M275 675L220 540H175L208 675H275ZM350 484Q348 473 346 438T343 352T340 236T339 104Q339 79 346 65T371 51L363 -6Q358 -8 354 -8T344 -8Q320 -8 302 8T280 71H276Q271 58 263 44T241 19T211 0T173 -8Q110 -8 72 55T33 230Q33 294 47 343T83 425T132 475T187 492Q215 492 238 477T277 420H281Q285 457 291 484H350ZM110 233Q110 198 115 167T131 110T155 71T188 56Q214 56 234 85T262 163Q264 184 265 204T266 244Q266 267 266 283T264 317Q262 363 243 395T196 427Q176 427 160 411T133 369T116 307T110 233Z"  />
<glyph unicode="&#x3AD;" horiz-adv-x="324" d="M255 675L199 540H154L187 675H255ZM306 16Q286 4 255 -2T192 -8Q161 -8 132 0T81 25T46 70T32 135Q32 160 40 181T63 219T96 245T133 260V264Q98 274 77 300T55 366Q55 390 65 413T94 453T142 481T206 492Q234 492 257 486T294 469L279 414Q268 420 251 425T209 430Q170 430 150 409T130 361Q130 341 139 327T164 305T199 292T239 288H254V231H235Q210 231 188 226T148 210T121 182T111 141Q111 99 139 77T206 54Q236 54 261 61T296 74L306 16Z"  />
<glyph unicode="&#x3AE;" horiz-adv-x="405" d="M275 675L219 540H174L207 675H275ZM54 0V359Q54 397 51 430T41 484H108Q113 473 116 458T121 426H123Q139 455 167 473T234 492Q284 492 317 453T351 325V-38Q351 -84 352 -125T359 -192H288Q274 -155 274 -52V312Q274 333 272 354T262 391T241 417T207 427Q183 427 163 407T134 348Q131 330 131 305V0H54Z"  />
<glyph unicode="&#x3AF;" horiz-adv-x="188" d="M168 676L112 541H64L97 676H168ZM131 101Q131 72 139 62T167 52L161 -5Q146 -8 132 -8Q118 -8 104 -5T79 10T61 42T54 96V484H131V101Z"  />
<glyph unicode="&#x3B0;" horiz-adv-x="377" d="M228 682L193 537H152L165 682H228ZM85 560Q68 560 55 571T42 601Q42 619 55 630T85 641Q100 641 111 630T123 601Q123 583 112 572T85 560ZM284 560Q268 560 256 571T244 601Q244 619 256 630T284 641Q301 641 313 630T325 601Q325 583 313 572T284 560ZM310 484Q322 455 331 404T341 291Q341 233 334 179T309 84T259 17T180 -8Q120 -8 85 30T49 140V323Q49 373 48 417T41 484H115Q121 473 123 447T125 386V149Q125 101 143 79T186 57Q208 57 223 72T248 116T261 185T265 274Q265 343 257 399T237 484H310Z"  />
<glyph unicode="&#x3B1;" horiz-adv-x="397" d="M350 484Q348 473 346 438T343 352T340 236T339 104Q339 79 346 65T371 51L363 -6Q358 -8 354 -8T344 -8Q320 -8 302 8T280 71H276Q271 58 263 44T241 19T211 0T173 -8Q110 -8 72 55T33 230Q33 294 47 343T83 425T132 475T187 492Q215 492 238 477T277 420H281Q285 457 291 484H350ZM110 233Q110 198 115 167T131 110T155 71T188 56Q214 56 234 85T262 163Q264 184 265 204T266 244Q266 267 266 283T264 317Q262 363 243 395T196 427Q176 427 160 411T133 369T116 307T110 233Z"  />
<glyph unicode="&#x3B2;" horiz-adv-x="404" d="M128 28V-38Q128 -84 130 -125T137 -192H67Q53 -155 53 -53V465Q53 538 65 582T104 657Q125 680 149 690T203 700Q237 700 262 686T304 647T329 593T337 532Q337 500 330 475T312 431T286 399T257 378V374Q276 368 296 355T333 320T360 266T371 189Q371 142 359 106T326 44T278 5T219 -8Q190 -8 167 2T130 28H128ZM128 105Q146 75 167 66T207 56Q228 56 244 67T272 96T289 138T295 190Q295 256 266 294T190 337Q185 338 182 338T175 338V398Q179 398 182 398T189 400Q220 408 241 438T263 528Q263 544 260 562T249 597T229 625T200 636Q162 636 145 593T128 481V105Z"  />
<glyph unicode="&#x3B3;" horiz-adv-x="339" d="M125 -192Q126 -138 126 -95T124 -12T116 63T101 139Q76 248 48 337T-5 484H76Q86 457 99 416T126 327T151 223T171 112H174Q186 147 198 189T221 276T237 363T244 444Q244 455 244 464T244 484H314Q315 479 315 470T316 450Q316 409 308 360T284 258T248 149T202 38Q197 27 197 15Q199 -33 199 -85T199 -192H125Z"  />
<glyph unicode="&#x3B4;" horiz-adv-x="390" d="M315 607Q301 616 277 627T223 639Q198 639 186 627T173 599Q173 582 185 563T218 516L277 441Q308 401 332 349T356 231Q356 174 344 130T309 55T257 8T193 -8Q160 -8 131 7T80 52T46 124T33 222Q33 268 44 306T75 375T117 429T163 467V471L150 487Q143 496 134 509T117 537T103 568T97 599Q97 616 104 634T126 666T164 690T221 700Q261 700 290 688T338 658L315 607ZM201 423Q156 390 133 341T110 221Q110 179 117 148T137 95T165 64T196 53Q216 53 231 65T257 100T273 153T279 220Q279 278 265 318T225 391L201 423Z"  />
<glyph unicode="&#x3B5;" horiz-adv-x="324" d="M306 16Q286 4 255 -2T192 -8Q161 -8 132 0T81 25T46 70T32 135Q32 160 40 181T63 219T96 245T133 260V264Q98 274 77 300T55 366Q55 390 65 413T94 453T142 481T206 492Q234 492 257 486T294 469L279 414Q268 420 251 425T209 430Q170 430 150 409T130 361Q130 341 139 327T164 305T199 292T239 288H254V231H235Q210 231 188 226T148 210T121 182T111 141Q111 99 139 77T206 54Q236 54 261 61T296 74L306 16Z"  />
<glyph unicode="&#x3B6;" horiz-adv-x="314" d="M196 -114Q213 -85 221 -57T232 -12Q212 -7 192 -1T146 18Q124 28 104 44T68 86T43 144T33 220Q33 274 47 331T87 441T147 543T221 628V631H175Q149 631 125 633T85 640L94 695Q113 693 140 693T194 692H304L318 638Q280 612 243 568T177 470T129 356T111 239Q111 200 118 172T137 123T166 90T203 68Q225 58 251 52T300 40Q308 38 308 28Q308 7 303 -15T290 -59T271 -99T250 -130L196 -114Z"  />
<glyph unicode="&#x3B7;" horiz-adv-x="405" d="M54 0V359Q54 397 51 430T41 484H108Q113 473 116 458T121 426H123Q139 455 167 473T234 492Q284 492 317 453T351 325V-38Q351 -84 352 -125T359 -192H288Q274 -155 274 -52V312Q274 333 272 354T262 391T241 417T207 427Q183 427 163 407T134 348Q131 330 131 305V0H54Z"  />
<glyph unicode="&#x3B8;" horiz-adv-x="382" d="M190 -8Q158 -8 130 8T80 66T46 177T33 353Q33 451 47 517T85 624T136 682T194 700Q225 700 253 682T303 624T336 517T349 353Q349 240 336 170T300 60T249 6T190 -8ZM275 387Q275 444 270 490T253 570T226 622T190 640Q172 640 157 622T131 571T114 491T107 387H275ZM107 325Q108 191 130 122T192 52Q236 52 255 124T275 325H107Z"  />
<glyph unicode="&#x3B9;" horiz-adv-x="188" d="M131 101Q131 72 139 62T167 52L161 -5Q146 -8 132 -8Q118 -8 104 -5T79 10T61 42T54 96V484H131V101Z"  />
<glyph unicode="&#x3BA;" horiz-adv-x="370" d="M55 0V368Q55 410 53 439T45 484H118Q124 475 127 456T131 401V266H134Q153 294 173 325T211 386T246 441T273 484H356V481Q324 435 288 384T201 262V259Q217 253 232 237T259 199T283 155T305 110L359 0H274L223 111Q214 132 204 152T183 187T161 211T139 221H131V0H55Z"  />
<glyph unicode="&#x3BB;" horiz-adv-x="337" d="M192 259Q187 283 182 308T169 373H166Q161 344 156 318T144 261L83 0H7L128 452Q130 458 130 463T130 474Q130 479 129 489T125 507Q105 580 82 608T32 636Q30 636 28 636T21 635L29 698Q39 700 52 700Q84 700 107 685T148 642T179 575T204 489L327 0H250L192 259Z"  />
<glyph unicode="&#x3BC;" horiz-adv-x="399" d="M279 50Q275 42 267 33T248 16T224 3T195 -3Q174 -3 157 4T127 33V-38Q127 -84 129 -125T136 -192H66Q60 -174 57 -138T53 -46V484H130V165Q130 143 133 124T143 89T162 65T194 56Q212 56 224 63T245 80T258 101T265 121Q267 130 268 141T269 165V484H345V104Q345 78 351 64T376 50L368 -5Q357 -8 343 -8Q321 -8 305 5T281 50H279Z"  />
<glyph unicode="&#x3BD;" horiz-adv-x="333" d="M84 484L140 212Q145 187 150 156T161 90H164Q174 122 187 168T211 265T231 364T239 451Q239 458 239 467T239 484H309Q310 478 310 470T311 453Q311 409 300 354T271 238T231 116T187 0H118L6 484H84Z"  />
<glyph unicode="&#x3BE;" horiz-adv-x="328" d="M278 354H261Q229 352 202 342T154 314T123 269T111 210Q111 179 119 156T143 115T177 86T218 66Q237 59 259 53T312 40Q322 39 322 28Q322 8 317 -14T303 -58T285 -98T265 -129L210 -114Q227 -85 235 -56T246 -12Q204 -2 165 13T97 53T51 113T33 200Q33 270 68 318T161 388V393Q118 413 95 450T71 534Q71 570 82 600T116 653T168 687T236 700Q262 700 282 695T316 681L302 624Q293 628 278 633T239 638Q213 638 196 628T168 603T152 569T147 534Q147 507 156 486T181 449T218 426T262 415Q266 415 270 415T278 414V354Z"  />
<glyph unicode="&#x3BF;" horiz-adv-x="383" d="M195 492Q227 492 255 477T305 430T338 352T351 242Q351 172 336 124T298 47T247 5T190 -8Q157 -8 129 7T79 52T46 130T33 241Q33 307 46 354T82 432T134 477T195 492ZM192 430Q166 430 150 411T125 364T113 303T110 242Q110 212 113 179T126 118T151 72T194 53Q219 53 234 72T258 119T270 181T273 242Q273 270 270 302T258 363T233 411T192 430Z"  />
<glyph unicode="&#x3C0;" horiz-adv-x="400" d="M333 420V117Q333 72 335 45T343 0H271Q265 11 261 41T257 116V420H158Q158 372 155 314T145 198T129 88T108 0H37Q49 39 57 91T72 199T81 313T84 420Q61 420 46 419T23 415L12 462Q21 471 49 477T128 484H387L380 420H333Z"  />
<glyph unicode="&#x3C1;" horiz-adv-x="395" d="M62 -192Q50 -156 50 -54V244Q50 287 54 318T65 373T82 413T103 442Q123 468 150 480T204 492Q279 492 321 428T363 243Q363 177 350 130T316 52T267 7T210 -8Q180 -8 160 6T129 39H127V-38Q127 -84 128 -125T133 -192H62ZM127 168Q127 158 127 148T131 130Q136 107 144 93T162 70T180 59T197 56Q222 56 238 72T265 114T280 175T285 245Q285 281 281 313T267 371T241 410T203 425Q188 425 175 417T151 389T134 339T127 264V168Z"  />
<glyph unicode="&#x3C2;" horiz-adv-x="306" d="M279 418Q258 426 235 426Q203 426 180 410T141 367T119 307T111 240Q111 181 129 138T201 68Q218 60 237 54T285 39Q292 36 292 30Q292 8 287 -15T274 -59T255 -99T234 -130L180 -114Q199 -85 207 -57T217 -13Q198 -7 179 0T146 14Q98 39 66 93T33 233Q33 286 47 333T88 415T151 471T236 492Q271 492 294 479L279 418Z"  />
<glyph unicode="&#x3C3;" horiz-adv-x="383" d="M367 432Q353 431 333 432T286 436L285 433Q302 416 313 394T332 346T343 294T346 242Q346 172 332 125T294 48T243 5T189 -8Q157 -8 129 7T79 52T46 130T33 241Q33 307 46 354T83 432T135 477T197 492H371L367 432ZM191 53Q215 53 230 72T254 119T266 181T269 242Q269 270 266 302T253 363T229 411T190 430Q165 430 150 411T125 364T113 303T110 242Q110 212 113 179T126 118T150 72T191 53Z"  />
<glyph unicode="&#x3C4;" horiz-adv-x="304" d="M240 -3Q233 -5 225 -6T203 -8Q175 -8 157 3T129 33T115 77T111 129V420H69Q47 420 34 417T12 410L0 460Q6 468 28 476T88 484H300L291 420H188V126Q188 104 191 90T200 68T213 56T226 53Q231 53 235 53T243 54L240 -3Z"  />
<glyph unicode="&#x3C5;" horiz-adv-x="377" d="M310 484Q322 455 331 404T341 291Q341 233 334 179T309 84T259 17T180 -8Q120 -8 85 30T49 140V323Q49 373 48 417T41 484H115Q121 473 123 447T125 386V149Q125 101 143 79T186 57Q208 57 223 72T248 116T261 185T265 274Q265 343 257 399T237 484H310Z"  />
<glyph unicode="&#x3C6;" horiz-adv-x="491" d="M184 453Q153 420 131 369T109 248Q109 212 115 180T134 123T166 80T210 56V363Q210 398 218 422T239 461T269 483T305 490Q333 490 360 474T409 428T444 354T458 254Q458 192 443 146T402 68T346 19T282 -2V-192H210V-2Q183 1 152 15T95 58T51 132T33 245Q33 294 44 334T72 405T108 457T143 491L184 453ZM281 55Q308 59 327 77T358 122T376 182T382 250Q382 292 375 325T357 381T333 417T310 429Q298 429 290 418T281 374V55Z"  />
<glyph unicode="&#x3C7;" horiz-adv-x="339" d="M89 484L172 226H176Q183 253 189 276T204 326L256 484H330L208 157L328 -185L257 -203L162 86H160Q153 57 145 26T127 -35L73 -203L5 -187L127 159L11 484H89Z"  />
<glyph unicode="&#x3C8;" horiz-adv-x="487" d="M210 -8Q182 -4 153 6T100 40T61 107T46 219V367Q46 402 46 432T41 484H109Q113 473 115 447T117 386V235Q117 184 124 150T143 95T173 63T211 49V585H282V49Q308 52 326 72T356 126T373 203T379 294Q379 365 372 415T357 484H423Q434 460 442 411T451 304Q451 238 442 183T413 87T361 21T283 -8V-192H210V-8Z"  />
<glyph unicode="&#x3C9;" horiz-adv-x="521" d="M295 142Q295 130 298 115T307 88T323 66T346 57Q374 57 392 102T411 241Q411 321 391 383T344 481V484H414Q427 471 440 447T464 392T481 322T488 241Q488 121 449 57T349 -8Q315 -8 294 12T262 62H259Q248 33 225 13T164 -8Q139 -8 116 5T74 48T44 123T33 232Q33 278 40 318T58 391T82 447T107 484H176V481Q150 446 130 386T109 237Q109 143 128 100T174 57Q187 57 197 65T213 87T222 115T225 143L224 333H296L295 142Z"  />
<glyph unicode="&#x3CA;" horiz-adv-x="188" d="M16 558Q-4 558 -16 570T-29 603Q-29 623 -16 635T16 648Q34 648 46 636T59 603Q59 583 47 571T16 558ZM170 558Q151 558 139 570T126 603Q126 623 138 635T170 648Q189 648 201 636T213 603Q213 583 201 571T170 558ZM131 101Q131 72 139 62T167 52L161 -5Q146 -8 132 -8Q118 -8 104 -5T79 10T61 42T54 96V484H131V101Z"  />
<glyph unicode="&#x3CB;" horiz-adv-x="377" d="M104 558Q84 558 72 570T59 603Q59 623 72 635T104 648Q122 648 134 636T146 603Q146 583 134 571T104 558ZM258 558Q239 558 226 570T213 603Q213 623 226 635T258 648Q277 648 289 636T301 603Q301 583 289 571T258 558ZM310 484Q322 455 331 404T341 291Q341 233 334 179T309 84T259 17T180 -8Q120 -8 85 30T49 140V323Q49 373 48 417T41 484H115Q121 473 123 447T125 386V149Q125 101 143 79T186 57Q208 57 223 72T248 116T261 185T265 274Q265 343 257 399T237 484H310Z"  />
<glyph unicode="&#x3CC;" horiz-adv-x="383" d="M262 675L207 540H162L194 675H262ZM195 492Q227 492 255 477T305 430T338 352T351 242Q351 172 336 124T298 47T247 5T190 -8Q157 -8 129 7T79 52T46 130T33 241Q33 307 46 354T82 432T134 477T195 492ZM192 430Q166 430 150 411T125 364T113 303T110 242Q110 212 113 179T126 118T151 72T194 53Q219 53 234 72T258 119T270 181T273 242Q273 270 270 302T258 363T233 411T192 430Z"  />
<glyph unicode="&#x3CD;" horiz-adv-x="377" d="M258 676L203 541H155L188 676H258ZM310 484Q322 455 331 404T341 291Q341 233 334 179T309 84T259 17T180 -8Q120 -8 85 30T49 140V323Q49 373 48 417T41 484H115Q121 473 123 447T125 386V149Q125 101 143 79T186 57Q208 57 223 72T248 116T261 185T265 274Q265 343 257 399T237 484H310Z"  />
<glyph unicode="&#x3CE;" horiz-adv-x="521" d="M337 675L282 540H237L269 675H337ZM295 142Q295 130 298 115T307 88T323 66T346 57Q374 57 392 102T411 241Q411 321 391 383T344 481V484H414Q427 471 440 447T464 392T481 322T488 241Q488 121 449 57T349 -8Q315 -8 294 12T262 62H259Q248 33 225 13T164 -8Q139 -8 116 5T74 48T44 123T33 232Q33 278 40 318T58 391T82 447T107 484H176V481Q150 446 130 386T109 237Q109 143 128 100T174 57Q187 57 197 65T213 87T222 115T225 143L224 333H296L295 142Z"  />
<glyph unicode="&#x401;" horiz-adv-x="354" d="M306 320H137V67H329V0H60V674H317V607H137V385H306V320ZM109 725Q90 725 78 737T66 771Q66 791 78 804T109 818Q129 818 140 805T152 771Q152 750 141 738T109 725ZM271 725Q252 725 240 737T228 771Q228 791 240 804T271 818Q291 818 302 805T314 771Q314 750 303 738T271 725Z"  />
<glyph unicode="&#x402;" horiz-adv-x="486" d="M372 674V604H214V412H216Q231 421 252 428T297 435Q337 435 371 412T426 344Q448 298 453 254T459 166Q459 107 445 52T401 -45Q374 -83 344 -102T290 -129L271 -65Q316 -46 346 4Q379 57 379 170Q379 215 374 249T354 313Q342 339 321 353T273 368Q242 368 214 349V0H137V604H16V674H372Z"  />
<glyph unicode="&#x403;" horiz-adv-x="339" d="M324 674V607H137V0H60V674H324ZM316 818L191 710H130L225 818H316Z"  />
<glyph unicode="&#x404;" horiz-adv-x="384" d="M338 596Q327 603 310 607T275 612Q228 612 197 588T146 529T119 452T110 377H314V310H111Q112 274 120 231T146 150T195 88T273 63Q296 63 317 67T353 78L366 15Q351 8 326 1T268 -7Q206 -7 162 20T88 95T46 205T32 339Q32 396 44 456T84 567T158 649T272 681Q303 681 321 675T355 661L338 596Z"  />
<glyph unicode="&#x405;" horiz-adv-x="361" d="M45 89Q62 78 89 70T142 62Q195 62 224 93T254 176Q254 223 230 254T165 316Q145 330 123 348T82 390T51 442T38 503Q38 541 51 573T87 629T143 666T216 680Q248 680 273 672T311 655L292 589Q279 598 259 605T212 612Q187 612 169 604T139 582T121 551T115 516Q115 491 121 473T140 439T171 409T214 377Q275 334 303 287T331 183Q331 139 317 105T277 45T217 7T142 -6Q107 -6 75 3T28 23L45 89Z"  />
<glyph unicode="&#x406;" horiz-adv-x="199" d="M137 674V0H60V674H137Z"  />
<glyph unicode="&#x407;" horiz-adv-x="199" d="M137 674V0H60V674H137ZM19 725Q0 725 -12 737T-24 771Q-24 791 -12 804T19 818Q39 818 50 805T62 771Q62 750 51 738T19 725ZM181 725Q162 725 150 737T137 771Q137 791 149 804T181 818Q201 818 212 805T224 771Q224 750 213 738T181 725Z"  />
<glyph unicode="&#x408;" horiz-adv-x="265" d="M134 674H211V190Q211 133 200 95T169 34T119 2T53 -8Q39 -8 26 -7T3 -1L10 64Q18 62 27 61T47 60Q68 60 84 65T111 84T128 124T134 189V674Z"  />
<glyph unicode="&#x409;" horiz-adv-x="635" d="M354 674V406Q365 408 378 408T405 409Q451 409 488 395T551 355T591 291T606 209Q606 163 594 128T558 65Q529 32 484 14T378 -4Q340 -4 317 -2T278 3V607H152V376Q152 311 150 254T139 150T114 68T69 13Q56 4 40 -1T9 -7L-7 57Q2 60 12 65T30 77Q58 103 69 171T80 367V674H354ZM354 62Q364 60 373 60T393 59Q459 59 493 101T527 206Q527 268 491 306T392 345Q375 345 354 342V62Z"  />
<glyph unicode="&#x40A;" horiz-adv-x="669" d="M137 674V394H311V674H387V402Q411 405 438 405Q483 405 520 392T584 353T624 291T639 209Q639 163 627 128T591 65Q562 32 517 14T411 -4Q374 -4 350 -2T311 3V326H137V0H60V674H137ZM387 62Q397 60 406 60T426 59Q459 59 484 70T526 100T551 147T560 205Q560 268 524 304T425 341Q408 341 387 338V62Z"  />
<glyph unicode="&#x40B;" horiz-adv-x="501" d="M362 674V604H212V398H214Q234 412 260 423T318 435Q350 435 373 424T412 393Q431 369 439 336T448 264V0H372V256Q372 286 368 307T351 344Q333 370 293 370Q268 370 247 361T212 340V0H135V604H16V674H362Z"  />
<glyph unicode="&#x40C;" horiz-adv-x="391" d="M136 674V368H150L294 674H377L212 358Q243 351 264 335T300 297T324 246T339 187Q350 139 359 92T384 0H306Q294 33 285 79T267 168Q261 198 253 224T232 270T198 300T148 311H136V0H60V674H136ZM338 813L214 705H153L248 813H338Z"  />
<glyph unicode="&#x40E;" horiz-adv-x="369" d="M88 674L168 400Q178 368 185 340T199 283H202Q208 308 214 339T227 402L287 674H365L285 374Q277 346 268 311T247 238T221 161T190 89Q167 45 134 19T63 -8Q40 -8 27 -4L31 59Q41 57 51 57Q72 57 89 70T119 101T142 142T157 182Q163 200 156 221L5 674H88ZM131 791Q134 769 146 752T187 735Q216 735 228 751T244 791H300Q287 694 187 694Q138 694 109 717T74 791H131Z"  />
<glyph unicode="&#x40F;" horiz-adv-x="458" d="M137 674V67H322V674H398V0H266L261 -143H197L192 0H60V674H137Z"  />
<glyph unicode="&#x410;" horiz-adv-x="435" d="M141 202L96 0H22L176 674H261L411 0H335L290 202H141ZM280 264L245 435Q237 471 231 511T218 589H214Q208 551 201 510T187 435L152 264H280Z"  />
<glyph unicode="&#x411;" horiz-adv-x="418" d="M346 674V607H137V405Q160 409 188 409Q233 409 269 396T332 356Q359 330 374 294T389 209Q389 118 341 64Q282 -4 161 -4Q123 -4 100 -2T60 3V674H346ZM137 62Q147 60 156 60T176 59Q211 59 236 71T279 105Q310 145 310 205Q310 265 274 304Q257 323 232 334T175 345Q156 345 137 342V62Z"  />
<glyph unicode="&#x412;" horiz-adv-x="416" d="M60 664Q84 670 112 673T173 677Q219 677 257 667T322 630Q366 589 366 515Q366 463 339 424T262 365V363Q321 347 354 302T387 191Q387 149 375 116T339 57Q310 25 265 11T161 -4Q123 -4 100 -2T60 3V664ZM137 388H172Q196 388 217 396T254 421T279 458T289 507Q289 530 283 550T264 585T230 608T178 617Q152 617 137 612V388ZM137 61Q144 59 153 58T176 57Q236 57 272 91T308 191Q308 226 297 251T267 294T223 320T171 329H137V61Z"  />
<glyph unicode="&#x413;" horiz-adv-x="339" d="M324 674V607H137V0H60V674H324Z"  />
<glyph unicode="&#x414;" horiz-adv-x="474" d="M401 674V66L446 65L442 -140H382L377 0H79L75 -140H14L10 65L55 66Q93 158 109 248Q121 314 125 381T130 522V674H401ZM200 506Q200 435 197 368T182 238Q174 193 162 151T134 67H325V607H200V506Z"  />
<glyph unicode="&#x415;" horiz-adv-x="354" d="M306 320H137V67H329V0H60V674H317V607H137V385H306V320Z"  />
<glyph unicode="&#x416;" horiz-adv-x="589" d="M98 674L244 367H258V674H330V367H345L490 674H575L402 360Q435 354 457 337T495 296T520 242T536 181Q546 135 555 90T581 0H505Q499 15 494 36T483 79T474 124T466 162Q460 190 452 217T429 265T394 298T341 311H330V0H258V311H248Q215 311 194 299T158 265T136 217T121 162Q117 146 113 124T104 80T94 36T82 0H8Q24 44 33 89T52 181Q58 212 68 241T93 295T132 337T187 360L13 674H98Z"  />
<glyph unicode="&#x417;" horiz-adv-x="381" d="M28 639Q51 656 86 669T166 682Q206 682 236 670T288 636T320 585T331 520Q331 493 323 468T298 421T261 384T213 360V358Q278 347 315 301T352 185Q352 140 337 104T295 44T231 6T149 -8Q114 -8 79 0T18 25L37 89Q57 76 83 67T144 58Q207 58 240 93T273 185Q273 219 261 244T229 287T180 312T120 321H99V383H114Q140 383 165 392T209 419T241 459T253 509Q253 557 225 586T147 615Q120 615 94 604T48 580L28 639Z"  />
<glyph unicode="&#x418;" horiz-adv-x="464" d="M130 674V433Q130 389 130 350T128 274T125 201T121 124H123Q140 179 164 241T210 359L331 674H403V0H334V233Q334 287 334 331T336 412T338 483T342 551H340Q322 488 301 432T259 325L133 0H60V674H130Z"  />
<glyph unicode="&#x419;" horiz-adv-x="464" d="M130 674V433Q130 389 130 350T128 274T125 201T121 124H123Q140 179 164 241T210 359L331 674H403V0H334V233Q334 287 334 331T336 412T338 483T342 551H340Q322 488 301 432T259 325L133 0H60V674H130ZM175 795Q179 774 190 757T232 740Q260 740 272 756T288 795H345Q332 698 231 698Q183 698 154 721T119 795H175Z"  />
<glyph unicode="&#x41A;" horiz-adv-x="391" d="M136 674V368H150L294 674H377L212 358Q243 351 264 335T300 297T324 246T339 187Q350 139 359 92T384 0H306Q294 33 285 79T267 168Q261 198 253 224T232 270T198 300T148 311H136V0H60V674H136Z"  />
<glyph unicode="&#x41B;" horiz-adv-x="432" d="M371 674V0H294V607H152V377Q152 311 150 254T140 150T115 69T70 14Q43 -7 8 -7L-7 58Q3 60 12 64T29 75Q60 102 70 171T81 366V674H371Z"  />
<glyph unicode="&#x41C;" horiz-adv-x="599" d="M468 290Q464 357 462 427T461 554H457Q446 497 433 439T403 320L320 4H271L192 307Q175 372 161 433T137 554H134Q134 494 132 426T126 285L113 0H44L84 674H167L246 366Q263 299 276 246T300 134H303Q308 163 313 190T325 244T338 302T353 366L429 674H515L554 0H482L468 290Z"  />
<glyph unicode="&#x41D;" horiz-adv-x="463" d="M137 674V385H326V674H403V0H326V315H137V0H60V674H137Z"  />
<glyph unicode="&#x41E;" horiz-adv-x="446" d="M230 682Q317 682 365 593T414 342Q414 247 399 181T357 72T295 11T219 -8Q135 -8 84 80T32 338Q32 422 46 486T87 593T149 659T230 682ZM223 614Q191 614 170 590T136 527T118 438T112 337Q112 285 117 235T136 146T170 84T224 60Q257 60 278 85T311 150T329 239T334 339Q334 386 329 435T312 523T278 588T223 614Z"  />
<glyph unicode="&#x41F;" horiz-adv-x="458" d="M398 674V0H321V607H137V0H60V674H398Z"  />
<glyph unicode="&#x420;" horiz-adv-x="399" d="M60 664Q83 670 111 673T172 677Q219 677 257 665T321 627Q346 603 358 568T371 488Q371 441 361 409T330 350Q302 312 259 294T171 275Q161 275 153 275T137 276V0H60V664ZM137 341Q150 338 167 338Q224 338 259 374T294 483Q294 509 288 532T269 574T234 603T180 614Q154 614 137 609V341Z"  />
<glyph unicode="&#x421;" horiz-adv-x="373" d="M354 12Q338 4 314 -1T258 -6Q208 -6 167 14T95 75T49 180T32 329Q32 429 54 496T111 604T188 662T270 680Q301 680 322 675T354 663L337 598Q325 603 310 607T269 612Q242 612 214 598T164 552T127 466T113 336Q113 259 126 207T161 122T211 76T271 62Q293 62 311 66T342 77L354 12Z"  />
<glyph unicode="&#x422;" horiz-adv-x="354" d="M139 605H16V674H339V605H216V0H139V605Z"  />
<glyph unicode="&#x423;" horiz-adv-x="369" d="M88 674L168 400Q178 368 185 340T199 283H202Q208 308 214 339T227 402L287 674H365L285 374Q277 346 268 311T247 238T221 161T190 89Q167 45 134 19T63 -8Q40 -8 27 -4L31 59Q41 57 51 57Q72 57 89 70T119 101T142 142T157 182Q163 200 156 221L5 674H88Z"  />
<glyph unicode="&#x424;" horiz-adv-x="507" d="M290 693V640Q329 636 362 617T421 562T461 471T476 341Q476 255 460 199T417 108T357 57T288 37V-19H218V37Q183 41 150 57T90 106T48 196T32 338Q32 418 48 473T91 565T151 618T219 640V693H290ZM219 583Q198 580 179 566T144 523T119 447T110 335Q110 275 118 232T142 159T177 114T219 94V583ZM289 94Q313 98 333 113T368 158T390 232T398 342Q398 407 388 452T362 525T327 567T289 583V94Z"  />
<glyph unicode="&#x425;" horiz-adv-x="392" d="M297 0L236 162Q225 190 216 217T195 280H192Q181 246 171 217T151 160L93 0H14L153 344L19 674H99L159 518Q169 495 178 470T199 411H201Q212 446 220 471T237 521L292 674H371L239 346L378 0H297Z"  />
<glyph unicode="&#x426;" horiz-adv-x="470" d="M137 674V67H321V674H397V66L442 65L438 -140H377L373 0H60V674H137Z"  />
<glyph unicode="&#x427;" horiz-adv-x="436" d="M130 674V448Q130 424 134 403T149 366T177 341T221 332Q241 332 262 337T299 353V674H375V0H300V291H296Q272 280 247 274T196 267Q130 267 92 307T54 433V674H130Z"  />
<glyph unicode="&#x428;" horiz-adv-x="632" d="M136 674V67H279V674H354V67H497V674H572V0H60V674H136Z"  />
<glyph unicode="&#x429;" horiz-adv-x="644" d="M136 674V67H279V674H354V67H497V674H572V66L616 65L613 -140H552L547 0H60V674H136Z"  />
<glyph unicode="&#x42A;" horiz-adv-x="512" d="M232 674V406Q256 409 283 409Q329 409 366 395T430 355T470 291T485 209Q485 118 436 64Q379 -4 256 -4Q219 -4 196 -2T156 3V608H15V674H232ZM233 62Q251 59 272 59Q304 59 329 70T371 100T396 147T405 205Q405 268 369 306T271 345Q252 345 233 342V62Z"  />
<glyph unicode="&#x42B;" horiz-adv-x="586" d="M137 674V405Q149 407 162 408T186 409Q231 409 268 395T331 355T371 292T386 210Q386 164 374 129T338 66Q309 32 263 14T157 -4Q122 -4 99 -2T60 3V674H137ZM137 62Q147 60 155 60T173 59Q237 59 271 100T306 205Q306 268 270 306T174 345Q153 345 137 342V62ZM525 674V0H448V674H525Z"  />
<glyph unicode="&#x42C;" horiz-adv-x="417" d="M137 674V406Q158 409 188 409Q281 409 335 356T389 209Q389 163 377 128T341 66Q312 32 267 14T160 -4Q123 -4 100 -2T60 3V674H137ZM137 62Q147 60 155 60T174 59Q239 59 274 100T310 205Q310 267 274 306T175 345Q153 345 137 342V62Z"  />
<glyph unicode="&#x42D;" horiz-adv-x="387" d="M73 380H277Q277 414 270 455T246 530T199 588T126 612Q87 612 53 596L33 659Q51 667 75 674T129 681Q199 681 243 649T313 566T347 456T356 340Q356 276 343 214T300 102T226 23T116 -7Q84 -7 59 0T17 16L35 79Q49 72 67 67T112 62Q160 62 191 87T241 150T267 231T276 311H73V380Z"  />
<glyph unicode="&#x42E;" horiz-adv-x="604" d="M136 674V386H210Q214 459 229 514T269 607T326 663T397 682Q479 682 526 593T573 342Q573 247 559 181T519 72T459 11T387 -8Q312 -8 263 72T210 317H136V0H60V674H136ZM391 60Q421 60 441 85T473 150T490 239T495 339Q495 386 490 435T473 523T441 588T391 614Q361 614 341 589T308 524T291 435T286 338Q286 289 291 240T308 150T340 85T391 60Z"  />
<glyph unicode="&#x42F;" horiz-adv-x="406" d="M11 0Q19 16 24 33T34 70Q40 96 45 126T56 185T72 242T99 289Q119 314 150 322V324Q101 339 69 379T36 488Q36 539 54 576T102 637Q154 677 236 677Q264 677 292 675T346 665V0H269V294H241Q218 294 199 288T164 263Q151 247 143 222T129 168T119 111T109 59Q106 44 102 29T91 0H11ZM269 611Q261 613 252 614T229 615Q170 615 142 578T114 486Q114 424 150 389T242 353Q250 353 255 353T269 354V611Z"  />
<glyph unicode="&#x430;" horiz-adv-x="364" d="M245 0L240 51H237Q221 23 197 8T141 -8Q92 -8 59 29T26 130Q26 175 43 208T88 263T154 295T232 306V321Q232 370 217 400T155 431Q132 431 112 424T75 406L58 460Q73 471 104 481T171 492Q244 492 277 447T310 319V110Q310 82 310 53T315 0H245ZM234 250Q219 250 197 248T153 234T116 200T101 138Q101 114 106 98T120 72T139 57T160 52Q186 52 205 70T232 125Q234 132 234 139T234 152V250Z"  />
<glyph unicode="&#x431;" horiz-adv-x="388" d="M320 633Q305 627 281 622T232 610Q192 601 169 581T132 530Q118 501 112 468T102 404H104Q116 436 146 460T214 484Q244 484 269 471T314 429T344 355T355 246Q355 118 313 55T199 -8Q149 -8 118 20T68 92T44 187T37 286Q37 371 47 441T83 563Q106 608 138 635T218 674Q230 677 245 680T274 687T302 693T324 700L320 633ZM278 238Q278 265 275 296T263 356T238 402T196 421Q170 421 153 406T128 367Q118 342 115 314T112 265Q112 244 114 209T126 139T152 80T198 55Q224 55 239 74T263 122T275 182T278 238Z"  />
<glyph unicode="&#x432;" horiz-adv-x="394" d="M54 482Q77 487 105 489T163 492Q193 492 225 487T283 469T326 432T343 372Q343 328 316 298T247 257V255Q300 246 331 215T363 134Q363 92 344 65T293 21T225 -1T153 -7Q119 -7 94 -6T54 -2V482ZM129 279H164Q181 279 199 284T233 300T259 326T269 361Q269 382 261 396T240 419T208 432T169 436Q158 436 149 435T129 432V279ZM128 51Q135 50 145 49T168 48Q190 48 211 52T249 67T276 93T286 134Q286 158 275 175T247 203T207 219T161 224H128V51Z"  />
<glyph unicode="&#x433;" horiz-adv-x="292" d="M279 484V418H130V0H54V484H279Z"  />
<glyph unicode="&#x434;" horiz-adv-x="417" d="M352 484V60L393 59L388 -129H330L325 0H75L70 -129H11L7 59L39 60Q68 107 84 163Q106 244 106 342V484H352ZM174 351Q174 300 170 252T154 159Q140 106 115 61H276V422H174V351Z"  />
<glyph unicode="&#x435;" horiz-adv-x="363" d="M108 235Q108 179 118 144T145 90T181 63T223 55Q248 55 268 60T303 74L315 17Q295 6 267 0T209 -6Q122 -6 78 60T33 237Q33 296 45 343T78 423T130 474T196 492Q233 492 259 474T302 426T326 358T334 278Q334 264 334 254T333 235H108ZM260 292Q261 365 239 398T188 432Q169 432 155 420T131 387T116 342T109 292H260Z"  />
<glyph unicode="&#x436;" horiz-adv-x="536" d="M97 484L215 271H231V484H305V271H322L439 484H524L379 262Q425 253 451 217T489 130Q497 95 507 59T528 0H453Q443 17 436 45T420 107Q403 170 377 194T313 219H305V0H231V219H223Q197 219 181 212T152 191T132 155T114 102Q106 70 100 45T83 0H8Q20 25 30 60T48 126Q54 150 63 172T86 213T116 244T157 262L13 484H97Z"  />
<glyph unicode="&#x437;" horiz-adv-x="337" d="M84 279H111Q129 279 146 284T178 300T201 326T210 362Q210 398 188 416T132 434Q109 434 87 427T47 409L31 458Q55 475 87 483T151 492Q211 492 249 460T287 371Q287 326 259 297T188 257V256Q239 248 272 217T305 134Q305 98 290 71T249 27T192 1T127 -8Q97 -8 67 -1T13 19L31 74Q48 65 72 58T121 50Q170 50 198 75T227 134Q227 159 217 176T191 203T154 218T113 223H84V279Z"  />
<glyph unicode="&#x438;" horiz-adv-x="406" d="M124 484V318Q124 255 123 199T118 86H120Q137 134 156 183T191 274L272 484H353V0H282V159Q282 198 282 229T283 288T285 341T289 395H287Q273 350 259 309T229 228Q223 213 213 187T189 129T161 63T133 0H54V484H124Z"  />
<glyph unicode="&#x439;" horiz-adv-x="406" d="M124 484V318Q124 255 123 199T118 86H120Q137 134 156 183T191 274L272 484H353V0H282V159Q282 198 282 229T283 288T285 341T289 395H287Q273 350 259 309T229 228Q223 213 213 187T189 129T161 63T133 0H54V484H124ZM144 667Q150 600 203 600Q232 600 245 618T263 667H317Q310 607 281 582T202 556Q154 556 125 581T90 667H144Z"  />
<glyph unicode="&#x43A;" horiz-adv-x="367" d="M129 484V274H140L267 484H353L202 266Q227 262 245 250T278 219T302 177T319 129Q327 98 337 63T359 0H281Q271 23 263 52T246 113Q232 162 208 190T137 218H129V0H54V484H129Z"  />
<glyph unicode="&#x43B;" horiz-adv-x="383" d="M330 484V0H253V420H147V267Q147 216 145 173T133 97T108 41T65 5Q42 -7 14 -7L0 54Q14 57 23 63T41 77Q62 98 67 146T73 262V484H330Z"  />
<glyph unicode="&#x43C;" horiz-adv-x="538" d="M72 484H163L226 271Q239 229 249 195T270 117H272Q278 140 282 159T291 196T301 232T313 271L374 484H467L500 0H427L418 208Q417 232 416 254T414 299T413 349T411 411H408Q400 373 388 326T360 225L295 3H239L176 218Q161 269 149 318T126 412H124Q123 354 122 305T117 204L109 0H38L72 484Z"  />
<glyph unicode="&#x43D;" horiz-adv-x="405" d="M131 484V279H274V484H351V0H274V213H131V0H54V484H131Z"  />
<glyph unicode="&#x43E;" horiz-adv-x="383" d="M195 492Q227 492 255 477T305 430T338 352T351 242Q351 172 336 124T298 47T247 5T190 -8Q157 -8 129 7T79 52T46 130T33 241Q33 307 46 354T82 432T134 477T195 492ZM192 430Q166 430 150 411T125 364T113 303T110 242Q110 212 113 179T126 118T151 72T194 53Q219 53 234 72T258 119T270 181T273 242Q273 270 270 302T258 363T233 411T192 430Z"  />
<glyph unicode="&#x43F;" horiz-adv-x="400" d="M346 484V0H270V419H131V0H54V484H346Z"  />
<glyph unicode="&#x440;" horiz-adv-x="399" d="M53 333Q53 389 52 423T49 484H118L122 422H124Q144 461 170 476T226 492Q289 492 327 428T366 243Q366 176 353 129T319 51T271 6T216 -8Q182 -8 162 10T132 48H130V-192H53V333ZM130 178Q130 167 130 157T133 138Q139 112 147 96T166 71T186 59T204 56Q228 56 244 71T270 112T284 171T288 242Q288 279 284 312T269 371T242 411T203 426Q190 426 178 419T157 399T141 370T132 338Q130 329 130 320T130 301V178Z"  />
<glyph unicode="&#x441;" horiz-adv-x="302" d="M290 12Q277 4 257 -1T210 -6Q130 -6 82 56T33 239Q33 291 46 337T83 417T143 471T224 491Q244 491 262 487T292 476L277 413Q269 417 255 421T222 426Q193 426 172 410T137 368T117 309T110 239Q110 154 140 106T224 58Q240 58 253 61T280 71L290 12Z"  />
<glyph unicode="&#x442;" horiz-adv-x="317" d="M307 484V419H197V0H120V419H10V484H307Z"  />
<glyph unicode="&#x443;" horiz-adv-x="346" d="M94 484L158 206Q165 177 169 153T178 106H180Q184 126 189 152T201 205L258 484H334L255 173Q232 81 205 -1T135 -139Q109 -171 85 -189T48 -213L20 -147Q55 -128 88 -86Q103 -67 114 -45T132 -5Q135 4 136 9T137 19Q137 24 137 28T135 37L13 484H94Z"  />
<glyph unicode="&#x444;" horiz-adv-x="477" d="M273 692V491Q311 486 343 469T397 421T432 345T445 241Q445 123 399 63T273 -7V-192H204V-7Q126 1 80 61T33 241Q33 358 79 418T204 490V692H273ZM204 438Q175 431 156 411T125 363T110 304T105 242Q105 212 109 180T125 121T155 73T204 46V438ZM273 46Q302 53 321 73T351 120T367 178T372 242Q372 272 368 303T352 362T322 409T273 438V46Z"  />
<glyph unicode="&#x445;" horiz-adv-x="340" d="M97 484L142 380Q151 359 158 338T174 295H176Q184 318 192 339T208 380L252 484H331L216 245L330 0H246L200 109Q192 129 185 148T168 192H166Q158 170 150 150T134 109L89 0H11L126 243L14 484H97Z"  />
<glyph unicode="&#x446;" horiz-adv-x="411" d="M131 484V64H269V484H346V60L387 59L382 -129H324L319 0H54V484H131Z"  />
<glyph unicode="&#x447;" horiz-adv-x="393" d="M124 484V301Q124 283 127 267T137 240T158 222T191 215Q212 215 230 221T262 237V484H339V0H263V181H260Q243 169 218 163T168 156Q112 156 80 189T47 289V484H124Z"  />
<glyph unicode="&#x448;" horiz-adv-x="590" d="M130 484V64H257V484H333V64H461V484H537V0H54V484H130Z"  />
<glyph unicode="&#x449;" horiz-adv-x="602" d="M130 484V64H257V484H333V64H461V484H537V60L577 59L573 -129H514L509 0H54V484H130Z"  />
<glyph unicode="&#x44A;" horiz-adv-x="464" d="M206 484V313Q231 316 253 316Q289 316 322 307T381 279T422 231T437 162Q437 121 423 92T384 42Q353 17 313 6T229 -5Q204 -5 179 -3T130 3V420H13V484H206ZM206 58Q215 56 223 56T242 55Q265 55 286 61T323 79T348 111T358 157Q358 184 348 202T322 233T284 250T238 256Q229 256 222 256T206 254V58Z"  />
<glyph unicode="&#x44B;" horiz-adv-x="528" d="M130 484V313Q136 314 148 315T176 316Q211 316 242 307T298 278T336 229T350 162Q350 121 336 92T296 42Q266 17 227 6T153 -5Q128 -5 103 -3T54 3V484H130ZM130 58Q148 55 164 55Q185 55 204 62T239 82T262 114T271 157Q271 182 262 200T238 231T204 250T162 256Q152 256 145 256T130 254V58ZM474 484V0H400V484H474Z"  />
<glyph unicode="&#x44C;" horiz-adv-x="388" d="M130 484V313Q141 315 153 315T176 316Q213 316 246 307T305 279T346 230T361 160Q361 121 347 92T308 42Q277 17 237 6T153 -5Q128 -5 103 -3T54 3V484H130ZM130 57Q139 56 147 56T164 55Q188 55 209 61T247 79T272 111T282 157Q282 184 272 202T246 233T208 250T162 256Q152 256 145 256T130 254V57Z"  />
<glyph unicode="&#x44D;" horiz-adv-x="324" d="M49 275H213Q212 302 206 330T186 380T151 416T98 430Q78 430 62 426T33 417L21 470Q35 479 60 485T112 492Q154 492 187 474T244 423Q269 388 280 342T292 245Q292 197 280 152T244 71T184 15T98 -7Q78 -7 54 -2T12 14L26 70Q40 64 57 60T95 56Q120 56 141 68T178 102T203 153T213 219H49V275Z"  />
<glyph unicode="&#x44E;" horiz-adv-x="524" d="M129 484V281H189Q193 337 207 377T242 442T288 480T341 492Q372 492 399 477T447 430T479 352T491 242Q491 172 477 124T441 47T391 5T338 -8Q309 -8 283 5T236 47T204 117T189 219H129V0H54V484H129ZM339 53Q363 53 377 72T400 119T412 181T415 242Q415 270 412 302T401 363T377 411T338 430Q314 430 299 411T276 364T264 303T261 242Q261 212 264 179T276 118T300 72T339 53Z"  />
<glyph unicode="&#x44F;" horiz-adv-x="379" d="M325 0H251V207H228Q202 207 185 201T158 184Q146 173 138 157T125 122T114 80T103 36Q101 25 98 17T90 0H9Q16 11 21 22T31 50Q36 68 40 88T51 128T65 167T87 200Q97 211 112 220T146 232V234Q125 238 106 247T72 271T48 306T39 353Q39 388 52 412T89 454Q110 471 146 480T222 490Q251 490 278 488T325 481V0ZM251 433Q236 437 218 437Q198 437 180 432T147 417T125 390T116 351Q116 329 125 312T149 283T182 265T221 259H251V433Z"  />
<glyph unicode="&#x451;" horiz-adv-x="363" d="M108 235Q108 179 118 144T145 90T181 63T223 55Q248 55 268 60T303 74L315 17Q295 6 267 0T209 -6Q122 -6 78 60T33 237Q33 296 45 343T78 423T130 474T196 492Q233 492 259 474T302 426T326 358T334 278Q334 264 334 254T333 235H108ZM260 292Q261 365 239 398T188 432Q169 432 155 420T131 387T116 342T109 292H260ZM120 566Q101 566 88 578T75 610Q75 630 88 642T120 655Q138 655 150 643T162 610Q162 591 150 579T120 566ZM275 566Q256 566 244 578T231 610Q231 630 244 642T275 655Q293 655 305 643T318 610Q318 591 306 579T275 566Z"  />
<glyph unicode="&#x452;" horiz-adv-x="414" d="M64 614V692H141V614H316V560H141V430H143Q159 456 185 472T243 489Q314 489 348 413Q378 348 378 221Q378 124 362 56T307 -60Q287 -85 260 -102T210 -122L191 -60Q205 -57 222 -46T254 -15Q277 20 289 80T301 216Q301 253 298 294T280 372Q271 395 257 409T219 424Q201 424 187 414T164 390Q151 371 146 349T141 309V0H64V560H12V614H64Z"  />
<glyph unicode="&#x453;" horiz-adv-x="292" d="M279 484V418H130V0H54V484H279ZM279 682L175 547H123L200 682H279Z"  />
<glyph unicode="&#x454;" horiz-adv-x="331" d="M300 414Q290 420 274 425T236 431Q203 431 180 417T142 380T120 329T112 275H282V219H111Q113 146 146 100T236 54Q253 54 271 58T302 70L317 14Q299 4 277 -1T225 -7Q175 -7 139 14T80 70T45 150T33 242Q33 289 44 334T81 414T144 470T235 492Q259 492 282 486T318 470L300 414Z"  />
<glyph unicode="&#x455;" horiz-adv-x="289" d="M41 80Q54 72 75 64T119 55Q152 55 171 74T190 125Q190 153 178 174T128 220Q80 251 56 283T31 358Q31 387 41 411T69 454T111 482T164 492Q193 492 214 484T251 467L230 409Q216 418 201 424T166 430Q134 430 119 411T103 369Q103 344 115 327T163 285Q205 258 234 223T263 138Q263 102 252 75T220 30T174 3T118 -6Q91 -6 65 1T22 22L41 80Z"  />
<glyph unicode="&#x456;" horiz-adv-x="184" d="M54 0V484H131V0H54ZM91 659Q112 659 124 646T137 609Q138 586 125 573T90 559Q71 559 59 572T46 609Q46 632 59 645T91 659Z"  />
<glyph unicode="&#x457;" horiz-adv-x="184" d="M54 0V484H131V0H54ZM16 566Q-4 566 -16 578T-29 610Q-29 630 -16 642T16 655Q34 655 46 643T58 610Q58 591 46 579T16 566ZM171 566Q152 566 139 578T126 610Q126 630 139 642T171 655Q189 655 201 643T214 610Q214 591 202 579T171 566Z"  />
<glyph unicode="&#x458;" horiz-adv-x="188" d="M-28 -139Q-11 -134 7 -127T37 -101Q43 -91 47 -79T55 -49T59 -7T60 53V484H137V31Q137 -7 134 -36T125 -86T110 -124T88 -154Q66 -177 36 -188T-18 -200L-28 -139ZM99 659Q119 659 131 646T144 609Q144 586 132 573T97 559Q78 559 65 572T53 609Q52 632 65 645T99 659Z"  />
<glyph unicode="&#x459;" horiz-adv-x="590" d="M332 484V313Q356 316 377 316Q414 316 448 307T507 279T548 230T563 160Q563 121 549 92T510 43Q479 17 438 6T352 -5Q327 -5 303 -3T256 3V420H147V268Q147 216 145 174T133 98T108 42T65 6Q54 1 41 -2T14 -6L0 55Q14 57 23 63T41 77Q62 98 67 145T73 263V484H332ZM332 58Q350 55 366 55Q390 55 411 61T449 79T474 111T484 157Q484 184 474 202T448 233T409 250T363 256Q354 256 347 256T332 254V58Z"  />
<glyph unicode="&#x45A;" horiz-adv-x="601" d="M131 484V296H267V484H343V308Q368 311 390 311Q427 311 460 302T518 273T559 225T574 156Q574 118 560 90T521 41Q490 17 449 6T363 -5Q338 -5 314 -3T267 2V233H131V0H54V484H131ZM343 58Q352 56 360 56T381 55Q403 55 424 61T460 79T485 110T495 155Q495 181 485 199T459 228T420 245T374 251Q365 251 358 251T343 249V58Z"  />
<glyph unicode="&#x45B;" horiz-adv-x="415" d="M64 614V692H141V614H316V560H141V430H143Q151 443 161 453T183 472Q197 480 212 484T248 489Q271 489 291 480T327 450T352 397T361 320V0H284V310Q284 332 281 352T271 389T251 414T219 424Q187 424 169 401T144 347Q142 339 142 328T141 306V0H64V560H12V614H64Z"  />
<glyph unicode="&#x45C;" horiz-adv-x="367" d="M129 484V274H140L267 484H353L202 266Q227 262 245 250T278 219T302 177T319 129Q327 98 337 63T359 0H281Q271 23 263 52T246 113Q232 162 208 190T137 218H129V0H54V484H129ZM300 682L195 547H144L221 682H300Z"  />
<glyph unicode="&#x45E;" horiz-adv-x="346" d="M114 667Q120 600 173 600Q202 600 216 618T233 667H287Q280 607 251 582T172 556Q124 556 95 581T60 667H114ZM94 484L158 206Q165 177 169 153T178 106H180Q184 126 189 152T201 205L258 484H334L255 173Q232 81 205 -1T135 -139Q109 -171 85 -189T48 -213L20 -147Q55 -128 88 -86Q103 -67 114 -45T132 -5Q135 4 136 9T137 19Q137 24 137 28T135 37L13 484H94Z"  />
<glyph unicode="&#x45F;" horiz-adv-x="400" d="M131 484V64H269V484H346V0H235L230 -133H171L165 0H54V484H131Z"  />
<glyph unicode="&#x490;" horiz-adv-x="334" d="M261 674L274 786H329L319 607H137V0H60V674H261Z"  />
<glyph unicode="&#x491;" horiz-adv-x="289" d="M216 484L227 579H283L276 419H130V0H54V484H216Z"  />
<glyph unicode="&#x4D9;" horiz-adv-x="363" d="M47 465Q70 478 98 485T155 492Q198 492 231 475T286 426T319 349T330 248Q330 189 318 142T285 62T233 12T167 -6Q130 -6 104 12T61 59T36 127T28 207Q28 218 29 229T31 249H254Q254 305 244 340T219 396T183 423T141 430Q115 430 95 425T60 411L47 465ZM102 192Q102 156 108 130T124 87T148 62T175 54Q194 54 208 66T232 98T247 143T254 192H102Z"  />
<glyph unicode="&#x1E80;" horiz-adv-x="654" d="M150 0L20 674H100L157 349Q168 285 176 227T190 106H194Q200 170 211 227T234 350L296 674H362L424 357Q435 297 445 237T463 106H466Q474 179 483 237T502 353L558 674H633L502 0H427L362 328Q352 382 343 437T328 549H326Q318 492 310 437T289 325L222 0H150ZM280 818L374 710H314L189 818H280Z"  />
<glyph unicode="&#x1E81;" horiz-adv-x="566" d="M93 484L140 247Q147 208 154 170T166 93H170Q175 131 183 170T200 245L256 484H315L368 252Q377 211 385 173T399 93H403Q408 131 414 169T429 249L475 484H552L430 0H367L311 235Q302 270 296 304T284 380H282Q276 337 269 302T254 232L196 0H131L13 484H93ZM247 682L324 547H272L168 682H247Z"  />
<glyph unicode="&#x1E82;" horiz-adv-x="654" d="M150 0L20 674H100L157 349Q168 285 176 227T190 106H194Q200 170 211 227T234 350L296 674H362L424 357Q435 297 445 237T463 106H466Q474 179 483 237T502 353L558 674H633L502 0H427L362 328Q352 382 343 437T328 549H326Q318 492 310 437T289 325L222 0H150ZM470 818L345 710H285L379 818H470Z"  />
<glyph unicode="&#x1E83;" horiz-adv-x="566" d="M93 484L140 247Q147 208 154 170T166 93H170Q175 131 183 170T200 245L256 484H315L368 252Q377 211 385 173T399 93H403Q408 131 414 169T429 249L475 484H552L430 0H367L311 235Q302 270 296 304T284 380H282Q276 337 269 302T254 232L196 0H131L13 484H93ZM407 682L302 547H251L328 682H407Z"  />
<glyph unicode="&#x1E84;" horiz-adv-x="654" d="M150 0L20 674H100L157 349Q168 285 176 227T190 106H194Q200 170 211 227T234 350L296 674H362L424 357Q435 297 445 237T463 106H466Q474 179 483 237T502 353L558 674H633L502 0H427L362 328Q352 382 343 437T328 549H326Q318 492 310 437T289 325L222 0H150ZM248 725Q230 725 218 737T205 771Q205 791 217 804T248 818Q268 818 279 805T291 771Q291 750 280 738T248 725ZM410 725Q391 725 379 737T367 771Q367 791 379 804T410 818Q430 818 441 805T453 771Q453 750 442 738T410 725Z"  />
<glyph unicode="&#x1E85;" horiz-adv-x="566" d="M93 484L140 247Q147 208 154 170T166 93H170Q175 131 183 170T200 245L256 484H315L368 252Q377 211 385 173T399 93H403Q408 131 414 169T429 249L475 484H552L430 0H367L311 235Q302 270 296 304T284 380H282Q276 337 269 302T254 232L196 0H131L13 484H93ZM206 566Q187 566 174 578T161 610Q161 630 174 642T206 655Q224 655 236 643T248 610Q248 591 236 579T206 566ZM361 566Q342 566 330 578T317 610Q317 630 330 642T361 655Q379 655 391 643T404 610Q404 591 392 579T361 566Z"  />
<glyph unicode="&#x1EA0;" horiz-adv-x="435" d="M141 202L96 0H22L176 674H261L411 0H335L290 202H141ZM280 264L245 435Q237 471 231 511T218 589H214Q208 551 201 510T187 435L152 264H280ZM215 -80Q233 -80 245 -92T258 -125Q258 -144 246 -156T214 -169Q196 -169 183 -157T170 -125Q170 -105 183 -93T215 -80Z"  />
<glyph unicode="&#x1EA1;" horiz-adv-x="364" d="M245 0L240 51H237Q221 23 197 8T141 -8Q92 -8 59 29T26 130Q26 175 43 208T88 263T154 295T232 306V321Q232 370 217 400T155 431Q132 431 112 424T75 406L58 460Q73 471 104 481T171 492Q244 492 277 447T310 319V110Q310 82 310 53T315 0H245ZM234 250Q219 250 197 248T153 234T116 200T101 138Q101 114 106 98T120 72T139 57T160 52Q186 52 205 70T232 125Q234 132 234 139T234 152V250ZM179 -80Q197 -80 209 -92T221 -125Q221 -144 209 -156T178 -169Q160 -169 147 -157T134 -125Q134 -105 147 -93T179 -80Z"  />
<glyph unicode="&#x1EA2;" horiz-adv-x="435" d="M141 202L96 0H22L176 674H261L411 0H335L290 202H141ZM280 264L245 435Q237 471 231 511T218 589H214Q208 551 201 510T187 435L152 264H280ZM193 715Q197 728 205 737T220 755T232 772T238 793Q238 806 230 814T209 822Q195 822 185 812T167 790L139 811Q151 835 171 852T224 869Q254 869 274 851T295 805Q295 789 289 777T273 755T253 733T233 706L193 715Z"  />
<glyph unicode="&#x1EA3;" horiz-adv-x="364" d="M245 0L240 51H237Q221 23 197 8T141 -8Q92 -8 59 29T26 130Q26 175 43 208T88 263T154 295T232 306V321Q232 370 217 400T155 431Q132 431 112 424T75 406L58 460Q73 471 104 481T171 492Q244 492 277 447T310 319V110Q310 82 310 53T315 0H245ZM234 250Q219 250 197 248T153 234T116 200T101 138Q101 114 106 98T120 72T139 57T160 52Q186 52 205 70T232 125Q234 132 234 139T234 152V250ZM155 539Q159 554 167 566T183 588T197 609T203 633Q203 647 195 656T171 666Q157 666 148 657T132 634L104 655Q115 681 135 698T185 715Q218 715 239 695T260 645Q260 626 253 612T236 586T215 560T196 530L155 539Z"  />
<glyph unicode="&#x1EA4;" horiz-adv-x="435" d="M141 202L96 0H22L176 674H261L411 0H335L290 202H141ZM280 264L245 435Q237 471 231 511T218 589H214Q208 551 201 510T187 435L152 264H280ZM252 808L329 710H267L223 767H221L177 710H116L192 808H252ZM437 882L337 781H291L357 882H437Z"  />
<glyph unicode="&#x1EA5;" horiz-adv-x="364" d="M245 0L240 51H237Q221 23 197 8T141 -8Q92 -8 59 29T26 130Q26 175 43 208T88 263T154 295T232 306V321Q232 370 217 400T155 431Q132 431 112 424T75 406L58 460Q73 471 104 481T171 492Q244 492 277 447T310 319V110Q310 82 310 53T315 0H245ZM234 250Q219 250 197 248T153 234T116 200T101 138Q101 114 106 98T120 72T139 57T160 52Q186 52 205 70T232 125Q234 132 234 139T234 152V250ZM203 682L266 547H210L178 630H175L142 547H86L149 682H203ZM367 742L290 625H248L299 742H367Z"  />
<glyph unicode="&#x1EA6;" horiz-adv-x="435" d="M141 202L96 0H22L176 674H261L411 0H335L290 202H141ZM280 264L245 435Q237 471 231 511T218 589H214Q208 551 201 510T187 435L152 264H280ZM316 867L382 767H336L236 867H316ZM249 808L326 710H263L219 767H217L174 710H113L188 808H249Z"  />
<glyph unicode="&#x1EA7;" horiz-adv-x="364" d="M245 0L240 51H237Q221 23 197 8T141 -8Q92 -8 59 29T26 130Q26 175 43 208T88 263T154 295T232 306V321Q232 370 217 400T155 431Q132 431 112 424T75 406L58 460Q73 471 104 481T171 492Q244 492 277 447T310 319V110Q310 82 310 53T315 0H245ZM234 250Q219 250 197 248T153 234T116 200T101 138Q101 114 106 98T120 72T139 57T160 52Q186 52 205 70T232 125Q234 132 234 139T234 152V250ZM273 742L318 626H277L205 742H273ZM205 682L268 547H212L180 630H176L144 547H88L151 682H205Z"  />
<glyph unicode="&#x1EA8;" horiz-adv-x="435" d="M141 202L96 0H22L176 674H261L411 0H335L290 202H141ZM280 264L245 435Q237 471 231 511T218 589H214Q208 551 201 510T187 435L152 264H280ZM250 808L327 710H264L221 767H219L175 710H114L190 808H250ZM306 761Q310 774 318 783T333 800T345 817T351 837Q351 850 343 858T323 866Q308 866 298 856T280 834L254 854Q265 877 285 893T336 910Q365 910 384 893T403 849Q403 833 397 821T381 799T362 777T342 752L306 761Z"  />
<glyph unicode="&#x1EA9;" horiz-adv-x="364" d="M245 0L240 51H237Q221 23 197 8T141 -8Q92 -8 59 29T26 130Q26 175 43 208T88 263T154 295T232 306V321Q232 370 217 400T155 431Q132 431 112 424T75 406L58 460Q73 471 104 481T171 492Q244 492 277 447T310 319V110Q310 82 310 53T315 0H245ZM234 250Q219 250 197 248T153 234T116 200T101 138Q101 114 106 98T120 72T139 57T160 52Q186 52 205 70T232 125Q234 132 234 139T234 152V250ZM202 682L264 547H209L176 630H173L141 547H85L148 682H202ZM252 632Q256 645 264 654T279 671T291 688T297 708Q297 721 289 729T267 737Q253 737 244 727T227 705L200 725Q211 748 231 764T281 781Q311 781 331 763T351 718Q351 702 345 691T329 670T310 649T291 624L252 632Z"  />
<glyph unicode="&#x1EAA;" horiz-adv-x="435" d="M141 202L96 0H22L176 674H261L411 0H335L290 202H141ZM280 264L245 435Q237 471 231 511T218 589H214Q208 551 201 510T187 435L152 264H280ZM252 808L339 710H272L220 765H218L166 710H100L186 808H252ZM114 820Q112 853 128 878T175 904Q190 904 201 899T223 887Q234 881 243 876T263 871Q274 871 280 878T288 906H329Q329 868 314 845T266 821Q252 821 240 827T218 839Q207 844 198 849T180 855Q160 855 155 820H114Z"  />
<glyph unicode="&#x1EAB;" horiz-adv-x="364" d="M245 0L240 51H237Q221 23 197 8T141 -8Q92 -8 59 29T26 130Q26 175 43 208T88 263T154 295T232 306V321Q232 370 217 400T155 431Q132 431 112 424T75 406L58 460Q73 471 104 481T171 492Q244 492 277 447T310 319V110Q310 82 310 53T315 0H245ZM234 250Q219 250 197 248T153 234T116 200T101 138Q101 114 106 98T120 72T139 57T160 52Q186 52 205 70T232 125Q234 132 234 139T234 152V250ZM209 650L285 547H225L184 607H182L141 547H80L156 650H209ZM77 661Q76 694 92 720T138 746Q153 746 164 741T186 729Q197 723 206 718T227 713Q238 713 244 720T251 747H292Q292 709 277 686T229 662Q216 662 204 668T181 680Q170 686 162 691T143 696Q123 696 118 661H77Z"  />
<glyph unicode="&#x1EAC;" horiz-adv-x="435" d="M141 202L96 0H22L176 674H261L411 0H335L290 202H141ZM280 264L245 435Q237 471 231 511T218 589H214Q208 551 201 510T187 435L152 264H280ZM252 808L339 710H272L220 765H218L166 710H100L186 808H252ZM218 -169Q199 -169 186 -156T173 -125Q173 -105 186 -93T218 -80Q237 -80 249 -92T262 -125Q262 -143 250 -156T218 -169Z"  />
<glyph unicode="&#x1EAD;" horiz-adv-x="364" d="M245 0L240 51H237Q221 23 197 8T141 -8Q92 -8 59 29T26 130Q26 175 43 208T88 263T154 295T232 306V321Q232 370 217 400T155 431Q132 431 112 424T75 406L58 460Q73 471 104 481T171 492Q244 492 277 447T310 319V110Q310 82 310 53T315 0H245ZM234 250Q219 250 197 248T153 234T116 200T101 138Q101 114 106 98T120 72T139 57T160 52Q186 52 205 70T232 125Q234 132 234 139T234 152V250ZM208 682L287 547H229L183 633H181L135 547H77L156 682H208ZM179 -80Q197 -80 209 -92T221 -125Q221 -144 209 -156T178 -169Q160 -169 147 -157T134 -125Q134 -105 147 -93T179 -80Z"  />
<glyph unicode="&#x1EAE;" horiz-adv-x="435" d="M141 202L96 0H22L176 674H261L411 0H335L290 202H141ZM280 264L245 435Q237 471 231 511T218 589H214Q208 551 201 510T187 435L152 264H280ZM153 785Q159 764 176 753T219 742Q245 742 262 752T286 785H327Q321 743 292 719T219 695Q175 695 147 719T113 785H153ZM336 876L236 775H190L256 876H336Z"  />
<glyph unicode="&#x1EAF;" horiz-adv-x="364" d="M245 0L240 51H237Q221 23 197 8T141 -8Q92 -8 59 29T26 130Q26 175 43 208T88 263T154 295T232 306V321Q232 370 217 400T155 431Q132 431 112 424T75 406L58 460Q73 471 104 481T171 492Q244 492 277 447T310 319V110Q310 82 310 53T315 0H245ZM234 250Q219 250 197 248T153 234T116 200T101 138Q101 114 106 98T120 72T139 57T160 52Q186 52 205 70T232 125Q234 132 234 139T234 152V250ZM287 737L196 623H148L214 737H287ZM113 644Q115 617 133 600T180 583Q211 583 228 600T248 644H290Q291 594 261 564T180 533Q128 533 99 564T71 644H113Z"  />
<glyph unicode="&#x1EB0;" horiz-adv-x="435" d="M141 202L96 0H22L176 674H261L411 0H335L290 202H141ZM280 264L245 435Q237 471 231 511T218 589H214Q208 551 201 510T187 435L152 264H280ZM186 876L252 775H206L106 876H186ZM151 785Q156 764 173 753T216 742Q242 742 260 752T284 785H324Q318 743 289 719T216 695Q173 695 145 719T110 785H151Z"  />
<glyph unicode="&#x1EB1;" horiz-adv-x="364" d="M245 0L240 51H237Q221 23 197 8T141 -8Q92 -8 59 29T26 130Q26 175 43 208T88 263T154 295T232 306V321Q232 370 217 400T155 431Q132 431 112 424T75 406L58 460Q73 471 104 481T171 492Q244 492 277 447T310 319V110Q310 82 310 53T315 0H245ZM234 250Q219 250 197 248T153 234T116 200T101 138Q101 114 106 98T120 72T139 57T160 52Q186 52 205 70T232 125Q234 132 234 139T234 152V250ZM146 737L211 623H164L73 737H146ZM114 644Q117 617 134 600T181 583Q212 583 229 600T249 644H291Q292 619 284 599T262 564T227 541T181 533Q129 533 100 564T72 644H114Z"  />
<glyph unicode="&#x1EB2;" horiz-adv-x="435" d="M141 202L96 0H22L176 674H261L411 0H335L290 202H141ZM280 264L245 435Q237 471 231 511T218 589H214Q208 551 201 510T187 435L152 264H280ZM192 773Q196 786 204 795T219 812T231 829T237 849Q237 862 229 870T209 878Q194 878 184 868T166 846L140 866Q151 889 171 905T222 922Q251 922 270 905T289 861Q289 845 283 833T267 811T248 789T228 764L192 773ZM152 785Q157 764 174 753T217 742Q243 742 261 752T285 785H325Q319 743 290 719T218 695Q174 695 146 719T112 785H152Z"  />
<glyph unicode="&#x1EB3;" horiz-adv-x="364" d="M245 0L240 51H237Q221 23 197 8T141 -8Q92 -8 59 29T26 130Q26 175 43 208T88 263T154 295T232 306V321Q232 370 217 400T155 431Q132 431 112 424T75 406L58 460Q73 471 104 481T171 492Q244 492 277 447T310 319V110Q310 82 310 53T315 0H245ZM234 250Q219 250 197 248T153 234T116 200T101 138Q101 114 106 98T120 72T139 57T160 52Q186 52 205 70T232 125Q234 132 234 139T234 152V250ZM156 623Q160 636 167 645T182 662T195 679T200 699Q200 710 192 718T170 727Q157 727 148 718T130 696L104 716Q115 739 135 755T184 772Q214 772 234 755T255 710Q255 694 249 683T233 661T213 640T194 615L156 623ZM115 644Q117 617 135 600T181 583Q213 583 230 600T250 644H292Q293 594 263 564T181 533Q130 533 101 564T73 644H115Z"  />
<glyph unicode="&#x1EB4;" horiz-adv-x="435" d="M141 202L96 0H22L176 674H261L411 0H335L290 202H141ZM280 264L245 435Q237 471 231 511T218 589H214Q208 551 201 510T187 435L152 264H280ZM110 819Q112 846 126 869T171 893Q187 893 197 888T219 876Q230 870 239 865T260 860Q271 860 277 867T285 895H326Q326 857 311 834T263 810Q249 810 237 816T214 828Q203 834 195 839T176 844Q165 844 160 837T153 819H110ZM149 785Q154 764 171 753T214 742Q240 742 258 752T282 785H322Q316 743 287 719T214 695Q171 695 143 719T109 785H149Z"  />
<glyph unicode="&#x1EB5;" horiz-adv-x="364" d="M245 0L240 51H237Q221 23 197 8T141 -8Q92 -8 59 29T26 130Q26 175 43 208T88 263T154 295T232 306V321Q232 370 217 400T155 431Q132 431 112 424T75 406L58 460Q73 471 104 481T171 492Q244 492 277 447T310 319V110Q310 82 310 53T315 0H245ZM234 250Q219 250 197 248T153 234T116 200T101 138Q101 114 106 98T120 72T139 57T160 52Q186 52 205 70T232 125Q234 132 234 139T234 152V250ZM75 679Q77 707 91 730T136 754Q151 754 162 749T184 737Q195 731 204 726T224 721Q235 721 241 728T249 756H290Q290 718 275 695T227 671Q213 671 201 677T179 689Q168 694 160 699T141 704Q130 704 125 697T118 679H75ZM114 645Q116 617 134 599T181 581Q212 581 230 599T249 645H291Q292 595 262 564T181 533Q129 533 101 565T73 645H114Z"  />
<glyph unicode="&#x1EB6;" horiz-adv-x="435" d="M141 202L96 0H22L176 674H261L411 0H335L290 202H141ZM280 264L245 435Q237 471 231 511T218 589H214Q208 551 201 510T187 435L152 264H280ZM158 811Q162 791 178 780T219 768Q243 768 259 778T281 811H326Q326 768 298 742T220 715Q169 715 141 740T113 811H158ZM218 -169Q199 -169 186 -156T172 -125Q172 -105 185 -93T218 -80Q236 -80 249 -92T262 -125Q262 -143 249 -156T218 -169Z"  />
<glyph unicode="&#x1EB7;" horiz-adv-x="364" d="M245 0L240 51H237Q221 23 197 8T141 -8Q92 -8 59 29T26 130Q26 175 43 208T88 263T154 295T232 306V321Q232 370 217 400T155 431Q132 431 112 424T75 406L58 460Q73 471 104 481T171 492Q244 492 277 447T310 319V110Q310 82 310 53T315 0H245ZM234 250Q219 250 197 248T153 234T116 200T101 138Q101 114 106 98T120 72T139 57T160 52Q186 52 205 70T232 125Q234 132 234 139T234 152V250ZM119 669Q121 641 138 624T181 607Q210 607 227 624T245 669H288Q290 619 261 588T181 556Q129 556 102 588T76 669H119ZM179 -80Q197 -80 209 -92T221 -125Q221 -144 209 -156T178 -169Q160 -169 147 -157T134 -125Q134 -105 147 -93T179 -80Z"  />
<glyph unicode="&#x1EB8;" horiz-adv-x="354" d="M306 320H137V67H329V0H60V674H317V607H137V385H306V320ZM178 -169Q158 -169 145 -156T132 -125Q132 -105 145 -93T178 -80Q196 -80 208 -92T221 -125Q221 -143 209 -156T178 -169Z"  />
<glyph unicode="&#x1EB9;" horiz-adv-x="363" d="M108 235Q108 179 118 144T145 90T181 63T223 55Q248 55 268 60T303 74L315 17Q295 6 267 0T209 -6Q122 -6 78 60T33 237Q33 296 45 343T78 423T130 474T196 492Q233 492 259 474T302 426T326 358T334 278Q334 264 334 254T333 235H108ZM260 292Q261 365 239 398T188 432Q169 432 155 420T131 387T116 342T109 292H260ZM179 -80Q197 -80 209 -92T221 -125Q221 -144 209 -156T178 -169Q160 -169 147 -157T134 -125Q134 -105 147 -93T179 -80Z"  />
<glyph unicode="&#x1EBA;" horiz-adv-x="354" d="M306 320H137V67H329V0H60V674H317V607H137V385H306V320ZM164 715Q169 728 176 737T191 755T204 772T210 793Q210 806 202 814T181 822Q167 822 157 812T139 790L111 811Q123 835 143 852T196 869Q226 869 246 851T266 805Q266 789 260 777T244 755T225 733T205 706L164 715Z"  />
<glyph unicode="&#x1EBB;" horiz-adv-x="363" d="M108 235Q108 179 118 144T145 90T181 63T223 55Q248 55 268 60T303 74L315 17Q295 6 267 0T209 -6Q122 -6 78 60T33 237Q33 296 45 343T78 423T130 474T196 492Q233 492 259 474T302 426T326 358T334 278Q334 264 334 254T333 235H108ZM260 292Q261 365 239 398T188 432Q169 432 155 420T131 387T116 342T109 292H260ZM154 539Q158 554 166 566T182 588T197 609T203 633Q203 647 194 656T171 666Q157 666 148 657T131 634L103 655Q114 681 134 698T185 715Q217 715 238 695T259 645Q259 626 252 612T235 586T214 560T195 530L154 539Z"  />
<glyph unicode="&#x1EBC;" horiz-adv-x="354" d="M306 320H137V67H329V0H60V674H317V607H137V385H306V320ZM83 718Q83 760 98 786T143 812Q157 812 168 807T190 795Q201 788 210 783T229 777Q242 777 248 785T256 813H296Q297 771 282 747T234 723Q220 723 208 728T185 740Q175 747 166 752T149 757Q137 757 132 748T125 718H83Z"  />
<glyph unicode="&#x1EBD;" horiz-adv-x="363" d="M108 235Q108 179 118 144T145 90T181 63T223 55Q248 55 268 60T303 74L315 17Q295 6 267 0T209 -6Q122 -6 78 60T33 237Q33 296 45 343T78 423T130 474T196 492Q233 492 259 474T302 426T326 358T334 278Q334 264 334 254T333 235H108ZM260 292Q261 365 239 398T188 432Q169 432 155 420T131 387T116 342T109 292H260ZM74 561Q73 601 88 628T135 655Q151 655 162 650T184 638Q195 631 204 626T224 621Q235 621 241 628T249 657H290Q290 615 275 591T227 567Q213 567 201 572T178 584Q167 590 159 595T141 601Q119 601 116 561H74Z"  />
<glyph unicode="&#x1EBE;" horiz-adv-x="354" d="M306 320H137V67H329V0H60V674H317V607H137V385H306V320ZM222 808L300 710H237L193 767H191L147 710H86L162 808H222ZM408 882L308 781H261L328 882H408Z"  />
<glyph unicode="&#x1EBF;" horiz-adv-x="363" d="M108 235Q108 179 118 144T145 90T181 63T223 55Q248 55 268 60T303 74L315 17Q295 6 267 0T209 -6Q122 -6 78 60T33 237Q33 296 45 343T78 423T130 474T196 492Q233 492 259 474T302 426T326 358T334 278Q334 264 334 254T333 235H108ZM260 292Q261 365 239 398T188 432Q169 432 155 420T131 387T116 342T109 292H260ZM224 682L286 547H231L198 630H195L162 547H107L169 682H224ZM387 742L310 625H269L319 742H387Z"  />
<glyph unicode="&#x1EC0;" horiz-adv-x="354" d="M306 320H137V67H329V0H60V674H317V607H137V385H306V320ZM283 867L350 767H303L203 867H283ZM216 808L293 710H231L187 767H185L141 710H80L156 808H216Z"  />
<glyph unicode="&#x1EC1;" horiz-adv-x="363" d="M108 235Q108 179 118 144T145 90T181 63T223 55Q248 55 268 60T303 74L315 17Q295 6 267 0T209 -6Q122 -6 78 60T33 237Q33 296 45 343T78 423T130 474T196 492Q233 492 259 474T302 426T326 358T334 278Q334 264 334 254T333 235H108ZM260 292Q261 365 239 398T188 432Q169 432 155 420T131 387T116 342T109 292H260ZM291 742L336 626H295L223 742H291ZM223 682L286 547H230L198 630H194L162 547H106L169 682H223Z"  />
<glyph unicode="&#x1EC2;" horiz-adv-x="354" d="M306 320H137V67H329V0H60V674H317V607H137V385H306V320ZM220 808L297 710H234L191 767H189L145 710H84L160 808H220ZM276 761Q280 774 288 783T303 800T315 817T321 837Q321 850 313 858T293 866Q278 866 268 856T250 834L224 854Q235 877 255 893T306 910Q335 910 354 893T373 849Q373 833 367 821T351 799T332 777T312 752L276 761Z"  />
<glyph unicode="&#x1EC3;" horiz-adv-x="363" d="M108 235Q108 179 118 144T145 90T181 63T223 55Q248 55 268 60T303 74L315 17Q295 6 267 0T209 -6Q122 -6 78 60T33 237Q33 296 45 343T78 423T130 474T196 492Q233 492 259 474T302 426T326 358T334 278Q334 264 334 254T333 235H108ZM260 292Q261 365 239 398T188 432Q169 432 155 420T131 387T116 342T109 292H260ZM216 682L278 547H223L190 630H187L155 547H99L162 682H216ZM266 632Q270 645 278 654T293 671T305 688T311 708Q311 721 303 729T281 737Q267 737 258 727T240 705L214 725Q225 748 245 764T295 781Q325 781 344 763T364 718Q364 702 358 691T343 670T324 649T305 624L266 632Z"  />
<glyph unicode="&#x1EC4;" horiz-adv-x="354" d="M306 320H137V67H329V0H60V674H317V607H137V385H306V320ZM225 808L312 710H245L193 765H191L139 710H73L159 808H225ZM87 820Q85 853 101 878T148 904Q163 904 174 899T196 887Q207 881 216 876T236 871Q247 871 253 878T261 906H302Q302 868 287 845T239 821Q225 821 213 827T191 839Q180 844 171 849T153 855Q133 855 128 820H87Z"  />
<glyph unicode="&#x1EC5;" horiz-adv-x="363" d="M108 235Q108 179 118 144T145 90T181 63T223 55Q248 55 268 60T303 74L315 17Q295 6 267 0T209 -6Q122 -6 78 60T33 237Q33 296 45 343T78 423T130 474T196 492Q233 492 259 474T302 426T326 358T334 278Q334 264 334 254T333 235H108ZM260 292Q261 365 239 398T188 432Q169 432 155 420T131 387T116 342T109 292H260ZM221 650L297 547H236L196 607H194L153 547H92L168 650H221ZM89 661Q88 694 104 720T150 746Q165 746 176 741T198 729Q209 723 218 718T238 713Q249 713 255 720T263 747H304Q304 709 289 686T241 662Q227 662 215 668T193 680Q182 686 174 691T155 696Q135 696 130 661H89Z"  />
<glyph unicode="&#x1EC6;" horiz-adv-x="354" d="M306 320H137V67H329V0H60V674H317V607H137V385H306V320ZM222 808L309 710H241L190 765H188L136 710H69L155 808H222ZM190 -169Q171 -169 158 -156T145 -125Q145 -105 158 -93T190 -80Q209 -80 221 -92T234 -125Q234 -143 222 -156T190 -169Z"  />
<glyph unicode="&#x1EC7;" horiz-adv-x="363" d="M108 235Q108 179 118 144T145 90T181 63T223 55Q248 55 268 60T303 74L315 17Q295 6 267 0T209 -6Q122 -6 78 60T33 237Q33 296 45 343T78 423T130 474T196 492Q233 492 259 474T302 426T326 358T334 278Q334 264 334 254T333 235H108ZM260 292Q261 365 239 398T188 432Q169 432 155 420T131 387T116 342T109 292H260ZM207 682L286 547H229L182 633H180L134 547H76L155 682H207ZM179 -80Q197 -80 209 -92T221 -125Q221 -144 209 -156T178 -169Q160 -169 147 -157T134 -125Q134 -105 147 -93T179 -80Z"  />
<glyph unicode="&#x1EC8;" horiz-adv-x="199" d="M137 674V0H60V674H137ZM75 715Q79 728 87 737T102 755T114 772T120 793Q120 806 112 814T91 822Q77 822 67 812T49 790L21 811Q33 835 53 852T106 869Q136 869 156 851T177 805Q177 789 171 777T155 755T135 733T115 706L75 715Z"  />
<glyph unicode="&#x1EC9;" horiz-adv-x="184" d="M54 0V484H131V0H54ZM65 539Q69 554 77 566T94 588T108 609T114 633Q114 647 105 656T82 666Q68 666 59 657T42 634L14 655Q25 681 45 698T96 715Q128 715 149 695T171 645Q171 626 164 612T147 586T126 560T107 530L65 539Z"  />
<glyph unicode="&#x1ECA;" horiz-adv-x="199" d="M137 674V0H60V674H137ZM100 -169Q81 -169 68 -156T55 -125Q55 -105 68 -93T100 -80Q119 -80 131 -92T144 -125Q144 -143 132 -156T100 -169Z"  />
<glyph unicode="&#x1ECB;" horiz-adv-x="184" d="M54 0V484H131V0H54ZM91 659Q112 659 124 646T137 609Q138 586 125 573T90 559Q71 559 59 572T46 609Q46 632 59 645T91 659ZM90 -80Q108 -80 120 -92T132 -125Q132 -144 120 -156T89 -169Q71 -169 58 -157T45 -125Q45 -105 58 -93T90 -80Z"  />
<glyph unicode="&#x1ECC;" horiz-adv-x="446" d="M230 682Q317 682 365 593T414 342Q414 247 399 181T357 72T295 11T219 -8Q135 -8 84 80T32 338Q32 422 46 486T87 593T149 659T230 682ZM223 614Q191 614 170 590T136 527T118 438T112 337Q112 285 117 235T136 146T170 84T224 60Q257 60 278 85T311 150T329 239T334 339Q334 386 329 435T312 523T278 588T223 614ZM223 -169Q204 -169 191 -156T178 -125Q178 -105 191 -93T223 -80Q242 -80 254 -92T267 -125Q267 -143 255 -156T223 -169Z"  />
<glyph unicode="&#x1ECD;" horiz-adv-x="383" d="M195 492Q227 492 255 477T305 430T338 352T351 242Q351 172 336 124T298 47T247 5T190 -8Q157 -8 129 7T79 52T46 130T33 241Q33 307 46 354T82 432T134 477T195 492ZM192 430Q166 430 150 411T125 364T113 303T110 242Q110 212 113 179T126 118T151 72T194 53Q219 53 234 72T258 119T270 181T273 242Q273 270 270 302T258 363T233 411T192 430ZM189 -80Q207 -80 219 -92T231 -125Q231 -144 219 -156T188 -169Q170 -169 157 -157T144 -125Q144 -105 157 -93T189 -80Z"  />
<glyph unicode="&#x1ECE;" horiz-adv-x="446" d="M230 682Q317 682 365 593T414 342Q414 247 399 181T357 72T295 11T219 -8Q135 -8 84 80T32 338Q32 422 46 486T87 593T149 659T230 682ZM223 614Q191 614 170 590T136 527T118 438T112 337Q112 285 117 235T136 146T170 84T224 60Q257 60 278 85T311 150T329 239T334 339Q334 386 329 435T312 523T278 588T223 614ZM198 715Q202 728 210 737T225 755T237 772T243 793Q243 806 235 814T214 822Q200 822 190 812T172 790L144 811Q156 835 176 852T229 869Q259 869 279 851T299 805Q299 789 293 777T277 755T258 733T238 706L198 715Z"  />
<glyph unicode="&#x1ECF;" horiz-adv-x="383" d="M195 492Q227 492 255 477T305 430T338 352T351 242Q351 172 336 124T298 47T247 5T190 -8Q157 -8 129 7T79 52T46 130T33 241Q33 307 46 354T82 432T134 477T195 492ZM192 430Q166 430 150 411T125 364T113 303T110 242Q110 212 113 179T126 118T151 72T194 53Q219 53 234 72T258 119T270 181T273 242Q273 270 270 302T258 363T233 411T192 430ZM164 539Q168 554 176 566T193 588T207 609T213 633Q213 647 204 656T181 666Q167 666 158 657T141 634L113 655Q124 681 144 698T195 715Q227 715 248 695T270 645Q270 626 263 612T246 586T225 560T206 530L164 539Z"  />
<glyph unicode="&#x1ED0;" horiz-adv-x="446" d="M230 682Q317 682 365 593T414 342Q414 247 399 181T357 72T295 11T219 -8Q135 -8 84 80T32 338Q32 422 46 486T87 593T149 659T230 682ZM223 614Q191 614 170 590T136 527T118 438T112 337Q112 285 117 235T136 146T170 84T224 60Q257 60 278 85T311 150T329 239T334 339Q334 386 329 435T312 523T278 588T223 614ZM261 808L338 710H275L231 767H229L186 710H125L201 808H261ZM446 882L346 781H300L366 882H446Z"  />
<glyph unicode="&#x1ED1;" horiz-adv-x="383" d="M195 492Q227 492 255 477T305 430T338 352T351 242Q351 172 336 124T298 47T247 5T190 -8Q157 -8 129 7T79 52T46 130T33 241Q33 307 46 354T82 432T134 477T195 492ZM192 430Q166 430 150 411T125 364T113 303T110 242Q110 212 113 179T126 118T151 72T194 53Q219 53 234 72T258 119T270 181T273 242Q273 270 270 302T258 363T233 411T192 430ZM222 682L284 547H229L196 630H193L161 547H105L168 682H222ZM385 742L308 625H267L317 742H385Z"  />
<glyph unicode="&#x1ED2;" horiz-adv-x="446" d="M230 682Q317 682 365 593T414 342Q414 247 399 181T357 72T295 11T219 -8Q135 -8 84 80T32 338Q32 422 46 486T87 593T149 659T230 682ZM223 614Q191 614 170 590T136 527T118 438T112 337Q112 285 117 235T136 146T170 84T224 60Q257 60 278 85T311 150T329 239T334 339Q334 386 329 435T312 523T278 588T223 614ZM324 867L390 767H344L244 867H324ZM257 808L334 710H271L228 767H226L182 710H121L197 808H257Z"  />
<glyph unicode="&#x1ED3;" horiz-adv-x="383" d="M195 492Q227 492 255 477T305 430T338 352T351 242Q351 172 336 124T298 47T247 5T190 -8Q157 -8 129 7T79 52T46 130T33 241Q33 307 46 354T82 432T134 477T195 492ZM192 430Q166 430 150 411T125 364T113 303T110 242Q110 212 113 179T126 118T151 72T194 53Q219 53 234 72T258 119T270 181T273 242Q273 270 270 302T258 363T233 411T192 430ZM290 742L336 626H295L223 742H290ZM223 682L285 547H230L197 630H194L162 547H106L169 682H223Z"  />
<glyph unicode="&#x1ED4;" horiz-adv-x="446" d="M230 682Q317 682 365 593T414 342Q414 247 399 181T357 72T295 11T219 -8Q135 -8 84 80T32 338Q32 422 46 486T87 593T149 659T230 682ZM223 614Q191 614 170 590T136 527T118 438T112 337Q112 285 117 235T136 146T170 84T224 60Q257 60 278 85T311 150T329 239T334 339Q334 386 329 435T312 523T278 588T223 614ZM256 808L333 710H271L227 767H225L181 710H120L196 808H256ZM313 761Q317 774 324 783T339 800T351 817T357 837Q357 850 350 858T329 866Q315 866 305 856T286 834L260 854Q272 877 292 893T343 910Q372 910 390 893T409 849Q409 833 403 821T387 799T368 777T349 752L313 761Z"  />
<glyph unicode="&#x1ED5;" horiz-adv-x="383" d="M195 492Q227 492 255 477T305 430T338 352T351 242Q351 172 336 124T298 47T247 5T190 -8Q157 -8 129 7T79 52T46 130T33 241Q33 307 46 354T82 432T134 477T195 492ZM192 430Q166 430 150 411T125 364T113 303T110 242Q110 212 113 179T126 118T151 72T194 53Q219 53 234 72T258 119T270 181T273 242Q273 270 270 302T258 363T233 411T192 430ZM221 682L283 547H228L196 630H192L160 547H104L167 682H221ZM272 632Q276 645 283 654T298 671T310 688T316 708Q316 721 308 729T287 737Q273 737 264 727T246 705L219 725Q231 748 251 764T300 781Q330 781 350 763T370 718Q370 702 364 691T348 670T329 649T310 624L272 632Z"  />
<glyph unicode="&#x1ED6;" horiz-adv-x="446" d="M230 682Q317 682 365 593T414 342Q414 247 399 181T357 72T295 11T219 -8Q135 -8 84 80T32 338Q32 422 46 486T87 593T149 659T230 682ZM223 614Q191 614 170 590T136 527T118 438T112 337Q112 285 117 235T136 146T170 84T224 60Q257 60 278 85T311 150T329 239T334 339Q334 386 329 435T312 523T278 588T223 614ZM258 808L345 710H278L226 765H224L172 710H106L192 808H258ZM120 820Q118 853 134 878T180 904Q196 904 207 899T229 887Q240 881 249 876T269 871Q280 871 286 878T294 906H335Q335 868 320 845T272 821Q258 821 246 827T224 839Q213 844 204 849T186 855Q166 855 161 820H120Z"  />
<glyph unicode="&#x1ED7;" horiz-adv-x="383" d="M195 492Q227 492 255 477T305 430T338 352T351 242Q351 172 336 124T298 47T247 5T190 -8Q157 -8 129 7T79 52T46 130T33 241Q33 307 46 354T82 432T134 477T195 492ZM192 430Q166 430 150 411T125 364T113 303T110 242Q110 212 113 179T126 118T151 72T194 53Q219 53 234 72T258 119T270 181T273 242Q273 270 270 302T258 363T233 411T192 430ZM219 650L295 547H234L193 607H191L151 547H90L166 650H219ZM87 661Q86 694 102 720T148 746Q163 746 174 741T196 729Q207 723 216 718T236 713Q247 713 253 720T261 747H302Q302 709 287 686T239 662Q225 662 213 668T191 680Q180 686 171 691T153 696Q133 696 128 661H87Z"  />
<glyph unicode="&#x1ED8;" horiz-adv-x="446" d="M230 682Q317 682 365 593T414 342Q414 247 399 181T357 72T295 11T219 -8Q135 -8 84 80T32 338Q32 422 46 486T87 593T149 659T230 682ZM223 614Q191 614 170 590T136 527T118 438T112 337Q112 285 117 235T136 146T170 84T224 60Q257 60 278 85T311 150T329 239T334 339Q334 386 329 435T312 523T278 588T223 614ZM257 808L344 710H276L224 765H222L171 710H104L190 808H257ZM223 -169Q204 -169 191 -156T178 -125Q178 -105 191 -93T223 -80Q242 -80 254 -92T267 -125Q267 -143 255 -156T223 -169Z"  />
<glyph unicode="&#x1ED9;" horiz-adv-x="383" d="M195 492Q227 492 255 477T305 430T338 352T351 242Q351 172 336 124T298 47T247 5T190 -8Q157 -8 129 7T79 52T46 130T33 241Q33 307 46 354T82 432T134 477T195 492ZM192 430Q166 430 150 411T125 364T113 303T110 242Q110 212 113 179T126 118T151 72T194 53Q219 53 234 72T258 119T270 181T273 242Q273 270 270 302T258 363T233 411T192 430ZM218 682L297 547H239L193 633H191L145 547H86L166 682H218ZM189 -80Q207 -80 219 -92T231 -125Q231 -144 219 -156T188 -169Q170 -169 157 -157T144 -125Q144 -105 157 -93T189 -80Z"  />
<glyph unicode="&#x1EDA;" horiz-adv-x="446" d="M224 60Q257 60 278 85T311 150T329 239T334 339Q334 386 329 435T312 523T278 588T223 614Q190 614 169 589T135 524T117 435T112 338Q112 289 117 240T134 150T169 85T224 60ZM420 738Q427 725 431 708T436 671Q436 639 419 615T364 592Q385 555 399 495T414 342Q414 247 399 181T357 72T295 11T219 -8Q135 -8 84 80T32 338Q32 422 46 486T87 593T149 659T230 682Q248 682 266 677T301 664Q320 653 330 647T350 640Q376 640 376 672Q376 689 371 702T361 727L420 738ZM362 818L238 710H177L271 818H362Z"  />
<glyph unicode="&#x1EDB;" horiz-adv-x="383" d="M192 430Q166 430 150 411T125 364T113 303T110 242Q110 212 113 179T126 118T151 72T194 53Q219 53 234 72T258 119T270 181T273 242Q273 270 270 302T258 363T233 411T192 430ZM373 557Q380 545 385 528T390 491Q390 456 370 436T314 414Q331 386 341 343T351 242Q351 172 336 124T298 47T247 5T190 -8Q157 -8 129 7T79 52T46 130T33 241Q33 307 46 354T82 432T134 477T195 492Q209 492 223 488T250 479Q261 474 273 468T301 462Q313 462 321 469T330 494Q330 509 326 522T315 547L373 557ZM310 682L205 547H154L231 682H310Z"  />
<glyph unicode="&#x1EDC;" horiz-adv-x="446" d="M224 60Q257 60 278 85T311 150T329 239T334 339Q334 386 329 435T312 523T278 588T223 614Q190 614 169 589T135 524T117 435T112 338Q112 289 117 240T134 150T169 85T224 60ZM420 738Q427 725 431 708T436 671Q436 639 419 615T364 592Q385 555 399 495T414 342Q414 247 399 181T357 72T295 11T219 -8Q135 -8 84 80T32 338Q32 422 46 486T87 593T149 659T230 682Q248 682 266 677T301 664Q320 653 330 647T350 640Q376 640 376 672Q376 689 371 702T361 727L420 738ZM187 818L281 710H221L96 818H187Z"  />
<glyph unicode="&#x1EDD;" horiz-adv-x="383" d="M192 430Q166 430 150 411T125 364T113 303T110 242Q110 212 113 179T126 118T151 72T194 53Q219 53 234 72T258 119T270 181T273 242Q273 270 270 302T258 363T233 411T192 430ZM373 557Q380 545 385 528T390 491Q390 456 370 436T314 414Q331 386 341 343T351 242Q351 172 336 124T298 47T247 5T190 -8Q157 -8 129 7T79 52T46 130T33 241Q33 307 46 354T82 432T134 477T195 492Q209 492 223 488T250 479Q261 474 273 468T301 462Q313 462 321 469T330 494Q330 509 326 522T315 547L373 557ZM166 682L243 547H192L87 682H166Z"  />
<glyph unicode="&#x1EDE;" horiz-adv-x="446" d="M224 60Q257 60 278 85T311 150T329 239T334 339Q334 386 329 435T312 523T278 588T223 614Q190 614 169 589T135 524T117 435T112 338Q112 289 117 240T134 150T169 85T224 60ZM420 738Q427 725 431 708T436 671Q436 639 419 615T364 592Q385 555 399 495T414 342Q414 247 399 181T357 72T295 11T219 -8Q135 -8 84 80T32 338Q32 422 46 486T87 593T149 659T230 682Q248 682 266 677T301 664Q320 653 330 647T350 640Q376 640 376 672Q376 689 371 702T361 727L420 738ZM198 715Q202 728 210 737T225 755T237 772T243 793Q243 806 235 814T214 822Q200 822 190 812T172 790L144 811Q156 835 176 852T229 869Q259 869 279 851T299 805Q299 789 293 777T277 755T258 733T238 706L198 715Z"  />
<glyph unicode="&#x1EDF;" horiz-adv-x="383" d="M192 430Q166 430 150 411T125 364T113 303T110 242Q110 212 113 179T126 118T151 72T194 53Q219 53 234 72T258 119T270 181T273 242Q273 270 270 302T258 363T233 411T192 430ZM373 557Q380 545 385 528T390 491Q390 456 370 436T314 414Q331 386 341 343T351 242Q351 172 336 124T298 47T247 5T190 -8Q157 -8 129 7T79 52T46 130T33 241Q33 307 46 354T82 432T134 477T195 492Q209 492 223 488T250 479Q261 474 273 468T301 462Q313 462 321 469T330 494Q330 509 326 522T315 547L373 557ZM164 539Q168 554 176 566T192 588T207 609T213 633Q213 647 204 656T181 666Q167 666 158 657T141 634L113 655Q124 681 144 698T195 715Q227 715 248 695T269 645Q269 626 262 612T245 586T224 560T205 530L164 539Z"  />
<glyph unicode="&#x1EE0;" horiz-adv-x="446" d="M224 60Q257 60 278 85T311 150T329 239T334 339Q334 386 329 435T312 523T278 588T223 614Q190 614 169 589T135 524T117 435T112 338Q112 289 117 240T134 150T169 85T224 60ZM420 738Q427 725 431 708T436 671Q436 639 419 615T364 592Q385 555 399 495T414 342Q414 247 399 181T357 72T295 11T219 -8Q135 -8 84 80T32 338Q32 422 46 486T87 593T149 659T230 682Q248 682 266 677T301 664Q320 653 330 647T350 640Q376 640 376 672Q376 689 371 702T361 727L420 738ZM117 718Q116 760 132 786T176 812Q191 812 202 807T224 795Q235 788 244 783T263 777Q275 777 281 785T290 813H330Q331 771 316 747T268 723Q253 723 241 728T219 740Q208 747 200 752T182 757Q162 757 158 718H117Z"  />
<glyph unicode="&#x1EE1;" horiz-adv-x="383" d="M192 430Q166 430 150 411T125 364T113 303T110 242Q110 212 113 179T126 118T151 72T194 53Q219 53 234 72T258 119T270 181T273 242Q273 270 270 302T258 363T233 411T192 430ZM373 557Q380 545 385 528T390 491Q390 456 370 436T314 414Q331 386 341 343T351 242Q351 172 336 124T298 47T247 5T190 -8Q157 -8 129 7T79 52T46 130T33 241Q33 307 46 354T82 432T134 477T195 492Q209 492 223 488T250 479Q261 474 273 468T301 462Q313 462 321 469T330 494Q330 509 326 522T315 547L373 557ZM83 561Q82 601 98 628T145 655Q160 655 171 650T194 638Q205 631 213 626T233 621Q244 621 250 628T258 657H299Q299 615 284 591T236 567Q222 567 210 572T187 584Q176 590 168 595T150 601Q128 601 125 561H83Z"  />
<glyph unicode="&#x1EE2;" horiz-adv-x="446" d="M224 60Q257 60 278 85T311 150T329 239T334 339Q334 386 329 435T312 523T278 588T223 614Q190 614 169 589T135 524T117 435T112 338Q112 289 117 240T134 150T169 85T224 60ZM420 738Q427 725 431 708T436 671Q436 639 419 615T364 592Q385 555 399 495T414 342Q414 247 399 181T357 72T295 11T219 -8Q135 -8 84 80T32 338Q32 422 46 486T87 593T149 659T230 682Q248 682 266 677T301 664Q320 653 330 647T350 640Q376 640 376 672Q376 689 371 702T361 727L420 738ZM223 -169Q204 -169 191 -156T178 -125Q178 -105 191 -93T223 -80Q242 -80 254 -92T267 -125Q267 -143 255 -156T223 -169Z"  />
<glyph unicode="&#x1EE3;" horiz-adv-x="383" d="M192 430Q166 430 150 411T125 364T113 303T110 242Q110 212 113 179T126 118T151 72T194 53Q219 53 234 72T258 119T270 181T273 242Q273 270 270 302T258 363T233 411T192 430ZM373 557Q380 545 385 528T390 491Q390 456 370 436T314 414Q331 386 341 343T351 242Q351 172 336 124T298 47T247 5T190 -8Q157 -8 129 7T79 52T46 130T33 241Q33 307 46 354T82 432T134 477T195 492Q209 492 223 488T250 479Q261 474 273 468T301 462Q313 462 321 469T330 494Q330 509 326 522T315 547L373 557ZM191 -80Q209 -80 221 -92T234 -125Q234 -144 222 -156T190 -169Q172 -169 160 -157T147 -125Q147 -105 160 -93T191 -80Z"  />
<glyph unicode="&#x1EE4;" horiz-adv-x="457" d="M136 674V222Q136 177 143 146T162 96T191 69T228 60Q249 60 266 68T296 96T314 147T321 222V674H398V234Q398 168 385 122T350 47T295 5T226 -8Q150 -8 105 46T59 225V674H136ZM229 -169Q210 -169 197 -156T184 -125Q184 -105 197 -93T229 -80Q248 -80 260 -92T273 -125Q273 -143 261 -156T229 -169Z"  />
<glyph unicode="&#x1EE5;" horiz-adv-x="398" d="M344 132Q344 91 345 59T348 0H281L276 51H274Q268 42 259 32T236 13T206 -2T170 -8Q106 -8 79 39T52 178V484H129V189Q129 160 131 136T141 95T161 67T194 57Q211 57 223 64T244 81T256 102T263 121Q265 131 266 142T267 165V484H344V132ZM196 -80Q214 -80 226 -92T239 -125Q239 -144 227 -156T195 -169Q177 -169 164 -157T151 -125Q151 -105 164 -93T196 -80Z"  />
<glyph unicode="&#x1EE6;" horiz-adv-x="457" d="M136 674V222Q136 177 143 146T162 96T191 69T228 60Q249 60 266 68T296 96T314 147T321 222V674H398V234Q398 168 385 122T350 47T295 5T226 -8Q150 -8 105 46T59 225V674H136ZM204 715Q208 728 216 737T231 755T243 772T249 793Q249 806 241 814T220 822Q206 822 196 812T178 790L150 811Q162 835 182 852T235 869Q265 869 285 851T306 805Q306 789 300 777T284 755T264 733T244 706L204 715Z"  />
<glyph unicode="&#x1EE7;" horiz-adv-x="398" d="M344 132Q344 91 345 59T348 0H281L276 51H274Q268 42 259 32T236 13T206 -2T170 -8Q106 -8 79 39T52 178V484H129V189Q129 160 131 136T141 95T161 67T194 57Q211 57 223 64T244 81T256 102T263 121Q265 131 266 142T267 165V484H344V132ZM171 539Q175 554 183 566T200 588T214 609T220 633Q220 647 211 656T188 666Q174 666 165 657T148 634L120 655Q131 681 151 698T202 715Q235 715 256 695T277 645Q277 626 270 612T253 586T232 560T213 530L171 539Z"  />
<glyph unicode="&#x1EE8;" horiz-adv-x="474" d="M465 766Q472 752 476 736T480 701Q480 669 464 649T408 626L398 625V234Q398 168 385 122T350 47T295 5T226 -8Q150 -8 105 46T59 225V674H136V222Q136 177 143 146T162 96T191 69T228 60Q249 60 266 68T296 96T314 147T321 222V674H383Q403 674 411 680T419 703Q419 731 406 757L465 766ZM369 818L244 710H183L278 818H369Z"  />
<glyph unicode="&#x1EE9;" horiz-adv-x="398" d="M405 578Q412 566 416 549T421 514Q421 484 405 463T350 440L344 439V132Q344 91 345 59T348 0H281L276 51H274Q268 42 259 32T236 13T206 -2T170 -8Q106 -8 79 39T52 178V484H129V189Q129 160 131 136T141 95T161 67T194 57Q211 57 223 64T244 81T256 102T263 121Q265 131 266 142T267 165V484H325Q345 484 352 491T360 516Q360 530 356 544T346 569L405 578ZM326 682L221 547H170L247 682H326Z"  />
<glyph unicode="&#x1EEA;" horiz-adv-x="474" d="M465 766Q472 752 476 736T480 701Q480 669 464 649T408 626L398 625V234Q398 168 385 122T350 47T295 5T226 -8Q150 -8 105 46T59 225V674H136V222Q136 177 143 146T162 96T191 69T228 60Q249 60 266 68T296 96T314 147T321 222V674H383Q403 674 411 680T419 703Q419 731 406 757L465 766ZM178 818L272 710H212L87 818H178Z"  />
<glyph unicode="&#x1EEB;" horiz-adv-x="398" d="M405 578Q412 566 416 549T421 514Q421 484 405 463T350 440L344 439V132Q344 91 345 59T348 0H281L276 51H274Q268 42 259 32T236 13T206 -2T170 -8Q106 -8 79 39T52 178V484H129V189Q129 160 131 136T141 95T161 67T194 57Q211 57 223 64T244 81T256 102T263 121Q265 131 266 142T267 165V484H325Q345 484 352 491T360 516Q360 530 356 544T346 569L405 578ZM165 682L242 547H191L86 682H165Z"  />
<glyph unicode="&#x1EEC;" horiz-adv-x="474" d="M465 766Q472 752 476 736T480 701Q480 669 464 649T408 626L398 625V234Q398 168 385 122T350 47T295 5T226 -8Q150 -8 105 46T59 225V674H136V222Q136 177 143 146T162 96T191 69T228 60Q249 60 266 68T296 96T314 147T321 222V674H383Q403 674 411 680T419 703Q419 731 406 757L465 766ZM212 715Q216 728 224 737T239 755T252 772T258 793Q258 806 250 814T228 822Q214 822 205 812T187 790L159 811Q170 835 191 852T243 869Q274 869 294 851T314 805Q314 789 308 777T292 755T272 733T253 706L212 715Z"  />
<glyph unicode="&#x1EED;" horiz-adv-x="398" d="M405 578Q412 566 416 549T421 514Q421 484 405 463T350 440L344 439V132Q344 91 345 59T348 0H281L276 51H274Q268 42 259 32T236 13T206 -2T170 -8Q106 -8 79 39T52 178V484H129V189Q129 160 131 136T141 95T161 67T194 57Q211 57 223 64T244 81T256 102T263 121Q265 131 266 142T267 165V484H325Q345 484 352 491T360 516Q360 530 356 544T346 569L405 578ZM180 539Q184 554 192 566T209 588T223 609T229 633Q229 647 220 656T197 666Q183 666 174 657T157 634L129 655Q140 681 160 698T211 715Q243 715 264 695T286 645Q286 626 279 612T262 586T241 560T222 530L180 539Z"  />
<glyph unicode="&#x1EEE;" horiz-adv-x="474" d="M465 766Q472 752 476 736T480 701Q480 669 464 649T408 626L398 625V234Q398 168 385 122T350 47T295 5T226 -8Q150 -8 105 46T59 225V674H136V222Q136 177 143 146T162 96T191 69T228 60Q249 60 266 68T296 96T314 147T321 222V674H383Q403 674 411 680T419 703Q419 731 406 757L465 766ZM131 718Q130 760 145 786T190 812Q205 812 216 807T237 795Q248 788 257 783T277 777Q289 777 295 785T303 813H343Q344 771 330 747T281 723Q267 723 255 728T232 740Q222 747 214 752T196 757Q176 757 172 718H131Z"  />
<glyph unicode="&#x1EEF;" horiz-adv-x="398" d="M405 578Q412 566 416 549T421 514Q421 484 405 463T350 440L344 439V132Q344 91 345 59T348 0H281L276 51H274Q268 42 259 32T236 13T206 -2T170 -8Q106 -8 79 39T52 178V484H129V189Q129 160 131 136T141 95T161 67T194 57Q211 57 223 64T244 81T256 102T263 121Q265 131 266 142T267 165V484H325Q345 484 352 491T360 516Q360 530 356 544T346 569L405 578ZM93 561Q92 601 107 628T154 655Q170 655 181 650T203 638Q214 631 223 626T243 621Q254 621 260 628T268 657H309Q309 615 294 591T246 567Q232 567 220 572T197 584Q186 590 178 595T159 601Q138 601 135 561H93Z"  />
<glyph unicode="&#x1EF0;" horiz-adv-x="474" d="M465 766Q472 752 476 736T480 701Q480 669 464 649T408 626L398 625V234Q398 168 385 122T350 47T295 5T226 -8Q150 -8 105 46T59 225V674H136V222Q136 177 143 146T162 96T191 69T228 60Q249 60 266 68T296 96T314 147T321 222V674H383Q403 674 411 680T419 703Q419 731 406 757L465 766ZM235 -80Q253 -80 265 -92T277 -125Q277 -144 265 -156T234 -169Q216 -169 203 -157T190 -125Q190 -105 203 -93T235 -80Z"  />
<glyph unicode="&#x1EF1;" horiz-adv-x="398" d="M405 578Q412 566 416 549T421 514Q421 484 405 463T350 440L344 439V132Q344 91 345 59T348 0H281L276 51H274Q268 42 259 32T236 13T206 -2T170 -8Q106 -8 79 39T52 178V484H129V189Q129 160 131 136T141 95T161 67T194 57Q211 57 223 64T244 81T256 102T263 121Q265 131 266 142T267 165V484H325Q345 484 352 491T360 516Q360 530 356 544T346 569L405 578ZM194 -80Q212 -80 224 -92T236 -125Q236 -144 224 -156T193 -169Q175 -169 162 -157T149 -125Q149 -105 162 -93T194 -80Z"  />
<glyph unicode="&#x1EF2;" horiz-adv-x="394" d="M158 0V285L10 674H91L151 505Q164 470 177 431T201 353H203Q214 392 226 430T252 508L309 674H390L235 288V0H158ZM152 811L247 703H186L62 811H152Z"  />
<glyph unicode="&#x1EF3;" horiz-adv-x="346" d="M94 484L158 206Q165 177 169 153T178 106H180Q184 126 189 152T201 205L258 484H334L255 173Q232 81 205 -1T135 -139Q109 -171 85 -189T48 -213L20 -147Q55 -128 88 -86Q103 -67 114 -45T132 -5Q135 4 136 9T137 19Q137 24 137 28T135 37L13 484H94ZM141 682L218 547H167L62 682H141Z"  />
<glyph unicode="&#x1EF4;" horiz-adv-x="394" d="M158 0V285L10 674H91L151 505Q164 470 177 431T201 353H203Q214 392 226 430T252 508L309 674H390L235 288V0H158ZM198 -169Q178 -169 165 -156T152 -125Q152 -105 165 -93T198 -80Q216 -80 229 -92T242 -125Q242 -143 229 -156T198 -169Z"  />
<glyph unicode="&#x1EF5;" horiz-adv-x="346" d="M94 484L158 206Q165 177 169 153T178 106H180Q184 126 189 152T201 205L258 484H334L255 173Q232 81 205 -1T135 -139Q109 -171 85 -189T48 -213L20 -147Q55 -128 88 -86Q103 -67 114 -45T132 -5Q135 4 136 9T137 19Q137 24 137 28T135 37L13 484H94ZM247 -80Q265 -80 277 -92T290 -125Q290 -144 278 -156T246 -169Q228 -169 215 -157T202 -125Q202 -105 215 -93T247 -80Z"  />
</font>
</defs>
</svg>
